<svg xmlns="http://www.w3.org/2000/svg" xml:space="preserve" width="1920" height="1080" style="enable-background:new 0 0 1920 1080"><style>.st0{display:none}.st1{display:inline}.st3{fill:#b49481}.st5{fill:#f1af8c}.st7{fill:#7e8981}.st9{fill:#fff}.st10{display:inline;fill:#7e8981}.st12{fill:#ba87a8}.st13{fill:#e4f2bd}.st14{fill:#fffff5}.st15,.st16{display:inline;fill:#f1af8c}.st16{fill:#b49481}.st17{fill:#42210b}.st18{fill:#a5625b}.st21{fill:#635656}</style><g id="A"><path d="m325.6 407.01-60 34.65v415.73l60-34.64V476.16v.14-69.29z" class="st7"/><path d="m317.88 411.47 7.72 64.83v-.14c.08-2.41 2.2-35.77 60-69.14v-34.64l-67.72 39.09z" class="st7"/><path d="M205.6 407.01v415.74l60 34.64V441.66z" class="st3"/><path d="m205.6 407.01 60-34.64 60 34.64-60 34.65z" class="st5"/><path d="M314 497.3c0-5.81-2.05-9.89-5.38-11.79-2.8-.36-6.1.4-9.64 2.44-10.15 5.86-18.38 20.05-18.38 31.69v48.88l33.4-19.28V497.3z" class="st17"/><path d="M280.61 568.52v3.06l36.76-21.23-3.37-1.11z" class="st5"/><path d="M308.63 485.51c3.32 1.9 5.38 5.97 5.38 11.79v51.94l3.37 1.11v-51.94c0-7.59-3.5-12.22-8.75-12.9zM385.6 684.15s-120-61.07-120 69.3l-9.77-178.86 129.78 74.92-.01 34.64z" class="st3"/><path d="m265.6 372.37 60 34.64 59.97-34.62-.05-69.26z" class="st5"/><path d="m329.78 340.22-.02-74.28 4.35-2.51v74.28z" class="st7"/><path d="m329.78 340.22-.02-74.28-4.3-2.51v74.29zM385.45 372.36l-.01-74.27-4.31-2.51v74.28z" class="st3"/><path d="M316.83 263.43s68.59-29.62 68.61-64.28c.02-.01 0 103.92 0 103.92l-68.61-39.64z" class="st18"/><path d="m325.6 545.59-60 34.64 120 69.29h.01l-.01-69.29zM385.61 649.52v34.64zM385.61 580.12l-.01.11h.01z" class="st5"/></g></svg>