<svg xmlns="http://www.w3.org/2000/svg" xml:space="preserve" width="1920" height="1080" style="enable-background:new 0 0 1920 1080"><style>.st0{display:none}.st1{display:inline}.st4{fill:#b49481}.st6{fill:#f1af8c}.st8{fill:#7e8981}.st10{fill:#fff}.st11{display:inline;fill:#7e8981}.st13{fill:#ba87a8}.st14{fill:#e4f2bd}.st15{fill:#fffff5}.st16,.st17{display:inline;fill:#f1af8c}.st17{fill:#b49481}.st18{fill:#2c3640}.st19{fill:#5b6c76}.st20{fill:#9aa3a5}.st21{fill:#151a26}.st23,.st24,.st25{display:inline;fill:#9aa3a5}.st24,.st25{fill:#2c3640}.st25{fill:#5b6c76}.st28{fill:#22d3a1}</style><g id="A"><path d="m325.6 407.01-60 34.65v415.73l60-34.64V476.16v.14-69.29zM325.6 407.01v69.29-.14c.08-2.41 2.2-35.77 60-69.14v-34.64l-60 34.63z" class="st18"/><path d="M205.6 407.01v415.74l60 34.64V441.66z" class="st19"/><path d="m205.6 407.01 60-34.64 60 34.64-60 34.65z" class="st20"/><path d="M314 497.3c0-5.81-2.05-9.89-5.38-11.79-2.8-.36-6.1.4-9.64 2.44-10.15 5.86-18.38 20.05-18.38 31.69v48.88l33.4-19.28V497.3z" class="st21"/><path d="M280.61 568.52v3.06l36.76-21.23-3.37-1.11z" class="st20"/><path d="M308.63 485.51c3.32 1.9 5.38 5.97 5.38 11.79v51.94l3.37 1.11v-51.94c0-7.59-3.5-12.22-8.75-12.9zM385.6 684.15s-120-61.07-120 69.3V580.23l120.01 69.28-.01 34.64z" class="st19"/><path d="m265.6 372.37 60 34.64 59.97-34.62-.05-69.26z" class="st20"/><path d="m329.78 340.22-.02-74.28 4.35-2.51v74.28z" class="st18"/><path d="m329.78 340.22-.02-74.28-4.3-2.51v74.29zM385.45 372.36l-.01-74.27-4.31-2.51v74.28z" class="st19"/><linearGradient id="SVGID_00000011743950497234563060000016423828594767285661_" x1="351.13" x2="396.13" y1="283.26" y2="205.32" gradientUnits="userSpaceOnUse"><stop offset="0" style="stop-color:#22d3a1"/><stop offset=".99" style="stop-color:#141f0d"/></linearGradient><path d="M316.83 263.43s68.59-29.62 68.61-64.28c.02-.01 0 103.92 0 103.92l-68.61-39.64z" style="fill:url(#SVGID_00000011743950497234563060000016423828594767285661_)"/><path d="m325.6 545.59-60 34.64 120 69.29h.01l-.01-69.29zM385.61 649.52v34.64zM385.61 580.12l-.01.11h.01z" class="st20"/></g></svg>