<svg xmlns="http://www.w3.org/2000/svg" xml:space="preserve" width="1920" height="1080" style="enable-background:new 0 0 1920 1080"><style>.st0{display:none}.st1{display:inline}.st4{fill:#b49481}.st6{fill:#f1af8c}.st8{fill:#7e8981}.st10{fill:#fff}.st11{display:inline;fill:#7e8981}.st13{fill:#ba87a8}.st14{fill:#e4f2bd}.st15{fill:#fffff5}.st16,.st17{display:inline;fill:#f1af8c}.st17{fill:#b49481}.st18{fill:#2c3640}.st19{fill:#5b6c76}.st20{fill:#9aa3a5}.st21{fill:#151a26}.st22,.st23,.st24{display:inline;fill:#5b6c76}.st23,.st24{fill:#9aa3a5}.st24{fill:#2c3640}.st28{fill:#22d3a1}</style><g id="A"><path d="m505.61 857.39-.01-416.47-60-34.65v416.48zM445.6 407.01l-60-34.64v34.64c60 34.65 60 69.29 60 69.29V407.01z" class="st19"/><path d="m445.6 407.01 60-35.38 60.01 35.38-60 34.65z" class="st20"/><path d="M457.21 497.33c0-5.81 2.05-9.89 5.38-11.79 2.8-.36 6.1.4 9.64 2.44 10.15 5.86 18.38 20.05 18.38 31.69v48.88l-33.4-19.28v-51.94z" class="st21"/><path d="M490.61 568.56v3.05l-36.77-21.23 3.37-1.1z" class="st20"/><path d="M462.58 485.55c-3.32 1.9-5.38 5.97-5.38 11.79v51.94l-3.37 1.11v-51.94c.01-7.59 3.51-12.22 8.75-12.9z" class="st18"/><path d="m385.6 303.08-.08.05.05 69.26.03-.02 60 34.64 60-35.38z" class="st20"/><path d="M565.61 822.75V406.27l-60 34.65v139.32l-120 69.28.01 34.64s119.87-61 120 69.09v104.14l59.99-34.64zM385.45 372.36l-.01-74.27 4.35-2.51v74.28zM441.13 340.22l-.02-74.28 4.35-2.51v74.28z" class="st18"/><path d="m441.13 340.22-.02-74.28-4.31-2.51v74.29z" class="st19"/><linearGradient id="SVGID_00000145745523503944116750000011436486544024546239_" x1="374.87" x2="419.94" y1="205.25" y2="283.31" gradientUnits="userSpaceOnUse"><stop offset="0" style="stop-color:#0c1310"/><stop offset="1" style="stop-color:#82d1b8"/></linearGradient><path d="m385.44 303.07 68.93-39.64s-68.95-29.62-68.93-64.28v103.92z" style="fill:url(#SVGID_00000145745523503944116750000011436486544024546239_)"/><path d="m505.6 580.23-60-34.64-59.99 34.64v69.29z" class="st20"/></g></svg>