<?xml version="1.0" encoding="utf-8"?>
<!-- Generator: Adobe Illustrator 27.2.0, SVG Export Plug-In . SVG Version: 6.00 Build 0)  -->
<svg version="1.1" xmlns="http://www.w3.org/2000/svg" xmlns:xlink="http://www.w3.org/1999/xlink" x="0px" y="0px" width="1920px"
	 height="1080px" viewBox="0 0 1920 1080" style="enable-background:new 0 0 1920 1080;" xml:space="preserve">
<style type="text/css">
	.st0{display:none;}
	.st1{display:inline;fill:none;}
	.st2{display:inline;}
	.st3{fill:#B49481;}
	.st4{fill:#546D64;}
	.st5{fill:#F1AF8C;}
	.st6{fill:#4FB286;}
	.st7{fill:#7E8981;}
	.st8{fill:#3C896D;}
	.st9{fill:#FFFFFF;}
	.st10{display:inline;fill:#7E8981;}
	.st11{fill:#F1AF8C;stroke:#000000;stroke-miterlimit:10;}
	.st12{fill:#BA87A8;}
	.st13{fill:#E4F2BD;}
	.st14{fill:#FFFFF5;}
	.st15{display:inline;fill:#F1AF8C;}
	.st16{display:inline;fill:#B49481;}
</style>
<g id="Layer_1">
	<g>
	</g>
</g>
<g id="Layer_9" class="st0">
	<rect class="st1" width="1920" height="1080"/>
</g>
<g id="Layer_2" class="st0">
	<g class="st2">
		<rect x="-1076.3" y="482.8" class="st3" width="190.54" height="190.54"/>
	</g>
	<g class="st2">
		<rect x="-824.3" y="725.31" class="st4" width="190.54" height="190.54"/>
	</g>
	<g class="st2">
		<rect x="-1076.3" y="248.95" class="st5" width="190.54" height="190.54"/>
	</g>
	<g class="st2">
		<rect x="-824.3" y="248.95" class="st6" width="190.54" height="190.54"/>
	</g>
	<g class="st2">
		<rect x="-1076.3" y="725.31" class="st7" width="190.54" height="190.54"/>
	</g>
	<g class="st2">
		<rect x="-824.3" y="482.8" class="st8" width="190.54" height="190.54"/>
	</g>
	<g class="st2">
		<rect x="-565.79" y="721.48" class="st9" width="189.54" height="189.54"/>
		<path d="M-376.75,721.98v188.54h-188.54V721.98H-376.75 M-375.75,720.98h-190.54v190.54h190.54V720.98L-375.75,720.98z"/>
	</g>
	<g class="st2">
		<rect x="-313.79" y="721.48" class="st9" width="189.54" height="189.54"/>
		<path d="M-124.75,721.98v188.54h-188.54V721.98H-124.75 M-123.75,720.98h-190.54v190.54h190.54V720.98L-123.75,720.98z"/>
	</g>
	<g class="st2">
		<rect x="-565.79" y="245.12" class="st9" width="189.54" height="189.54"/>
		<path d="M-376.75,245.62v188.54h-188.54V245.62H-376.75 M-375.75,244.62h-190.54v190.54h190.54V244.62L-375.75,244.62z"/>
	</g>
	<g class="st2">
		<rect x="-313.79" y="245.12" class="st9" width="189.54" height="189.54"/>
		<path d="M-124.75,245.62v188.54h-188.54V245.62H-124.75 M-123.75,244.62h-190.54v190.54h190.54V244.62L-123.75,244.62z"/>
	</g>
	<g class="st2">
		<rect x="-565.79" y="478.97" class="st9" width="189.54" height="189.54"/>
		<path d="M-376.75,479.47v188.54h-188.54V479.47H-376.75 M-375.75,478.47h-190.54v190.54h190.54V478.47L-375.75,478.47z"/>
	</g>
	<g class="st2">
		<rect x="-313.79" y="478.97" class="st9" width="189.54" height="189.54"/>
		<path d="M-124.75,479.47v188.54h-188.54V479.47H-124.75 M-123.75,478.47h-190.54v190.54h190.54V478.47L-123.75,478.47z"/>
	</g>
</g>
<g id="Shapes" class="st0">
	<g class="st2">
		<polygon class="st5" points="-720.03,1593.27 -597.72,1522.65 -720.03,1452.03 -842.33,1522.65 		"/>
		<g>
			<polygon class="st7" points="-720.03,1593.27 -720.03,1828.66 -597.72,1758.04 -597.72,1522.65 			"/>
		</g>
		<g>
			<polygon class="st3" points="-842.33,1522.65 -842.33,1758.04 -720.03,1828.66 -720.03,1593.27 			"/>
		</g>
	</g>
	<g class="st2">
		<polyline class="st3" points="-1200.03,1117.23 -1200.03,1463.68 -1140.03,1498.32 -1140.03,1151.88 -1200.03,1117.23 		"/>
		<polyline class="st3" points="-1200.03,1186.52 -1020.03,1290.45 -960.03,1255.81 -1200.03,1117.23 		"/>
		<polygon class="st5" points="-1200.03,1117.23 -960.03,1255.81 -900.03,1221.16 -1140.03,1082.59 		"/>
		<polygon class="st5" points="-900.03,1221.16 -840.03,1255.81 -1080.03,1394.39 -1080.03,1325.1 -960.03,1255.81 		"/>
		<polygon class="st7" points="-840.03,1255.81 -840.03,1325.1 -1140.03,1498.32 -1140.03,1221.16 -1080.03,1255.81 
			-1080.03,1394.39 		"/>
	</g>
	<path class="st10" d="M-291.02,1242.72h-180v173.22h60c0,0,0-138.58,120-138.58C-291.02,1277.36-291.02,1242.72-291.02,1242.72z"/>
</g>
<g id="Bridge" class="st0">
	<g class="st2">
		<path class="st11" d="M599.99,1030.62"/>
		<g>
			<polygon class="st5" points="0,788.11 359.99,580.24 509.99,666.85 0,961.33 			"/>
		</g>
		<path class="st3" d="M53.72,942.13"/>
		<path class="st7" d="M209.99,840.08"/>
		<polygon class="st3" points="119.99,926.69 29.99,978.65 29.99,1080 119.99,1080 		"/>
		<g>
			<g>
				<polygon class="st7" points="509.99,666.85 509.99,701.5 329.99,805.43 330,770.79 				"/>
			</g>
			<polygon class="st7" points="119.99,926.69 209.99,874.72 209.99,1080 119.99,1080 			"/>
			<path class="st7" d="M329.99,805.43c0,0-120,77.5-120,207.87c0,0,0-173.22,0-173.22L330,770.79L329.99,805.43z"/>
			<path class="st7" d="M-0.01,995.96c0,0,120-61.07,120,69.3c0,0,0-173.22,0-173.22L-0.02,961.32L-0.01,995.96z"/>
			<polygon class="st7" points="119.99,926.69 209.99,874.72 209.99,840.08 119.99,892.04 			"/>
		</g>
	</g>
</g>
<g id="Layer_5" class="st0">
	<g class="st2">
		<polygon class="st12" points="840.17,995.84 840.17,1307.63 960.17,1238.34 960.17,926.54 		"/>
		<polygon class="st13" points="840.17,995.84 720.17,926.54 720.17,1238.34 840.17,1307.63 		"/>
		<polygon class="st14" points="720.17,926.54 840.17,857.25 960.17,926.54 840.17,995.84 		"/>
	</g>
	<g class="st2">
		<g>
			<polygon class="st14" points="409.17,1049.09 469.17,1014.45 529.16,1049.09 469.17,1083.74 			"/>
		</g>
		<g>
			<polygon class="st12" points="469.17,1083.74 469.17,1153.03 529.16,1118.38 529.16,1049.09 			"/>
		</g>
		<g>
			<polygon class="st13" points="409.17,1049.09 409.17,1118.38 469.17,1153.03 469.17,1083.74 			"/>
		</g>
	</g>
	<g class="st2">
		<polygon class="st12" points="120.16,995.84 120.16,1307.63 240.16,1238.34 240.16,926.54 		"/>
		<polygon class="st13" points="120.16,995.84 0.16,926.54 0.16,1238.34 120.16,1307.63 		"/>
		<polygon class="st14" points="0.16,926.54 120.16,857.25 240.16,926.54 120.16,995.84 		"/>
	</g>
	<g class="st2">
		<polygon class="st12" points="480.16,995.84 480.16,1307.63 600.17,1238.34 600.17,926.54 		"/>
		<polygon class="st13" points="480.16,995.84 360.16,926.54 360.16,1238.34 480.16,1307.63 		"/>
		<polygon class="st14" points="360.16,926.54 480.16,857.25 600.17,926.54 480.16,995.84 		"/>
	</g>
	<g class="st2">
		<polygon class="st14" points="300.16,995.83 150.16,1082.44 300.16,1169.06 450.16,1082.44 		"/>
		<polygon class="st13" points="150.16,1082.44 150.16,1394.25 300.16,1480.86 300.16,1169.06 		"/>
		<polygon class="st12" points="450.16,1082.44 450.16,1394.25 300.16,1480.86 300.16,1169.06 		"/>
	</g>
	<g class="st2">
		<polygon class="st14" points="660.17,995.83 510.16,1082.44 660.17,1169.06 810.17,1082.44 		"/>
		<polygon class="st13" points="510.16,1082.44 510.16,1394.25 660.17,1480.86 660.17,1169.06 		"/>
		<polygon class="st12" points="810.17,1082.44 810.17,1394.25 660.17,1480.86 660.17,1169.06 		"/>
	</g>
	<g class="st2">
		<polygon class="st12" points="1200.17,995.84 1200.17,1307.63 1320.18,1238.34 1320.18,926.54 		"/>
		<polygon class="st13" points="1200.17,995.84 1080.17,926.54 1080.17,1238.34 1200.17,1307.63 		"/>
		<polygon class="st14" points="1080.17,926.54 1200.17,857.25 1320.18,926.54 1200.17,995.84 		"/>
	</g>
	<g class="st2">
		<polygon class="st14" points="1020.17,995.83 870.17,1082.44 1020.17,1169.06 1170.17,1082.44 		"/>
		<polygon class="st13" points="870.17,1082.44 870.17,1394.25 1020.17,1480.86 1020.17,1169.06 		"/>
		<polygon class="st12" points="1170.17,1082.44 1170.17,1394.25 1020.17,1480.86 1020.17,1169.06 		"/>
	</g>
	<g class="st2">
		<polygon class="st14" points="1380.18,995.83 1230.17,1082.44 1380.18,1169.06 1530.18,1082.44 		"/>
		<polygon class="st13" points="1230.17,1082.44 1230.17,1394.25 1380.18,1480.86 1380.18,1169.06 		"/>
		<polygon class="st12" points="1530.18,1082.44 1530.18,1394.25 1380.18,1480.86 1380.18,1169.06 		"/>
	</g>
</g>
<g id="Layer_6" class="st0">
	<polygon class="st15" points="-270.02,1515.64 -90.02,1411.71 -30.02,1446.35 -210.02,1550.29 	"/>
	<polygon class="st10" points="-210.02,1550.29 -210.02,1827.44 -270.02,1792.8 -270.02,1515.64 	"/>
	<polygon class="st16" points="-210.02,1550.29 -150.02,1515.64 -150.02,1792.8 -210.02,1827.44 	"/>
	<path class="st16" d="M-150.02,1515.64"/>
	<polygon class="st16" points="-150.02,1515.64 -90.02,1481 -90.02,1550.29 -150.02,1584.93 	"/>
	<polygon class="st16" points="-150.02,1654.22 -90.02,1619.58 -90.02,1688.87 -150.02,1723.51 	"/>
	<polygon class="st16" points="-30.02,1446.35 -90.02,1481 -90.02,1758.15 -30.02,1723.51 	"/>
	<path class="st16" d="M-90.02,1619.58"/>
	<polygon class="st10" points="-90.02,1619.58 -150.02,1584.93 -90.02,1550.29 	"/>
	<polygon class="st15" points="-90.02,1619.58 -150.02,1654.22 -150.02,1584.93 	"/>
	<polyline class="st10" points="-90.02,1758.15 -150.02,1723.51 -90.02,1688.87 	"/>
</g>
<g id="A1">
	<g id="Layer_7" class="st0">
		<g class="st2">
			<polygon class="st5" points="209.36,322.29 70.78,562.29 1.49,682.29 36.14,742.29 105.43,622.29 244.01,382.29 			"/>
			<polygon class="st7" points="244.01,382.29 313.29,382.29 278.65,322.29 209.36,322.29 			"/>
			<polygon class="st3" points="244.01,382.29 105.43,622.29 36.14,742.29 105.43,742.29 174.72,622.29 278.65,442.29 
				313.29,382.29 			"/>
		</g>
	</g>
	<g id="Layer_10" class="st0">
		<g class="st2">
			<polyline class="st3" points="209.36,562.29 486.52,562.29 451.87,622.29 174.72,622.29 209.36,562.29 486.52,562.29 			"/>
			<polygon class="st5" points="209.36,322.29 244.01,262.29 382.58,502.29 313.3,502.29 244.01,382.29 			"/>
			<polygon class="st7" points="486.52,562.29 313.3,262.29 244.01,262.29 382.58,502.29 244.01,502.29 209.36,562.29 
				417.23,562.29 486.52,682.29 555.81,682.29 			"/>
			<polygon class="st5" points="417.23,562.29 486.52,682.29 451.87,742.29 382.58,622.29 			"/>
			<polygon class="st3" points="486.52,682.29 555.81,682.29 521.16,742.29 451.87,742.29 			"/>
		</g>
		<polygon class="st16" points="174.72,622.29 173.65,622.29 208.73,562.29 209.36,562.29 		"/>
	</g>
</g>
<g id="L">
	<g id="Layer_8">
		<g>
			<polygon class="st3" points="569.99,285.76 569.99,701.49 629.99,736.14 629.99,320.41 			"/>
			<polygon class="st7" points="629.99,320.41 690,285.76 690,701.49 629.99,736.14 			"/>
			<polygon class="st5" points="569.99,285.76 629.99,251.12 690,285.76 629.99,320.41 			"/>
		</g>
	</g>
	<g id="Layer_11">
		<g>
			<polygon class="st3" points="690,701.49 690,701.49 629.99,666.85 629.99,736.14 690,770.78 690,770.78 750,805.43 750,736.14 
							"/>
			<polygon class="st5" points="810,701.49 750,666.85 750,666.85 690,632.21 629.99,666.85 690,701.49 690,701.49 750,736.14 			
				"/>
			<polygon class="st7" points="750,805.43 810,770.78 810,701.49 750,736.14 			"/>
		</g>
	</g>
</g>
<g id="E">
	<g id="Layer_16">
		<g>
			<polygon class="st5" points="840,303.08 900,268.44 960,303.08 900,337.73 			"/>
			<polygon class="st7" points="900,337.73 960,303.08 960,718.82 900,753.46 			"/>
		</g>
		<g>
			<polygon class="st3" points="900,684.17 900,684.17 840,649.53 840,718.82 900,753.46 900,753.46 960,788.11 960,718.82 			"/>
			<polygon class="st5" points="1020,684.17 960,649.53 960,649.53 960,649.53 900,684.17 900,684.17 900,684.17 960,718.82 			"/>
			<polygon class="st7" points="960,788.11 1020,753.46 1020,684.17 960,718.82 			"/>
		</g>
		<g>
			<polygon class="st3" points="960,545.6 960,545.6 900,510.95 900,580.24 960,614.88 960,614.88 1020,649.53 1020,580.24 			"/>
			<polygon class="st5" points="1080,545.6 1020,510.95 1020,510.95 960,476.31 900,510.95 960,545.6 960,545.6 1020,580.24 			"/>
			<polygon class="st7" points="1020,649.53 1080,614.88 1080,545.6 1020,580.24 			"/>
		</g>
		<g>
			<g>
				<polygon class="st3" points="840,718.82 900,753.46 900,337.73 840,303.08 				"/>
				<polygon class="st3" points="960,372.37 960,372.37 900,337.73 900,407.02 960,441.66 960,441.66 1020,476.31 1020,407.02 				
					"/>
			</g>
			<polygon class="st5" points="1080,372.37 1020,337.73 1020,337.73 960,303.08 900,337.73 960,372.37 960,372.37 1020,407.02 			
				"/>
			<polygon class="st7" points="1020,476.31 1080,441.66 1080,372.37 1020,407.02 			"/>
		</g>
	</g>
	<g id="Layer_13">
		<g>
			<polygon class="st7" points="1080,545.6 1080,545.6 1170,493.63 1170,562.92 1080,614.88 1080,614.88 1020,649.53 1020,580.24 
							"/>
			<polygon class="st5" points="960,545.6 1020,510.95 1020,510.95 1110,458.98 1170,493.63 1080,545.6 1080,545.6 1020,580.24 			
				"/>
			<polygon class="st3" points="1020,649.53 960,614.88 960,545.6 1020,580.24 			"/>
		</g>
		<g>
			<polygon class="st7" points="1080,372.37 1080,372.37 1170,320.41 1170,389.7 1080,441.66 1080,441.66 1020,476.31 1020,407.02 
							"/>
			<polygon class="st5" points="960,372.37 1020,337.73 1020,337.73 1110,285.76 1170,320.41 1080,372.37 1080,372.37 1020,407.02 
							"/>
			<polygon class="st3" points="1020,476.31 960,441.66 960,372.37 1020,407.02 			"/>
		</g>
		<g>
			<polygon class="st7" points="1080,718.82 1080,718.82 1170,666.85 1170,736.14 1080,788.11 1080,788.11 1020,822.75 1020,753.46 
							"/>
			<polygon class="st5" points="960,718.82 1020,684.17 1020,684.17 1110,632.21 1170,666.85 1080,718.82 1080,718.82 1020,753.46 
							"/>
			<polygon class="st3" points="1020,822.75 960,788.11 960,718.82 1020,753.46 			"/>
		</g>
	</g>
</g>
<g id="C">
	<polygon class="st3" points="1350,666.85 1410,701.49 1410,285.76 1350,251.12 	"/>
	<polygon class="st5" points="1350,251.12 1530.01,147.18 1710.01,251.12 1650.01,285.76 1530.01,216.47 1410,285.76 	"/>
	<polygon class="st7" points="1530.01,216.47 1530.01,285.76 1470.01,320.41 1470.01,597.56 1410,632.21 1410,285.76 	"/>
	<polygon class="st3" points="1530.01,285.76 1650.01,355.05 1650.01,285.76 1530.01,216.47 	"/>
	<polygon class="st7" points="1650.01,285.76 1710.01,251.12 1710.01,320.41 1650.01,355.05 	"/>
	<path class="st7" d="M1410,632.21"/>
	<polygon class="st3" points="1410,701.49 1530.01,770.79 1530.01,701.49 1410,632.21 	"/>
	<polygon class="st7" points="1530.01,701.49 1710.01,597.56 1710.01,666.85 1530.01,770.79 	"/>
	<polygon class="st5" points="1710.01,597.56 1650.01,562.92 1530.01,632.21 1470.01,597.56 1410,632.21 1530.01,701.49 	"/>
</g>
<g id="A2">
	<g>
		<polygon class="st3" points="149.99,285.76 149.99,701.5 209.99,736.14 209.99,320.41 		"/>
		<polygon class="st7" points="209.99,320.41 269.99,285.76 269.99,701.5 209.99,736.14 		"/>
		<polygon class="st5" points="149.99,285.76 209.99,251.12 269.99,285.76 209.99,320.41 		"/>
	</g>
	<g>
		<polygon class="st3" points="389.99,285.02 389.99,700.76 449.99,735.4 449.99,319.67 		"/>
		<polygon class="st7" points="449.99,319.67 509.99,285.02 509.99,700.76 449.99,735.4 		"/>
		<polygon class="st5" points="389.99,285.02 449.99,250.38 509.99,285.02 449.99,319.67 		"/>
	</g>
	<polygon class="st5" points="269.99,285.76 329.99,251.12 389.99,285.02 449.99,250.38 329.99,181.83 209.99,251.12 	"/>
	<polygon class="st7" points="269.99,355.05 329.99,320.41 329.99,251.12 269.99,285.76 	"/>
	<polygon class="st3" points="389.99,355.05 329.99,320.41 329.99,251.12 389.99,285.02 	"/>
	<polygon class="st5" points="209.99,458.98 329.99,528.27 449.99,458.98 389.99,424.34 329.99,458.98 269.99,424.34 	"/>
	<polygon class="st3" points="209.99,458.98 209.99,528.27 329.99,597.56 329.99,528.27 	"/>
	<polygon class="st7" points="329.99,597.56 449.99,528.27 449.99,458.98 329.99,528.27 	"/>
</g>
</svg>
