<?xml version="1.0" encoding="utf-8"?>
<!-- Generator: Adobe Illustrator 27.2.0, SVG Export Plug-In . SVG Version: 6.00 Build 0)  -->
<svg version="1.1" xmlns="http://www.w3.org/2000/svg" xmlns:xlink="http://www.w3.org/1999/xlink" x="0px" y="0px" width="1920px"
	 height="1080px" viewBox="0 0 1920 1080" style="enable-background:new 0 0 1920 1080;" xml:space="preserve">
<style type="text/css">
	.st0{display:none;}
	.st1{display:inline;fill:none;}
	.st2{display:inline;}
	.st3{fill:#B49481;}
	.st4{fill:#546D64;}
	.st5{fill:#F1AF8C;}
	.st6{fill:#4FB286;}
	.st7{fill:#7E8981;}
	.st8{fill:#3C896D;}
	.st9{fill:#FFFFFF;}
	.st10{display:inline;fill:#7E8981;}
	.st11{fill:#F1AF8C;stroke:#000000;stroke-miterlimit:10;}
	.st12{fill:#BA87A8;}
	.st13{fill:#E4F2BD;}
	.st14{fill:#FFFFF5;}
	.st15{display:inline;fill:#F1AF8C;}
	.st16{display:inline;fill:#B49481;}
</style>
<g id="Layer_1">
	<g>
	</g>
</g>
<g id="Layer_9" class="st0">
	<rect class="st1" width="1920" height="1080"/>
</g>
<g id="Layer_2" class="st0">
	<g class="st2">
		<rect x="-1076.3" y="482.8" class="st3" width="190.54" height="190.54"/>
	</g>
	<g class="st2">
		<rect x="-824.3" y="725.31" class="st4" width="190.54" height="190.54"/>
	</g>
	<g class="st2">
		<rect x="-1076.3" y="248.95" class="st5" width="190.54" height="190.54"/>
	</g>
	<g class="st2">
		<rect x="-824.3" y="248.95" class="st6" width="190.54" height="190.54"/>
	</g>
	<g class="st2">
		<rect x="-1076.3" y="725.31" class="st7" width="190.54" height="190.54"/>
	</g>
	<g class="st2">
		<rect x="-824.3" y="482.8" class="st8" width="190.54" height="190.54"/>
	</g>
	<g class="st2">
		<rect x="-565.79" y="721.48" class="st9" width="189.54" height="189.54"/>
		<path d="M-376.75,721.98v188.54h-188.54V721.98H-376.75 M-375.75,720.98h-190.54v190.54h190.54V720.98L-375.75,720.98z"/>
	</g>
	<g class="st2">
		<rect x="-313.79" y="721.48" class="st9" width="189.54" height="189.54"/>
		<path d="M-124.75,721.98v188.54h-188.54V721.98H-124.75 M-123.75,720.98h-190.54v190.54h190.54V720.98L-123.75,720.98z"/>
	</g>
	<g class="st2">
		<rect x="-565.79" y="245.12" class="st9" width="189.54" height="189.54"/>
		<path d="M-376.75,245.62v188.54h-188.54V245.62H-376.75 M-375.75,244.62h-190.54v190.54h190.54V244.62L-375.75,244.62z"/>
	</g>
	<g class="st2">
		<rect x="-313.79" y="245.12" class="st9" width="189.54" height="189.54"/>
		<path d="M-124.75,245.62v188.54h-188.54V245.62H-124.75 M-123.75,244.62h-190.54v190.54h190.54V244.62L-123.75,244.62z"/>
	</g>
	<g class="st2">
		<rect x="-565.79" y="478.97" class="st9" width="189.54" height="189.54"/>
		<path d="M-376.75,479.47v188.54h-188.54V479.47H-376.75 M-375.75,478.47h-190.54v190.54h190.54V478.47L-375.75,478.47z"/>
	</g>
	<g class="st2">
		<rect x="-313.79" y="478.97" class="st9" width="189.54" height="189.54"/>
		<path d="M-124.75,479.47v188.54h-188.54V479.47H-124.75 M-123.75,478.47h-190.54v190.54h190.54V478.47L-123.75,478.47z"/>
	</g>
</g>
<g id="Shapes" class="st0">
	<g class="st2">
		<polygon class="st5" points="-720.03,1593.27 -597.72,1522.65 -720.03,1452.03 -842.33,1522.65 		"/>
		<g>
			<polygon class="st7" points="-720.03,1593.27 -720.03,1828.66 -597.72,1758.04 -597.72,1522.65 			"/>
		</g>
		<g>
			<polygon class="st3" points="-842.33,1522.65 -842.33,1758.04 -720.03,1828.66 -720.03,1593.27 			"/>
		</g>
	</g>
	<g class="st2">
		<polyline class="st3" points="-1200.03,1117.23 -1200.03,1463.68 -1140.03,1498.32 -1140.03,1151.88 -1200.03,1117.23 		"/>
		<polyline class="st3" points="-1200.03,1186.52 -1020.03,1290.45 -960.03,1255.81 -1200.03,1117.23 		"/>
		<polygon class="st5" points="-1200.03,1117.23 -960.03,1255.81 -900.03,1221.16 -1140.03,1082.59 		"/>
		<polygon class="st5" points="-900.03,1221.16 -840.03,1255.81 -1080.03,1394.39 -1080.03,1325.1 -960.03,1255.81 		"/>
		<polygon class="st7" points="-840.03,1255.81 -840.03,1325.1 -1140.03,1498.32 -1140.03,1221.16 -1080.03,1255.81 
			-1080.03,1394.39 		"/>
	</g>
	<path class="st10" d="M-291.02,1242.72h-180v173.22h60c0,0,0-138.58,120-138.58C-291.02,1277.36-291.02,1242.72-291.02,1242.72z"/>
</g>
<g id="Layer_4" class="st0">
	<g class="st2">
		<path class="st11" d="M599.99,1030.62"/>
		<g>
			<polygon class="st5" points="0,788.11 359.99,580.24 509.99,666.85 0,961.33 			"/>
		</g>
		<path class="st3" d="M53.72,942.13"/>
		<path class="st7" d="M209.99,840.08"/>
		<polygon class="st3" points="119.99,926.69 29.99,978.65 29.99,1080 119.99,1080 		"/>
		<g>
			<g>
				<polygon class="st7" points="509.99,666.85 509.99,701.5 329.99,805.43 330,770.79 				"/>
			</g>
			<polygon class="st7" points="119.99,926.69 209.99,874.72 209.99,1080 119.99,1080 			"/>
			<path class="st7" d="M329.99,805.43c0,0-120,77.5-120,207.87c0,0,0-173.22,0-173.22L330,770.79L329.99,805.43z"/>
			<path class="st7" d="M-0.01,995.96c0,0,120-61.07,120,69.3c0,0,0-173.22,0-173.22L-0.02,961.32L-0.01,995.96z"/>
			<polygon class="st7" points="119.99,926.69 209.99,874.72 209.99,840.08 119.99,892.04 			"/>
		</g>
	</g>
</g>
<g id="Layer_5" class="st0">
	<g class="st2">
		<polygon class="st12" points="840.17,995.84 840.17,1307.63 960.17,1238.34 960.17,926.54 		"/>
		<polygon class="st13" points="840.17,995.84 720.17,926.54 720.17,1238.34 840.17,1307.63 		"/>
		<polygon class="st14" points="720.17,926.54 840.17,857.25 960.17,926.54 840.17,995.84 		"/>
	</g>
	<g class="st2">
		<g>
			<polygon class="st14" points="409.17,1049.09 469.17,1014.45 529.16,1049.09 469.17,1083.74 			"/>
		</g>
		<g>
			<polygon class="st12" points="469.17,1083.74 469.17,1153.03 529.16,1118.38 529.16,1049.09 			"/>
		</g>
		<g>
			<polygon class="st13" points="409.17,1049.09 409.17,1118.38 469.17,1153.03 469.17,1083.74 			"/>
		</g>
	</g>
	<g class="st2">
		<polygon class="st12" points="120.16,995.84 120.16,1307.63 240.16,1238.34 240.16,926.54 		"/>
		<polygon class="st13" points="120.16,995.84 0.16,926.54 0.16,1238.34 120.16,1307.63 		"/>
		<polygon class="st14" points="0.16,926.54 120.16,857.25 240.16,926.54 120.16,995.84 		"/>
	</g>
	<g class="st2">
		<polygon class="st12" points="480.16,995.84 480.16,1307.63 600.17,1238.34 600.17,926.54 		"/>
		<polygon class="st13" points="480.16,995.84 360.16,926.54 360.16,1238.34 480.16,1307.63 		"/>
		<polygon class="st14" points="360.16,926.54 480.16,857.25 600.17,926.54 480.16,995.84 		"/>
	</g>
	<g class="st2">
		<polygon class="st14" points="300.16,995.83 150.16,1082.44 300.16,1169.06 450.16,1082.44 		"/>
		<polygon class="st13" points="150.16,1082.44 150.16,1394.25 300.16,1480.86 300.16,1169.06 		"/>
		<polygon class="st12" points="450.16,1082.44 450.16,1394.25 300.16,1480.86 300.16,1169.06 		"/>
	</g>
	<g class="st2">
		<polygon class="st14" points="660.17,995.83 510.16,1082.44 660.17,1169.06 810.17,1082.44 		"/>
		<polygon class="st13" points="510.16,1082.44 510.16,1394.25 660.17,1480.86 660.17,1169.06 		"/>
		<polygon class="st12" points="810.17,1082.44 810.17,1394.25 660.17,1480.86 660.17,1169.06 		"/>
	</g>
	<g class="st2">
		<polygon class="st12" points="1200.17,995.84 1200.17,1307.63 1320.18,1238.34 1320.18,926.54 		"/>
		<polygon class="st13" points="1200.17,995.84 1080.17,926.54 1080.17,1238.34 1200.17,1307.63 		"/>
		<polygon class="st14" points="1080.17,926.54 1200.17,857.25 1320.18,926.54 1200.17,995.84 		"/>
	</g>
	<g class="st2">
		<polygon class="st14" points="1020.17,995.83 870.17,1082.44 1020.17,1169.06 1170.17,1082.44 		"/>
		<polygon class="st13" points="870.17,1082.44 870.17,1394.25 1020.17,1480.86 1020.17,1169.06 		"/>
		<polygon class="st12" points="1170.17,1082.44 1170.17,1394.25 1020.17,1480.86 1020.17,1169.06 		"/>
	</g>
	<g class="st2">
		<polygon class="st14" points="1380.18,995.83 1230.17,1082.44 1380.18,1169.06 1530.18,1082.44 		"/>
		<polygon class="st13" points="1230.17,1082.44 1230.17,1394.25 1380.18,1480.86 1380.18,1169.06 		"/>
		<polygon class="st12" points="1530.18,1082.44 1530.18,1394.25 1380.18,1480.86 1380.18,1169.06 		"/>
	</g>
</g>
<g id="Layer_6" class="st0">
	<polygon class="st15" points="-270.02,1515.64 -90.02,1411.71 -30.02,1446.35 -210.02,1550.29 	"/>
	<polygon class="st10" points="-210.02,1550.29 -210.02,1827.44 -270.02,1792.8 -270.02,1515.64 	"/>
	<polygon class="st16" points="-210.02,1550.29 -150.02,1515.64 -150.02,1792.8 -210.02,1827.44 	"/>
	<path class="st16" d="M-150.02,1515.64"/>
	<polygon class="st16" points="-150.02,1515.64 -90.02,1481 -90.02,1550.29 -150.02,1584.93 	"/>
	<polygon class="st16" points="-150.02,1654.22 -90.02,1619.58 -90.02,1688.87 -150.02,1723.51 	"/>
	<polygon class="st16" points="-30.02,1446.35 -90.02,1481 -90.02,1758.15 -30.02,1723.51 	"/>
	<path class="st16" d="M-90.02,1619.58"/>
	<polygon class="st10" points="-90.02,1619.58 -150.02,1584.93 -90.02,1550.29 	"/>
	<polygon class="st15" points="-90.02,1619.58 -150.02,1654.22 -150.02,1584.93 	"/>
	<polyline class="st10" points="-90.02,1758.15 -150.02,1723.51 -90.02,1688.87 	"/>
</g>
<g id="Layer_7">
	<g>
		<polygon class="st5" points="1070.71,365.59 932.14,605.6 862.85,725.6 897.49,785.6 966.78,665.6 1105.36,425.59 		"/>
		<polygon class="st7" points="1105.36,425.59 1174.65,425.59 1140,365.59 1070.71,365.59 		"/>
		<polygon class="st3" points="1105.36,425.59 966.78,665.6 897.49,785.6 966.78,785.6 1036.07,665.6 1140,485.59 1174.65,425.59 		
			"/>
	</g>
</g>
<g id="Layer_8" class="st0">
	<g class="st2">
		<polyline class="st3" points="1070.71,605.6 1347.87,605.6 1313.23,665.6 1036.07,665.6 1070.71,605.6 1347.87,605.6 		"/>
		<polygon class="st5" points="1070.71,365.59 1105.36,305.59 1243.94,545.6 1174.65,545.6 1105.36,425.59 		"/>
		<polygon class="st7" points="1105.36,305.59 1174.65,305.59 1347.87,605.6 1070.71,605.6 1105.36,545.6 1243.94,545.6 		"/>
		<polygon class="st7" points="1278.58,605.6 1347.87,725.6 1417.16,725.6 1347.87,605.6 		"/>
		<polygon class="st5" points="1278.58,605.6 1347.87,725.6 1313.23,785.6 1243.94,665.6 		"/>
		<polygon class="st3" points="1347.87,725.6 1417.16,725.6 1382.52,785.6 1313.23,785.6 		"/>
	</g>
</g>
</svg>
