<svg xmlns="http://www.w3.org/2000/svg" xml:space="preserve" width="1920" height="1080" style="enable-background:new 0 0 1920 1080"><style>.st0{display:none}.st1,.st2{display:inline}.st2{fill:none}.st3{fill:#b49481}.st5{fill:#f1af8c}.st7{fill:#7e8981}.st9{fill:#fff}.st10{display:inline;fill:#7e8981}.st12{fill:#ba87a8}.st13{fill:#e4f2bd}.st14{fill:#fffff5}.st15,.st16{display:inline;fill:#f1af8c}.st16{fill:#b49481}.st17{fill:#42210b}.st20{fill:#a5625b}.st21{fill:#635656}</style><g id="C_00000165918717436259951800000009779369807011752868_"><path d="m1345.62 407.01 180.01-103.94 180 103.94-60 34.64-120-69.29-120.01 69.29z" class="st5"/><path d="m1525.63 441.65 120 69.29v-69.29l-120-69.29z" class="st3"/><path d="m1645.63 441.65 60-34.64v69.29l-60 34.64zM1349.8 409.51l-.02-74.28 4.35-2.51V407z" class="st7"/><path d="m1349.8 409.51-.02-74.28-4.3-2.51v74.29z" class="st3"/><path d="m1405.47 441.65-.01-74.27 4.35-2.51v74.28z" class="st7"/><path d="m1405.47 441.65-.01-74.27-4.31-2.51v74.28z" class="st3"/><path d="m1461.15 409.51-.02-74.28 4.35-2.51V407z" class="st7"/><path d="m1461.15 409.51-.02-74.28-4.31-2.51v74.29z" class="st3"/><path d="M1336.85 332.72s68.59-29.62 68.61-64.28c.02-.01 0 103.92 0 103.92l-68.61-39.64z" class="st20"/><path d="m1405.46 372.36 68.93-39.64s-68.95-29.62-68.93-64.28v103.92z" class="st21"/><path d="m1589.81 409.51-.02-74.28 4.35-2.51V407z" class="st7"/><path d="m1589.81 409.51-.02-74.28-4.31-2.51v74.29z" class="st3"/><path d="m1645.48 441.65-.02-74.27 4.35-2.51v74.28z" class="st7"/><path d="m1645.48 441.65-.02-74.27-4.31-2.51v74.28z" class="st3"/><path d="m1701.15 409.51-.02-74.28 4.35-2.51V407z" class="st7"/><path d="m1701.15 409.51-.02-74.28-4.3-2.51v74.29z" class="st3"/><path d="M1576.85 332.72s68.59-29.62 68.61-64.28c.02-.01 0 103.92 0 103.92l-68.61-39.64z" class="st20"/><path d="m1645.46 372.36 68.93-39.64s-68.95-29.62-68.93-64.28v103.92z" class="st21"/><path d="m1529.3 785.51 9.58-5.53 9.58 5.53-9.58 5.53z" class="st5"/><path d="M1529.3 785.51v16.59l9.58 5.53v-16.59z" class="st3"/><path d="m1538.88 791.04 9.58-5.53v16.59l-9.58 5.53zM1560.43 806.25l4.79-2.77v5.53l-4.79 2.77z" class="st7"/><path d="m1541.27 795.18 4.79-2.76 19.16 11.06-4.79 2.77z" class="st5"/><linearGradient id="SVGID_00000156569392508123932070000004211025158086725267_" x1="1541.272" x2="1560.428" y1="803.481" y2="803.481" gradientUnits="userSpaceOnUse"><stop offset="0" style="stop-color:#b49481"/><stop offset=".541" style="stop-color:#b2927f"/><stop offset=".735" style="stop-color:#ad8c78"/><stop offset=".874" style="stop-color:#a3816d"/><stop offset=".985" style="stop-color:#95725c"/><stop offset="1" style="stop-color:#936f59"/></linearGradient><path d="m1541.27 800.72 19.16 11.06v-5.53l-19.16-11.07z" style="fill:url(#SVGID_00000156569392508123932070000004211025158086725267_)"/><path d="m1558.03 802.1 9.58-5.53 9.58 5.53-9.58 5.53z" class="st5"/><path d="M1558.03 802.1v16.59l9.58 5.53v-16.59z" class="st3"/><path d="m1567.61 807.63 9.58-5.53v16.59l-9.58 5.53z" class="st7"/><path d="m1529.3 769.51 9.58-5.53 9.58 5.53-9.58 5.53z" class="st5"/><path d="M1529.3 769.51v16.59l9.58 5.53v-16.59z" class="st3"/><path d="m1538.88 775.04 9.58-5.53v16.59l-9.58 5.53zM1560.43 790.25l4.79-2.77v5.53l-4.79 2.77z" class="st7"/><path d="m1541.27 779.18 4.79-2.76 19.16 11.06-4.79 2.77z" class="st5"/><linearGradient id="SVGID_00000159430828436760426140000002740371140436142506_" x1="1541.272" x2="1560.428" y1="787.481" y2="787.481" gradientUnits="userSpaceOnUse"><stop offset="0" style="stop-color:#b49481"/><stop offset=".541" style="stop-color:#b2927f"/><stop offset=".735" style="stop-color:#ad8c78"/><stop offset=".874" style="stop-color:#a3816d"/><stop offset=".985" style="stop-color:#95725c"/><stop offset="1" style="stop-color:#936f59"/></linearGradient><path d="m1541.27 784.72 19.16 11.06v-5.53l-19.16-11.07z" style="fill:url(#SVGID_00000159430828436760426140000002740371140436142506_)"/><path d="m1558.03 786.1 9.58-5.53 9.58 5.53-9.58 5.53z" class="st5"/><path d="M1558.03 786.1v16.59l9.58 5.53v-16.59z" class="st3"/><path d="m1567.61 791.63 9.58-5.53v16.59l-9.58 5.53z" class="st7"/><path d="m1529.3 753.51 9.58-5.53 9.58 5.53-9.58 5.53z" class="st5"/><path d="M1529.3 753.51v16.59l9.58 5.53v-16.59z" class="st3"/><path d="m1538.88 759.04 9.58-5.53v16.59l-9.58 5.53zM1560.43 774.25l4.79-2.77v5.53l-4.79 2.77z" class="st7"/><path d="m1541.27 763.18 4.79-2.76 19.16 11.06-4.79 2.77z" class="st5"/><linearGradient id="SVGID_00000020357460131143983800000011394592978974989700_" x1="1541.272" x2="1560.428" y1="771.481" y2="771.481" gradientUnits="userSpaceOnUse"><stop offset="0" style="stop-color:#b49481"/><stop offset=".541" style="stop-color:#b2927f"/><stop offset=".735" style="stop-color:#ad8c78"/><stop offset=".874" style="stop-color:#a3816d"/><stop offset=".985" style="stop-color:#95725c"/><stop offset="1" style="stop-color:#936f59"/></linearGradient><path d="m1541.27 768.72 19.16 11.06v-5.53l-19.16-11.07z" style="fill:url(#SVGID_00000020357460131143983800000011394592978974989700_)"/><path d="m1558.03 770.1 9.58-5.53 9.58 5.53-9.58 5.53z" class="st5"/><path d="M1558.03 770.1v16.59l9.58 5.53v-16.59z" class="st3"/><path d="m1567.61 775.63 9.58-5.53v16.59l-9.58 5.53z" class="st7"/><path d="m1529.3 737.51 9.58-5.53 9.58 5.53-9.58 5.53z" class="st5"/><path d="M1529.3 737.51v16.59l9.58 5.53v-16.59z" class="st3"/><path d="m1538.88 743.04 9.58-5.53v16.59l-9.58 5.53zM1560.43 758.25l4.79-2.77v5.53l-4.79 2.77z" class="st7"/><path d="m1541.27 747.18 4.79-2.76 19.16 11.06-4.79 2.77z" class="st5"/><linearGradient id="SVGID_00000112627010642048999340000004800431320032339121_" x1="1541.272" x2="1560.428" y1="755.481" y2="755.481" gradientUnits="userSpaceOnUse"><stop offset="0" style="stop-color:#b49481"/><stop offset=".541" style="stop-color:#b2927f"/><stop offset=".735" style="stop-color:#ad8c78"/><stop offset=".874" style="stop-color:#a3816d"/><stop offset=".985" style="stop-color:#95725c"/><stop offset="1" style="stop-color:#936f59"/></linearGradient><path d="m1541.27 752.72 19.16 11.06v-5.53l-19.16-11.07z" style="fill:url(#SVGID_00000112627010642048999340000004800431320032339121_)"/><path d="m1558.03 754.1 9.58-5.53 9.58 5.53-9.58 5.53z" class="st5"/><path d="M1558.03 754.1v16.59l9.58 5.53v-16.59z" class="st3"/><path d="m1567.61 759.63 9.58-5.53v16.59l-9.58 5.53z" class="st7"/><path d="m1529.3 721.51 9.58-5.53 9.58 5.53-9.58 5.53z" class="st5"/><path d="M1529.3 721.51v16.59l9.58 5.53v-16.59z" class="st3"/><path d="m1538.88 727.04 9.58-5.53v16.59l-9.58 5.53zM1560.43 742.25l4.79-2.77v5.53l-4.79 2.77z" class="st7"/><path d="m1541.27 731.18 4.79-2.76 19.16 11.06-4.79 2.77z" class="st5"/><linearGradient id="SVGID_00000112606804683538271260000005468626597506736798_" x1="1541.272" x2="1560.428" y1="739.481" y2="739.481" gradientUnits="userSpaceOnUse"><stop offset="0" style="stop-color:#b49481"/><stop offset=".541" style="stop-color:#b2927f"/><stop offset=".735" style="stop-color:#ad8c78"/><stop offset=".874" style="stop-color:#a3816d"/><stop offset=".985" style="stop-color:#95725c"/><stop offset="1" style="stop-color:#936f59"/></linearGradient><path d="m1541.27 736.72 19.16 11.06v-5.53l-19.16-11.07z" style="fill:url(#SVGID_00000112606804683538271260000005468626597506736798_)"/><path d="m1558.03 738.1 9.58-5.53 9.58 5.53-9.58 5.53z" class="st5"/><path d="M1558.03 738.1v16.59l9.58 5.53v-16.59z" class="st3"/><path d="m1567.61 743.63 9.58-5.53v16.59l-9.58 5.53z" class="st7"/><path d="m1529.3 705.51 9.58-5.53 9.58 5.53-9.58 5.53z" class="st5"/><path d="M1529.3 705.51v16.59l9.58 5.53v-16.59z" class="st3"/><path d="m1538.88 711.04 9.58-5.53v16.59l-9.58 5.53zM1560.43 726.25l4.79-2.77v5.53l-4.79 2.77z" class="st7"/><path d="m1541.27 715.18 4.79-2.76 19.16 11.06-4.79 2.77z" class="st5"/><linearGradient id="SVGID_00000091693825598155573490000003186265603712336553_" x1="1541.272" x2="1560.428" y1="723.481" y2="723.481" gradientUnits="userSpaceOnUse"><stop offset="0" style="stop-color:#b49481"/><stop offset=".541" style="stop-color:#b2927f"/><stop offset=".735" style="stop-color:#ad8c78"/><stop offset=".874" style="stop-color:#a3816d"/><stop offset=".985" style="stop-color:#95725c"/><stop offset="1" style="stop-color:#936f59"/></linearGradient><path d="m1541.27 720.72 19.16 11.06v-5.53l-19.16-11.07z" style="fill:url(#SVGID_00000091693825598155573490000003186265603712336553_)"/><path d="m1558.03 722.1 9.58-5.53 9.58 5.53-9.58 5.53z" class="st5"/><path d="M1558.03 722.1v16.59l9.58 5.53v-16.59z" class="st3"/><path d="m1567.61 727.63 9.58-5.53v16.59l-9.58 5.53z" class="st7"/><path d="m1529.3 689.51 9.58-5.53 9.58 5.53-9.58 5.53z" class="st5"/><path d="M1529.3 689.51v16.59l9.58 5.53v-16.59z" class="st3"/><path d="m1538.88 695.04 9.58-5.53v16.59l-9.58 5.53zM1560.43 710.25l4.79-2.77v5.53l-4.79 2.77z" class="st7"/><path d="m1541.27 699.18 4.79-2.76 19.16 11.06-4.79 2.77z" class="st5"/><linearGradient id="SVGID_00000090263276500327078220000007094831029882915477_" x1="1541.272" x2="1560.428" y1="707.481" y2="707.481" gradientUnits="userSpaceOnUse"><stop offset="0" style="stop-color:#b49481"/><stop offset=".541" style="stop-color:#b2927f"/><stop offset=".735" style="stop-color:#ad8c78"/><stop offset=".874" style="stop-color:#a3816d"/><stop offset=".985" style="stop-color:#95725c"/><stop offset="1" style="stop-color:#936f59"/></linearGradient><path d="m1541.27 704.72 19.16 11.06v-5.53l-19.16-11.07z" style="fill:url(#SVGID_00000090263276500327078220000007094831029882915477_)"/><path d="m1558.03 706.1 9.58-5.53 9.58 5.53-9.58 5.53z" class="st5"/><path d="M1558.03 706.1v16.59l9.58 5.53v-16.59z" class="st3"/><path d="m1567.61 711.63 9.58-5.53v16.59l-9.58 5.53z" class="st7"/><path d="m1529.3 673.51 9.58-5.53 9.58 5.53-9.58 5.53z" class="st5"/><path d="M1529.3 673.51v16.59l9.58 5.53v-16.59z" class="st3"/><path d="m1538.88 679.04 9.58-5.53v16.59l-9.58 5.53zM1560.43 694.25l4.79-2.77v5.53l-4.79 2.77z" class="st7"/><path d="m1541.27 683.18 4.79-2.76 19.16 11.06-4.79 2.77z" class="st5"/><linearGradient id="SVGID_00000123422386334264935250000016465062716509594806_" x1="1541.272" x2="1560.428" y1="691.481" y2="691.481" gradientUnits="userSpaceOnUse"><stop offset="0" style="stop-color:#b49481"/><stop offset=".541" style="stop-color:#b2927f"/><stop offset=".735" style="stop-color:#ad8c78"/><stop offset=".874" style="stop-color:#a3816d"/><stop offset=".985" style="stop-color:#95725c"/><stop offset="1" style="stop-color:#936f59"/></linearGradient><path d="m1541.27 688.72 19.16 11.06v-5.53l-19.16-11.07z" style="fill:url(#SVGID_00000123422386334264935250000016465062716509594806_)"/><path d="m1558.03 690.1 9.58-5.53 9.58 5.53-9.58 5.53z" class="st5"/><path d="M1558.03 690.1v16.59l9.58 5.53v-16.59z" class="st3"/><path d="m1567.61 695.63 9.58-5.53v16.59l-9.58 5.53z" class="st7"/><path d="m1529.3 657.51 9.58-5.53 9.58 5.53-9.58 5.53z" class="st5"/><path d="M1529.3 657.51v16.59l9.58 5.53v-16.59z" class="st3"/><path d="m1538.88 663.04 9.58-5.53v16.59l-9.58 5.53zM1560.43 678.25l4.79-2.77v5.53l-4.79 2.77z" class="st7"/><path d="m1541.27 667.18 4.79-2.76 19.16 11.06-4.79 2.77z" class="st5"/><linearGradient id="SVGID_00000083803952166991572210000004356482465763025085_" x1="1541.272" x2="1560.428" y1="675.481" y2="675.481" gradientUnits="userSpaceOnUse"><stop offset="0" style="stop-color:#b49481"/><stop offset=".541" style="stop-color:#b2927f"/><stop offset=".735" style="stop-color:#ad8c78"/><stop offset=".874" style="stop-color:#a3816d"/><stop offset=".985" style="stop-color:#95725c"/><stop offset="1" style="stop-color:#936f59"/></linearGradient><path d="m1541.27 672.72 19.16 11.06v-5.53l-19.16-11.07z" style="fill:url(#SVGID_00000083803952166991572210000004356482465763025085_)"/><path d="m1558.03 674.1 9.58-5.53 9.58 5.53-9.58 5.53z" class="st5"/><path d="M1558.03 674.1v16.59l9.58 5.53v-16.59z" class="st3"/><path d="m1567.61 679.63 9.58-5.53v16.59l-9.58 5.53z" class="st7"/><path d="m1529.3 641.51 9.58-5.53 9.58 5.53-9.58 5.53z" class="st5"/><path d="M1529.3 641.51v16.59l9.58 5.53v-16.59z" class="st3"/><path d="m1538.88 647.04 9.58-5.53v16.59l-9.58 5.53zM1560.43 662.25l4.79-2.77v5.53l-4.79 2.77z" class="st7"/><path d="m1541.27 651.18 4.79-2.76 19.16 11.06-4.79 2.77z" class="st5"/><linearGradient id="SVGID_00000121978317930825607990000007774117155830354361_" x1="1541.272" x2="1560.428" y1="659.481" y2="659.481" gradientUnits="userSpaceOnUse"><stop offset="0" style="stop-color:#b49481"/><stop offset=".541" style="stop-color:#b2927f"/><stop offset=".735" style="stop-color:#ad8c78"/><stop offset=".874" style="stop-color:#a3816d"/><stop offset=".985" style="stop-color:#95725c"/><stop offset="1" style="stop-color:#936f59"/></linearGradient><path d="m1541.27 656.72 19.16 11.06v-5.53l-19.16-11.07z" style="fill:url(#SVGID_00000121978317930825607990000007774117155830354361_)"/><path d="m1558.03 658.1 9.58-5.53 9.58 5.53-9.58 5.53z" class="st5"/><path d="M1558.03 658.1v16.59l9.58 5.53v-16.59z" class="st3"/><path d="m1567.61 663.63 9.58-5.53v16.59l-9.58 5.53z" class="st7"/><path d="m1529.3 625.51 9.58-5.53 9.58 5.53-9.58 5.53z" class="st5"/><path d="M1529.3 625.51v16.59l9.58 5.53v-16.59z" class="st3"/><path d="m1538.88 631.04 9.58-5.53v16.59l-9.58 5.53zM1560.43 646.25l4.79-2.77v5.53l-4.79 2.77z" class="st7"/><path d="m1541.27 635.18 4.79-2.76 19.16 11.06-4.79 2.77z" class="st5"/><linearGradient id="SVGID_00000137812576852657268300000017285920892720149908_" x1="1541.272" x2="1560.428" y1="643.481" y2="643.481" gradientUnits="userSpaceOnUse"><stop offset="0" style="stop-color:#b49481"/><stop offset=".541" style="stop-color:#b2927f"/><stop offset=".735" style="stop-color:#ad8c78"/><stop offset=".874" style="stop-color:#a3816d"/><stop offset=".985" style="stop-color:#95725c"/><stop offset="1" style="stop-color:#936f59"/></linearGradient><path d="m1541.27 640.72 19.16 11.06v-5.53l-19.16-11.07z" style="fill:url(#SVGID_00000137812576852657268300000017285920892720149908_)"/><path d="m1558.03 642.1 9.58-5.53 9.58 5.53-9.58 5.53z" class="st5"/><path d="M1558.03 642.1v16.59l9.58 5.53v-16.59z" class="st3"/><path d="m1567.61 647.63 9.58-5.53v16.59l-9.58 5.53z" class="st7"/><path d="m1529.3 609.51 9.58-5.53 9.58 5.53-9.58 5.53z" class="st5"/><path d="M1529.3 609.51v16.59l9.58 5.53v-16.59z" class="st3"/><path d="m1538.88 615.04 9.58-5.53v16.59l-9.58 5.53zM1560.43 630.25l4.79-2.77v5.53l-4.79 2.77z" class="st7"/><path d="m1541.27 619.18 4.79-2.76 19.16 11.06-4.79 2.77z" class="st5"/><linearGradient id="SVGID_00000177448988857433718760000005195997701363138448_" x1="1541.272" x2="1560.428" y1="627.481" y2="627.481" gradientUnits="userSpaceOnUse"><stop offset="0" style="stop-color:#b49481"/><stop offset=".541" style="stop-color:#b2927f"/><stop offset=".735" style="stop-color:#ad8c78"/><stop offset=".874" style="stop-color:#a3816d"/><stop offset=".985" style="stop-color:#95725c"/><stop offset="1" style="stop-color:#936f59"/></linearGradient><path d="m1541.27 624.72 19.16 11.06v-5.53l-19.16-11.07z" style="fill:url(#SVGID_00000177448988857433718760000005195997701363138448_)"/><path d="m1558.03 626.1 9.58-5.53 9.58 5.53-9.58 5.53z" class="st5"/><path d="M1558.03 626.1v16.59l9.58 5.53v-16.59z" class="st3"/><path d="m1567.61 631.63 9.58-5.53v16.59l-9.58 5.53z" class="st7"/><path d="m1529.3 593.51 9.58-5.53 9.58 5.53-9.58 5.53z" class="st5"/><path d="M1529.3 593.51v16.59l9.58 5.53v-16.59z" class="st3"/><path d="m1538.88 599.04 9.58-5.53v16.59l-9.58 5.53zM1560.43 614.25l4.79-2.77v5.53l-4.79 2.77z" class="st7"/><path d="m1541.27 603.18 4.79-2.76 19.16 11.06-4.79 2.77z" class="st5"/><linearGradient id="SVGID_00000065786114291511918770000007270812962371443889_" x1="1541.272" x2="1560.428" y1="611.481" y2="611.481" gradientUnits="userSpaceOnUse"><stop offset="0" style="stop-color:#b49481"/><stop offset=".541" style="stop-color:#b2927f"/><stop offset=".735" style="stop-color:#ad8c78"/><stop offset=".874" style="stop-color:#a3816d"/><stop offset=".985" style="stop-color:#95725c"/><stop offset="1" style="stop-color:#936f59"/></linearGradient><path d="m1541.27 608.72 19.16 11.06v-5.53l-19.16-11.07z" style="fill:url(#SVGID_00000065786114291511918770000007270812962371443889_)"/><path d="m1558.03 610.1 9.58-5.53 9.58 5.53-9.58 5.53z" class="st5"/><path d="M1558.03 610.1v16.59l9.58 5.53v-16.59z" class="st3"/><path d="m1567.61 615.63 9.58-5.53v16.59l-9.58 5.53z" class="st7"/><path d="m1529.3 577.51 9.58-5.53 9.58 5.53-9.58 5.53z" class="st5"/><path d="M1529.3 577.51v16.59l9.58 5.53v-16.59z" class="st3"/><path d="m1538.88 583.04 9.58-5.53v16.59l-9.58 5.53zM1560.43 598.25l4.79-2.77v5.53l-4.79 2.77z" class="st7"/><path d="m1541.27 587.18 4.79-2.76 19.16 11.06-4.79 2.77z" class="st5"/><linearGradient id="SVGID_00000020389817383382679090000006561493872963072410_" x1="1541.272" x2="1560.428" y1="595.481" y2="595.481" gradientUnits="userSpaceOnUse"><stop offset="0" style="stop-color:#b49481"/><stop offset=".541" style="stop-color:#b2927f"/><stop offset=".735" style="stop-color:#ad8c78"/><stop offset=".874" style="stop-color:#a3816d"/><stop offset=".985" style="stop-color:#95725c"/><stop offset="1" style="stop-color:#936f59"/></linearGradient><path d="m1541.27 592.72 19.16 11.06v-5.53l-19.16-11.07z" style="fill:url(#SVGID_00000020389817383382679090000006561493872963072410_)"/><path d="m1558.03 594.1 9.58-5.53 9.58 5.53-9.58 5.53z" class="st5"/><path d="M1558.03 594.1v16.59l9.58 5.53v-16.59z" class="st3"/><path d="m1567.61 599.63 9.58-5.53v16.59l-9.58 5.53z" class="st7"/><path d="m1529.3 561.51 9.58-5.53 9.58 5.53-9.58 5.53z" class="st5"/><path d="M1529.3 561.51v16.59l9.58 5.53v-16.59z" class="st3"/><path d="m1538.88 567.04 9.58-5.53v16.59l-9.58 5.53zM1560.43 582.25l4.79-2.77v5.53l-4.79 2.77z" class="st7"/><path d="m1541.27 571.18 4.79-2.76 19.16 11.06-4.79 2.77z" class="st5"/><linearGradient id="SVGID_00000183214719883461403140000013754780043452441230_" x1="1541.272" x2="1560.428" y1="579.481" y2="579.481" gradientUnits="userSpaceOnUse"><stop offset="0" style="stop-color:#b49481"/><stop offset=".541" style="stop-color:#b2927f"/><stop offset=".735" style="stop-color:#ad8c78"/><stop offset=".874" style="stop-color:#a3816d"/><stop offset=".985" style="stop-color:#95725c"/><stop offset="1" style="stop-color:#936f59"/></linearGradient><path d="m1541.27 576.72 19.16 11.06v-5.53l-19.16-11.07z" style="fill:url(#SVGID_00000183214719883461403140000013754780043452441230_)"/><path d="m1558.03 578.1 9.58-5.53 9.58 5.53-9.58 5.53z" class="st5"/><path d="M1558.03 578.1v16.59l9.58 5.53v-16.59z" class="st3"/><path d="m1567.61 583.63 9.58-5.53v16.59l-9.58 5.53z" class="st7"/><path d="m1529.3 545.51 9.58-5.53 9.58 5.53-9.58 5.53z" class="st5"/><path d="M1529.3 545.51v16.59l9.58 5.53v-16.59z" class="st3"/><path d="m1538.88 551.04 9.58-5.53v16.59l-9.58 5.53zM1560.43 566.25l4.79-2.77v5.53l-4.79 2.77z" class="st7"/><path d="m1541.27 555.18 4.79-2.76 19.16 11.06-4.79 2.77z" class="st5"/><linearGradient id="SVGID_00000097484112144911367660000009397928871176149432_" x1="1541.272" x2="1560.428" y1="563.481" y2="563.481" gradientUnits="userSpaceOnUse"><stop offset="0" style="stop-color:#b49481"/><stop offset=".541" style="stop-color:#b2927f"/><stop offset=".735" style="stop-color:#ad8c78"/><stop offset=".874" style="stop-color:#a3816d"/><stop offset=".985" style="stop-color:#95725c"/><stop offset="1" style="stop-color:#936f59"/></linearGradient><path d="m1541.27 560.72 19.16 11.06v-5.53l-19.16-11.07z" style="fill:url(#SVGID_00000097484112144911367660000009397928871176149432_)"/><path d="m1558.03 562.1 9.58-5.53 9.58 5.53-9.58 5.53z" class="st5"/><path d="M1558.03 562.1v16.59l9.58 5.53v-16.59z" class="st3"/><path d="m1567.61 567.63 9.58-5.53v16.59l-9.58 5.53z" class="st7"/><path d="m1529.3 529.51 9.58-5.53 9.58 5.53-9.58 5.53z" class="st5"/><path d="M1529.3 529.51v16.59l9.58 5.53v-16.59z" class="st3"/><path d="m1538.88 535.04 9.58-5.53v16.59l-9.58 5.53zM1560.43 550.25l4.79-2.77v5.53l-4.79 2.77z" class="st7"/><path d="m1541.27 539.18 4.79-2.76 19.16 11.06-4.79 2.77z" class="st5"/><linearGradient id="SVGID_00000070826280453539717470000013453528510075354007_" x1="1541.272" x2="1560.428" y1="547.481" y2="547.481" gradientUnits="userSpaceOnUse"><stop offset="0" style="stop-color:#b49481"/><stop offset=".541" style="stop-color:#b2927f"/><stop offset=".735" style="stop-color:#ad8c78"/><stop offset=".874" style="stop-color:#a3816d"/><stop offset=".985" style="stop-color:#95725c"/><stop offset="1" style="stop-color:#936f59"/></linearGradient><path d="m1541.27 544.72 19.16 11.06v-5.53l-19.16-11.07z" style="fill:url(#SVGID_00000070826280453539717470000013453528510075354007_)"/><path d="m1558.03 546.1 9.58-5.53 9.58 5.53-9.58 5.53z" class="st5"/><path d="M1558.03 546.1v16.59l9.58 5.53v-16.59z" class="st3"/><path d="m1567.61 551.63 9.58-5.53v16.59l-9.58 5.53z" class="st7"/><path d="m1529.3 513.51 9.58-5.53 9.58 5.53-9.58 5.53z" class="st5"/><path d="M1529.3 513.51v16.59l9.58 5.53v-16.59z" class="st3"/><path d="m1538.88 519.04 9.58-5.53v16.59l-9.58 5.53zM1560.43 534.25l4.79-2.77v5.53l-4.79 2.77z" class="st7"/><path d="m1541.27 523.18 4.79-2.76 19.16 11.06-4.79 2.77z" class="st5"/><linearGradient id="SVGID_00000052080053618026865530000011070459886003287467_" x1="1541.272" x2="1560.428" y1="531.481" y2="531.481" gradientUnits="userSpaceOnUse"><stop offset="0" style="stop-color:#b49481"/><stop offset=".541" style="stop-color:#b2927f"/><stop offset=".735" style="stop-color:#ad8c78"/><stop offset=".874" style="stop-color:#a3816d"/><stop offset=".985" style="stop-color:#95725c"/><stop offset="1" style="stop-color:#936f59"/></linearGradient><path d="m1541.27 528.72 19.16 11.06v-5.53l-19.16-11.07z" style="fill:url(#SVGID_00000052080053618026865530000011070459886003287467_)"/><path d="m1558.03 530.1 9.58-5.53 9.58 5.53-9.58 5.53z" class="st5"/><path d="M1558.03 530.1v16.59l9.58 5.53v-16.59z" class="st3"/><path d="m1567.61 535.63 9.58-5.53v16.59l-9.58 5.53z" class="st7"/><path d="m1529.3 497.51 9.58-5.53 9.58 5.53-9.58 5.53z" class="st5"/><path d="M1529.3 497.51v16.59l9.58 5.53v-16.59z" class="st3"/><path d="m1538.88 503.04 9.58-5.53v16.59l-9.58 5.53zM1560.43 518.25l4.79-2.77v5.53l-4.79 2.77z" class="st7"/><path d="m1541.27 507.18 4.79-2.76 19.16 11.06-4.79 2.77z" class="st5"/><linearGradient id="SVGID_00000177464170362243177200000016957258291925791640_" x1="1541.272" x2="1560.428" y1="515.481" y2="515.481" gradientUnits="userSpaceOnUse"><stop offset="0" style="stop-color:#b49481"/><stop offset=".541" style="stop-color:#b2927f"/><stop offset=".735" style="stop-color:#ad8c78"/><stop offset=".874" style="stop-color:#a3816d"/><stop offset=".985" style="stop-color:#95725c"/><stop offset="1" style="stop-color:#936f59"/></linearGradient><path d="m1541.27 512.72 19.16 11.06v-5.53l-19.16-11.07z" style="fill:url(#SVGID_00000177464170362243177200000016957258291925791640_)"/><path d="m1558.03 514.1 9.58-5.53 9.58 5.53-9.58 5.53z" class="st5"/><path d="M1558.03 514.1v16.59l9.58 5.53v-16.59z" class="st3"/><path d="m1567.61 519.63 9.58-5.53v16.59l-9.58 5.53z" class="st7"/><path d="m1529.3 481.51 9.58-5.53 9.58 5.53-9.58 5.53z" class="st5"/><path d="M1529.3 481.51v16.59l9.58 5.53v-16.59z" class="st3"/><path d="m1538.88 487.04 9.58-5.53v16.59l-9.58 5.53zM1560.43 502.25l4.79-2.77v5.53l-4.79 2.77z" class="st7"/><path d="m1541.27 491.18 4.79-2.76 19.16 11.06-4.79 2.77z" class="st5"/><linearGradient id="SVGID_00000170243320603996050540000005046739460950345914_" x1="1541.272" x2="1560.428" y1="499.481" y2="499.481" gradientUnits="userSpaceOnUse"><stop offset="0" style="stop-color:#b49481"/><stop offset=".541" style="stop-color:#b2927f"/><stop offset=".735" style="stop-color:#ad8c78"/><stop offset=".874" style="stop-color:#a3816d"/><stop offset=".985" style="stop-color:#95725c"/><stop offset="1" style="stop-color:#936f59"/></linearGradient><path d="m1541.27 496.72 19.16 11.06v-5.53l-19.16-11.07z" style="fill:url(#SVGID_00000170243320603996050540000005046739460950345914_)"/><path d="m1558.03 498.1 9.58-5.53 9.58 5.53-9.58 5.53z" class="st5"/><path d="M1558.03 498.1v16.59l9.58 5.53v-16.59z" class="st3"/><path d="m1567.61 503.63 9.58-5.53v16.59l-9.58 5.53z" class="st7"/><path d="m1529.3 465.51 9.58-5.53 9.58 5.53-9.58 5.53z" class="st5"/><path d="M1529.3 465.51v16.59l9.58 5.53v-16.59z" class="st3"/><path d="m1538.88 471.04 9.58-5.53v16.59l-9.58 5.53zM1560.43 486.25l4.79-2.77v5.53l-4.79 2.77z" class="st7"/><path d="m1541.27 475.18 4.79-2.76 19.16 11.06-4.79 2.77z" class="st5"/><linearGradient id="SVGID_00000000205497481153863700000003098450510419365504_" x1="1541.272" x2="1560.428" y1="483.481" y2="483.481" gradientUnits="userSpaceOnUse"><stop offset="0" style="stop-color:#b49481"/><stop offset=".541" style="stop-color:#b2927f"/><stop offset=".735" style="stop-color:#ad8c78"/><stop offset=".874" style="stop-color:#a3816d"/><stop offset=".985" style="stop-color:#95725c"/><stop offset="1" style="stop-color:#936f59"/></linearGradient><path d="m1541.27 480.72 19.16 11.06v-5.53l-19.16-11.07z" style="fill:url(#SVGID_00000000205497481153863700000003098450510419365504_)"/><path d="m1558.03 482.1 9.58-5.53 9.58 5.53-9.58 5.53z" class="st5"/><path d="M1558.03 482.1v16.59l9.58 5.53v-16.59z" class="st3"/><path d="m1567.61 487.63 9.58-5.53v16.59l-9.58 5.53z" class="st7"/><path d="m1529.3 449.51 9.58-5.53 9.58 5.53-9.58 5.53z" class="st5"/><path d="M1529.3 449.51v16.59l9.58 5.53v-16.59z" class="st3"/><path d="m1538.88 455.04 9.58-5.53v16.59l-9.58 5.53zM1560.43 470.25l4.79-2.77v5.53l-4.79 2.77z" class="st7"/><path d="m1541.27 459.18 4.79-2.76 19.16 11.06-4.79 2.77z" class="st5"/><linearGradient id="SVGID_00000146482698887700089340000001843897807876920965_" x1="1541.272" x2="1560.428" y1="467.481" y2="467.481" gradientUnits="userSpaceOnUse"><stop offset="0" style="stop-color:#b49481"/><stop offset=".541" style="stop-color:#b2927f"/><stop offset=".735" style="stop-color:#ad8c78"/><stop offset=".874" style="stop-color:#a3816d"/><stop offset=".985" style="stop-color:#95725c"/><stop offset="1" style="stop-color:#936f59"/></linearGradient><path d="m1541.27 464.72 19.16 11.06v-5.53l-19.16-11.07z" style="fill:url(#SVGID_00000146482698887700089340000001843897807876920965_)"/><path d="m1558.03 466.1 9.58-5.53 9.58 5.53-9.58 5.53z" class="st5"/><path d="M1558.03 466.1v16.59l9.58 5.53v-16.59z" class="st3"/><path d="m1567.61 471.63 9.58-5.53v16.59l-9.58 5.53z" class="st7"/><path d="m1529.3 433.51 9.58-5.53 9.58 5.53-9.58 5.53z" class="st5"/><path d="M1529.3 433.51v16.59l9.58 5.53v-16.59z" class="st3"/><path d="m1538.88 439.04 9.58-5.53v16.59l-9.58 5.53zM1560.43 454.25l4.79-2.77v5.53l-4.79 2.77z" class="st7"/><path d="m1541.27 443.18 4.79-2.76 19.16 11.06-4.79 2.77z" class="st5"/><linearGradient id="SVGID_00000104680451140497361120000001901701923110531972_" x1="1541.272" x2="1560.428" y1="451.481" y2="451.481" gradientUnits="userSpaceOnUse"><stop offset="0" style="stop-color:#b49481"/><stop offset=".541" style="stop-color:#b2927f"/><stop offset=".735" style="stop-color:#ad8c78"/><stop offset=".874" style="stop-color:#a3816d"/><stop offset=".985" style="stop-color:#95725c"/><stop offset="1" style="stop-color:#936f59"/></linearGradient><path d="m1541.27 448.72 19.16 11.06v-5.53l-19.16-11.07z" style="fill:url(#SVGID_00000104680451140497361120000001901701923110531972_)"/><path d="m1558.03 450.1 9.58-5.53 9.58 5.53-9.58 5.53z" class="st5"/><path d="M1558.03 450.1v16.59l9.58 5.53v-16.59z" class="st3"/><path d="m1567.61 455.63 9.58-5.53v16.59l-9.58 5.53z" class="st7"/><path d="m1529.3 417.51 9.58-5.53 9.58 5.53-9.58 5.53z" class="st5"/><path d="M1529.3 417.51v16.59l9.58 5.53v-16.59z" class="st3"/><path d="m1538.88 423.04 9.58-5.53v16.59l-9.58 5.53zM1560.43 438.25l4.79-2.77v5.53l-4.79 2.77z" class="st7"/><path d="m1541.27 427.18 4.79-2.76 19.16 11.06-4.79 2.77z" class="st5"/><linearGradient id="SVGID_00000013912602878257686150000002837897757519583901_" x1="1541.272" x2="1560.428" y1="435.481" y2="435.481" gradientUnits="userSpaceOnUse"><stop offset="0" style="stop-color:#b49481"/><stop offset=".541" style="stop-color:#b2927f"/><stop offset=".735" style="stop-color:#ad8c78"/><stop offset=".874" style="stop-color:#a3816d"/><stop offset=".985" style="stop-color:#95725c"/><stop offset="1" style="stop-color:#936f59"/></linearGradient><path d="m1541.27 432.72 19.16 11.06v-5.53l-19.16-11.07z" style="fill:url(#SVGID_00000013912602878257686150000002837897757519583901_)"/><path d="m1558.03 434.1 9.58-5.53 9.58 5.53-9.58 5.53z" class="st5"/><path d="M1558.03 434.1v16.59l9.58 5.53v-16.59z" class="st3"/><path d="m1567.61 439.63 9.58-5.53v16.59l-9.58 5.53z" class="st7"/><path d="m1529.3 401.51 9.58-5.53 9.58 5.53-9.58 5.53z" class="st5"/><path d="M1529.3 401.51v16.59l9.58 5.53v-16.59z" class="st3"/><path d="m1538.88 407.04 9.58-5.53v16.59l-9.58 5.53zM1560.43 422.25l4.79-2.77v5.53l-4.79 2.77z" class="st7"/><path d="m1541.27 411.18 4.79-2.76 19.16 11.06-4.79 2.77z" class="st5"/><linearGradient id="SVGID_00000173850413724114155390000014277099076835014808_" x1="1541.272" x2="1560.428" y1="419.481" y2="419.481" gradientUnits="userSpaceOnUse"><stop offset="0" style="stop-color:#b49481"/><stop offset=".541" style="stop-color:#b2927f"/><stop offset=".735" style="stop-color:#ad8c78"/><stop offset=".874" style="stop-color:#a3816d"/><stop offset=".985" style="stop-color:#95725c"/><stop offset="1" style="stop-color:#936f59"/></linearGradient><path d="m1541.27 416.72 19.16 11.06v-5.53l-19.16-11.07z" style="fill:url(#SVGID_00000173850413724114155390000014277099076835014808_)"/><path d="m1558.03 418.1 9.58-5.53 9.58 5.53-9.58 5.53z" class="st5"/><path d="M1558.03 418.1v16.59l9.58 5.53v-16.59z" class="st3"/><path d="m1567.61 423.63 9.58-5.53v16.59l-9.58 5.53z" class="st7"/><path d="m1529.3 385.51 9.58-5.53 9.58 5.53-9.58 5.53z" class="st5"/><path d="M1529.3 385.51v16.59l9.58 5.53v-16.59z" class="st3"/><path d="m1538.88 391.04 9.58-5.53v16.59l-9.58 5.53zM1560.43 406.25l4.79-2.77v5.53l-4.79 2.77z" class="st7"/><path d="m1541.27 395.18 4.79-2.76 19.16 11.06-4.79 2.77z" class="st5"/><linearGradient id="SVGID_00000129202657093466085170000000484051742985588401_" x1="1541.272" x2="1560.428" y1="403.481" y2="403.481" gradientUnits="userSpaceOnUse"><stop offset="0" style="stop-color:#b49481"/><stop offset=".541" style="stop-color:#b2927f"/><stop offset=".735" style="stop-color:#ad8c78"/><stop offset=".874" style="stop-color:#a3816d"/><stop offset=".985" style="stop-color:#95725c"/><stop offset="1" style="stop-color:#936f59"/></linearGradient><path d="m1541.27 400.72 19.16 11.06v-5.53l-19.16-11.07z" style="fill:url(#SVGID_00000129202657093466085170000000484051742985588401_)"/><path d="m1558.03 402.1 9.58-5.53 9.58 5.53-9.58 5.53z" class="st5"/><path d="M1558.03 402.1v16.59l9.58 5.53v-16.59z" class="st3"/><path d="m1567.61 407.63 9.58-5.53v16.59l-9.58 5.53z" class="st7"/><path d="m1405.62 441.65-60-34.64.01 166.25 59.99 34.91z" class="st3"/><path d="M1525.63 441.65v-69.29l-120.01 69.29v166.52l60.01-34.56V476.3z" class="st7"/></g></svg>