<svg xmlns="http://www.w3.org/2000/svg" xml:space="preserve" width="1920" height="1080" style="enable-background:new 0 0 1920 1080"><style>.st0{display:none}.st1,.st3{display:inline}.st3{fill:none}.st4{fill:#b49481}.st6{fill:#f1af8c}.st8{fill:#7e8981}.st10{fill:#fff}.st11{display:inline;fill:#7e8981}.st13{fill:#ba87a8}.st14{fill:#e4f2bd}.st15{fill:#fffff5}.st16,.st17{display:inline;fill:#f1af8c}.st17{fill:#b49481}.st18{fill:#2c3640}.st19{fill:#5b6c76}.st20{fill:#9aa3a5}.st21{fill:#151a26}.st24,.st25,.st26{display:inline;fill:#5b6c76}.st25,.st26{fill:#9aa3a5}.st26{fill:#2c3640}.st27{fill:#22d3a1}</style><g id="C_00000165918717436259951800000009779369807011752868_"><path d="m1345.62 407.01 180.01-103.94 180 103.94-60 34.64-120-69.29-120.01 69.29z" class="st20"/><path d="m1525.63 441.65 120 69.29v-69.29l-120-69.29z" class="st19"/><path d="m1645.63 441.65 60-34.64v69.29l-60 34.64zM1349.8 409.51l-.02-74.28 4.35-2.51V407z" class="st18"/><path d="m1349.8 409.51-.02-74.28-4.3-2.51v74.29z" class="st19"/><path d="m1405.47 441.65-.01-74.27 4.35-2.51v74.28z" class="st18"/><path d="m1405.47 441.65-.01-74.27-4.31-2.51v74.28z" class="st19"/><path d="m1461.15 409.51-.02-74.28 4.35-2.51V407z" class="st18"/><path d="m1461.15 409.51-.02-74.28-4.31-2.51v74.29z" class="st19"/><linearGradient id="SVGID_00000114765818417702568520000005969961850717273532_" x1="1371.15" x2="1416.15" y1="352.55" y2="274.61" gradientUnits="userSpaceOnUse"><stop offset="0" style="stop-color:#22d3a1"/><stop offset=".99" style="stop-color:#141f0d"/></linearGradient><path d="M1336.85 332.72s68.59-29.62 68.61-64.28c.02-.01 0 103.92 0 103.92l-68.61-39.64z" style="fill:url(#SVGID_00000114765818417702568520000005969961850717273532_)"/><linearGradient id="SVGID_00000182486449072743488370000007054304777638598844_" x1="1394.89" x2="1439.96" y1="274.54" y2="352.6" gradientUnits="userSpaceOnUse"><stop offset="0" style="stop-color:#0c1310"/><stop offset="1" style="stop-color:#82d1b8"/></linearGradient><path d="m1405.46 372.36 68.93-39.64s-68.95-29.62-68.93-64.28v103.92z" style="fill:url(#SVGID_00000182486449072743488370000007054304777638598844_)"/><path d="m1589.81 409.51-.02-74.28 4.35-2.51V407z" class="st18"/><path d="m1589.81 409.51-.02-74.28-4.31-2.51v74.29z" class="st19"/><path d="m1645.48 441.65-.02-74.27 4.35-2.51v74.28z" class="st18"/><path d="m1645.48 441.65-.02-74.27-4.31-2.51v74.28z" class="st19"/><path d="m1701.15 409.51-.02-74.28 4.35-2.51V407z" class="st18"/><path d="m1701.15 409.51-.02-74.28-4.3-2.51v74.29z" class="st19"/><linearGradient id="SVGID_00000052786203286599488730000002385123541328633262_" x1="1611.15" x2="1656.15" y1="352.55" y2="274.61" gradientUnits="userSpaceOnUse"><stop offset="0" style="stop-color:#22d3a1"/><stop offset=".99" style="stop-color:#141f0d"/></linearGradient><path d="M1576.85 332.72s68.59-29.62 68.61-64.28c.02-.01 0 103.92 0 103.92l-68.61-39.64z" style="fill:url(#SVGID_00000052786203286599488730000002385123541328633262_)"/><linearGradient id="SVGID_00000049924114448801516500000004280622015723690399_" x1="1634.9" x2="1679.96" y1="274.54" y2="352.6" gradientUnits="userSpaceOnUse"><stop offset="0" style="stop-color:#0c1310"/><stop offset="1" style="stop-color:#82d1b8"/></linearGradient><path d="m1645.46 372.36 68.93-39.64s-68.95-29.62-68.93-64.28v103.92z" style="fill:url(#SVGID_00000049924114448801516500000004280622015723690399_)"/><path d="m1529.3 785.51 9.58-5.53 9.58 5.53-9.58 5.53z" class="st20"/><path d="M1529.3 785.51v16.59l9.58 5.53v-16.59z" class="st19"/><path d="m1538.88 791.04 9.58-5.53v16.59l-9.58 5.53zM1560.43 806.25l4.79-2.77v5.53l-4.79 2.77z" class="st18"/><path d="m1541.27 795.18 4.79-2.76 19.16 11.06-4.79 2.77z" class="st20"/><path d="m1541.27 800.72 19.16 11.06v-5.53l-19.16-11.07z" class="st19"/><path d="m1558.03 802.1 9.58-5.53 9.58 5.53-9.58 5.53z" class="st20"/><path d="M1558.03 802.1v16.59l9.58 5.53v-16.59z" class="st19"/><path d="m1567.61 807.63 9.58-5.53v16.59l-9.58 5.53z" class="st18"/><path d="m1529.3 769.51 9.58-5.53 9.58 5.53-9.58 5.53z" class="st20"/><path d="M1529.3 769.51v16.59l9.58 5.53v-16.59z" class="st19"/><path d="m1538.88 775.04 9.58-5.53v16.59l-9.58 5.53zM1560.43 790.25l4.79-2.77v5.53l-4.79 2.77z" class="st18"/><path d="m1541.27 779.18 4.79-2.76 19.16 11.06-4.79 2.77z" class="st20"/><path d="m1541.27 784.72 19.16 11.06v-5.53l-19.16-11.07z" class="st19"/><path d="m1558.03 786.1 9.58-5.53 9.58 5.53-9.58 5.53z" class="st20"/><path d="M1558.03 786.1v16.59l9.58 5.53v-16.59z" class="st19"/><path d="m1567.61 791.63 9.58-5.53v16.59l-9.58 5.53z" class="st18"/><path d="m1529.3 753.51 9.58-5.53 9.58 5.53-9.58 5.53z" class="st20"/><path d="M1529.3 753.51v16.59l9.58 5.53v-16.59z" class="st19"/><path d="m1538.88 759.04 9.58-5.53v16.59l-9.58 5.53zM1560.43 774.25l4.79-2.77v5.53l-4.79 2.77z" class="st18"/><path d="m1541.27 763.18 4.79-2.76 19.16 11.06-4.79 2.77z" class="st20"/><path d="m1541.27 768.72 19.16 11.06v-5.53l-19.16-11.07z" class="st19"/><path d="m1558.03 770.1 9.58-5.53 9.58 5.53-9.58 5.53z" class="st20"/><path d="M1558.03 770.1v16.59l9.58 5.53v-16.59z" class="st19"/><path d="m1567.61 775.63 9.58-5.53v16.59l-9.58 5.53z" class="st18"/><path d="m1529.3 737.51 9.58-5.53 9.58 5.53-9.58 5.53z" class="st20"/><path d="M1529.3 737.51v16.59l9.58 5.53v-16.59z" class="st19"/><path d="m1538.88 743.04 9.58-5.53v16.59l-9.58 5.53zM1560.43 758.25l4.79-2.77v5.53l-4.79 2.77z" class="st18"/><path d="m1541.27 747.18 4.79-2.76 19.16 11.06-4.79 2.77z" class="st20"/><path d="m1541.27 752.72 19.16 11.06v-5.53l-19.16-11.07z" class="st19"/><path d="m1558.03 754.1 9.58-5.53 9.58 5.53-9.58 5.53z" class="st20"/><path d="M1558.03 754.1v16.59l9.58 5.53v-16.59z" class="st19"/><path d="m1567.61 759.63 9.58-5.53v16.59l-9.58 5.53z" class="st18"/><path d="m1529.3 721.51 9.58-5.53 9.58 5.53-9.58 5.53z" class="st20"/><path d="M1529.3 721.51v16.59l9.58 5.53v-16.59z" class="st19"/><path d="m1538.88 727.04 9.58-5.53v16.59l-9.58 5.53zM1560.43 742.25l4.79-2.77v5.53l-4.79 2.77z" class="st18"/><path d="m1541.27 731.18 4.79-2.76 19.16 11.06-4.79 2.77z" class="st20"/><path d="m1541.27 736.72 19.16 11.06v-5.53l-19.16-11.07z" class="st19"/><path d="m1558.03 738.1 9.58-5.53 9.58 5.53-9.58 5.53z" class="st20"/><path d="M1558.03 738.1v16.59l9.58 5.53v-16.59z" class="st19"/><path d="m1567.61 743.63 9.58-5.53v16.59l-9.58 5.53z" class="st18"/><path d="m1529.3 705.51 9.58-5.53 9.58 5.53-9.58 5.53z" class="st20"/><path d="M1529.3 705.51v16.59l9.58 5.53v-16.59z" class="st19"/><path d="m1538.88 711.04 9.58-5.53v16.59l-9.58 5.53zM1560.43 726.25l4.79-2.77v5.53l-4.79 2.77z" class="st18"/><path d="m1541.27 715.18 4.79-2.76 19.16 11.06-4.79 2.77z" class="st20"/><path d="m1541.27 720.72 19.16 11.06v-5.53l-19.16-11.07z" class="st19"/><path d="m1558.03 722.1 9.58-5.53 9.58 5.53-9.58 5.53z" class="st20"/><path d="M1558.03 722.1v16.59l9.58 5.53v-16.59z" class="st19"/><path d="m1567.61 727.63 9.58-5.53v16.59l-9.58 5.53z" class="st18"/><path d="m1529.3 689.51 9.58-5.53 9.58 5.53-9.58 5.53z" class="st20"/><path d="M1529.3 689.51v16.59l9.58 5.53v-16.59z" class="st19"/><path d="m1538.88 695.04 9.58-5.53v16.59l-9.58 5.53zM1560.43 710.25l4.79-2.77v5.53l-4.79 2.77z" class="st18"/><path d="m1541.27 699.18 4.79-2.76 19.16 11.06-4.79 2.77z" class="st20"/><path d="m1541.27 704.72 19.16 11.06v-5.53l-19.16-11.07z" class="st19"/><path d="m1558.03 706.1 9.58-5.53 9.58 5.53-9.58 5.53z" class="st20"/><path d="M1558.03 706.1v16.59l9.58 5.53v-16.59z" class="st19"/><path d="m1567.61 711.63 9.58-5.53v16.59l-9.58 5.53z" class="st18"/><path d="m1529.3 673.51 9.58-5.53 9.58 5.53-9.58 5.53z" class="st20"/><path d="M1529.3 673.51v16.59l9.58 5.53v-16.59z" class="st19"/><path d="m1538.88 679.04 9.58-5.53v16.59l-9.58 5.53zM1560.43 694.25l4.79-2.77v5.53l-4.79 2.77z" class="st18"/><path d="m1541.27 683.18 4.79-2.76 19.16 11.06-4.79 2.77z" class="st20"/><path d="m1541.27 688.72 19.16 11.06v-5.53l-19.16-11.07z" class="st19"/><path d="m1558.03 690.1 9.58-5.53 9.58 5.53-9.58 5.53z" class="st20"/><path d="M1558.03 690.1v16.59l9.58 5.53v-16.59z" class="st19"/><path d="m1567.61 695.63 9.58-5.53v16.59l-9.58 5.53z" class="st18"/><path d="m1529.3 657.51 9.58-5.53 9.58 5.53-9.58 5.53z" class="st20"/><path d="M1529.3 657.51v16.59l9.58 5.53v-16.59z" class="st19"/><path d="m1538.88 663.04 9.58-5.53v16.59l-9.58 5.53zM1560.43 678.25l4.79-2.77v5.53l-4.79 2.77z" class="st18"/><path d="m1541.27 667.18 4.79-2.76 19.16 11.06-4.79 2.77z" class="st20"/><path d="m1541.27 672.72 19.16 11.06v-5.53l-19.16-11.07z" class="st19"/><path d="m1558.03 674.1 9.58-5.53 9.58 5.53-9.58 5.53z" class="st20"/><path d="M1558.03 674.1v16.59l9.58 5.53v-16.59z" class="st19"/><path d="m1567.61 679.63 9.58-5.53v16.59l-9.58 5.53z" class="st18"/><path d="m1529.3 641.51 9.58-5.53 9.58 5.53-9.58 5.53z" class="st20"/><path d="M1529.3 641.51v16.59l9.58 5.53v-16.59z" class="st19"/><path d="m1538.88 647.04 9.58-5.53v16.59l-9.58 5.53zM1560.43 662.25l4.79-2.77v5.53l-4.79 2.77z" class="st18"/><path d="m1541.27 651.18 4.79-2.76 19.16 11.06-4.79 2.77z" class="st20"/><path d="m1541.27 656.72 19.16 11.06v-5.53l-19.16-11.07z" class="st19"/><path d="m1558.03 658.1 9.58-5.53 9.58 5.53-9.58 5.53z" class="st20"/><path d="M1558.03 658.1v16.59l9.58 5.53v-16.59z" class="st19"/><path d="m1567.61 663.63 9.58-5.53v16.59l-9.58 5.53z" class="st18"/><path d="m1529.3 625.51 9.58-5.53 9.58 5.53-9.58 5.53z" class="st20"/><path d="M1529.3 625.51v16.59l9.58 5.53v-16.59z" class="st19"/><path d="m1538.88 631.04 9.58-5.53v16.59l-9.58 5.53zM1560.43 646.25l4.79-2.77v5.53l-4.79 2.77z" class="st18"/><path d="m1541.27 635.18 4.79-2.76 19.16 11.06-4.79 2.77z" class="st20"/><path d="m1541.27 640.72 19.16 11.06v-5.53l-19.16-11.07z" class="st19"/><path d="m1558.03 642.1 9.58-5.53 9.58 5.53-9.58 5.53z" class="st20"/><path d="M1558.03 642.1v16.59l9.58 5.53v-16.59z" class="st19"/><path d="m1567.61 647.63 9.58-5.53v16.59l-9.58 5.53z" class="st18"/><path d="m1529.3 609.51 9.58-5.53 9.58 5.53-9.58 5.53z" class="st20"/><path d="M1529.3 609.51v16.59l9.58 5.53v-16.59z" class="st19"/><path d="m1538.88 615.04 9.58-5.53v16.59l-9.58 5.53zM1560.43 630.25l4.79-2.77v5.53l-4.79 2.77z" class="st18"/><path d="m1541.27 619.18 4.79-2.76 19.16 11.06-4.79 2.77z" class="st20"/><path d="m1541.27 624.72 19.16 11.06v-5.53l-19.16-11.07z" class="st19"/><path d="m1558.03 626.1 9.58-5.53 9.58 5.53-9.58 5.53z" class="st20"/><path d="M1558.03 626.1v16.59l9.58 5.53v-16.59z" class="st19"/><path d="m1567.61 631.63 9.58-5.53v16.59l-9.58 5.53z" class="st18"/><path d="m1529.3 593.51 9.58-5.53 9.58 5.53-9.58 5.53z" class="st20"/><path d="M1529.3 593.51v16.59l9.58 5.53v-16.59z" class="st19"/><path d="m1538.88 599.04 9.58-5.53v16.59l-9.58 5.53zM1560.43 614.25l4.79-2.77v5.53l-4.79 2.77z" class="st18"/><path d="m1541.27 603.18 4.79-2.76 19.16 11.06-4.79 2.77z" class="st20"/><path d="m1541.27 608.72 19.16 11.06v-5.53l-19.16-11.07z" class="st19"/><path d="m1558.03 610.1 9.58-5.53 9.58 5.53-9.58 5.53z" class="st20"/><path d="M1558.03 610.1v16.59l9.58 5.53v-16.59z" class="st19"/><path d="m1567.61 615.63 9.58-5.53v16.59l-9.58 5.53z" class="st18"/><path d="m1529.3 577.51 9.58-5.53 9.58 5.53-9.58 5.53z" class="st20"/><path d="M1529.3 577.51v16.59l9.58 5.53v-16.59z" class="st19"/><path d="m1538.88 583.04 9.58-5.53v16.59l-9.58 5.53zM1560.43 598.25l4.79-2.77v5.53l-4.79 2.77z" class="st18"/><path d="m1541.27 587.18 4.79-2.76 19.16 11.06-4.79 2.77z" class="st20"/><path d="m1541.27 592.72 19.16 11.06v-5.53l-19.16-11.07z" class="st19"/><path d="m1558.03 594.1 9.58-5.53 9.58 5.53-9.58 5.53z" class="st20"/><path d="M1558.03 594.1v16.59l9.58 5.53v-16.59z" class="st19"/><path d="m1567.61 599.63 9.58-5.53v16.59l-9.58 5.53z" class="st18"/><path d="m1529.3 561.51 9.58-5.53 9.58 5.53-9.58 5.53z" class="st20"/><path d="M1529.3 561.51v16.59l9.58 5.53v-16.59z" class="st19"/><path d="m1538.88 567.04 9.58-5.53v16.59l-9.58 5.53zM1560.43 582.25l4.79-2.77v5.53l-4.79 2.77z" class="st18"/><path d="m1541.27 571.18 4.79-2.76 19.16 11.06-4.79 2.77z" class="st20"/><path d="m1541.27 576.72 19.16 11.06v-5.53l-19.16-11.07z" class="st19"/><path d="m1558.03 578.1 9.58-5.53 9.58 5.53-9.58 5.53z" class="st20"/><path d="M1558.03 578.1v16.59l9.58 5.53v-16.59z" class="st19"/><path d="m1567.61 583.63 9.58-5.53v16.59l-9.58 5.53z" class="st18"/><path d="m1529.3 545.51 9.58-5.53 9.58 5.53-9.58 5.53z" class="st20"/><path d="M1529.3 545.51v16.59l9.58 5.53v-16.59z" class="st19"/><path d="m1538.88 551.04 9.58-5.53v16.59l-9.58 5.53zM1560.43 566.25l4.79-2.77v5.53l-4.79 2.77z" class="st18"/><path d="m1541.27 555.18 4.79-2.76 19.16 11.06-4.79 2.77z" class="st20"/><path d="m1541.27 560.72 19.16 11.06v-5.53l-19.16-11.07z" class="st19"/><path d="m1558.03 562.1 9.58-5.53 9.58 5.53-9.58 5.53z" class="st20"/><path d="M1558.03 562.1v16.59l9.58 5.53v-16.59z" class="st19"/><path d="m1567.61 567.63 9.58-5.53v16.59l-9.58 5.53z" class="st18"/><path d="m1529.3 529.51 9.58-5.53 9.58 5.53-9.58 5.53z" class="st20"/><path d="M1529.3 529.51v16.59l9.58 5.53v-16.59z" class="st19"/><path d="m1538.88 535.04 9.58-5.53v16.59l-9.58 5.53zM1560.43 550.25l4.79-2.77v5.53l-4.79 2.77z" class="st18"/><path d="m1541.27 539.18 4.79-2.76 19.16 11.06-4.79 2.77z" class="st20"/><path d="m1541.27 544.72 19.16 11.06v-5.53l-19.16-11.07z" class="st19"/><path d="m1558.03 546.1 9.58-5.53 9.58 5.53-9.58 5.53z" class="st20"/><path d="M1558.03 546.1v16.59l9.58 5.53v-16.59z" class="st19"/><path d="m1567.61 551.63 9.58-5.53v16.59l-9.58 5.53z" class="st18"/><path d="m1529.3 513.51 9.58-5.53 9.58 5.53-9.58 5.53z" class="st20"/><path d="M1529.3 513.51v16.59l9.58 5.53v-16.59z" class="st19"/><path d="m1538.88 519.04 9.58-5.53v16.59l-9.58 5.53zM1560.43 534.25l4.79-2.77v5.53l-4.79 2.77z" class="st18"/><path d="m1541.27 523.18 4.79-2.76 19.16 11.06-4.79 2.77z" class="st20"/><path d="m1541.27 528.72 19.16 11.06v-5.53l-19.16-11.07z" class="st19"/><path d="m1558.03 530.1 9.58-5.53 9.58 5.53-9.58 5.53z" class="st20"/><path d="M1558.03 530.1v16.59l9.58 5.53v-16.59z" class="st19"/><path d="m1567.61 535.63 9.58-5.53v16.59l-9.58 5.53z" class="st18"/><path d="m1529.3 497.51 9.58-5.53 9.58 5.53-9.58 5.53z" class="st20"/><path d="M1529.3 497.51v16.59l9.58 5.53v-16.59z" class="st19"/><path d="m1538.88 503.04 9.58-5.53v16.59l-9.58 5.53zM1560.43 518.25l4.79-2.77v5.53l-4.79 2.77z" class="st18"/><path d="m1541.27 507.18 4.79-2.76 19.16 11.06-4.79 2.77z" class="st20"/><path d="m1541.27 512.72 19.16 11.06v-5.53l-19.16-11.07z" class="st19"/><path d="m1558.03 514.1 9.58-5.53 9.58 5.53-9.58 5.53z" class="st20"/><path d="M1558.03 514.1v16.59l9.58 5.53v-16.59z" class="st19"/><path d="m1567.61 519.63 9.58-5.53v16.59l-9.58 5.53z" class="st18"/><path d="m1529.3 481.51 9.58-5.53 9.58 5.53-9.58 5.53z" class="st20"/><path d="M1529.3 481.51v16.59l9.58 5.53v-16.59z" class="st19"/><path d="m1538.88 487.04 9.58-5.53v16.59l-9.58 5.53zM1560.43 502.25l4.79-2.77v5.53l-4.79 2.77z" class="st18"/><path d="m1541.27 491.18 4.79-2.76 19.16 11.06-4.79 2.77z" class="st20"/><path d="m1541.27 496.72 19.16 11.06v-5.53l-19.16-11.07z" class="st19"/><path d="m1558.03 498.1 9.58-5.53 9.58 5.53-9.58 5.53z" class="st20"/><path d="M1558.03 498.1v16.59l9.58 5.53v-16.59z" class="st19"/><path d="m1567.61 503.63 9.58-5.53v16.59l-9.58 5.53z" class="st18"/><path d="m1529.3 465.51 9.58-5.53 9.58 5.53-9.58 5.53z" class="st20"/><path d="M1529.3 465.51v16.59l9.58 5.53v-16.59z" class="st19"/><path d="m1538.88 471.04 9.58-5.53v16.59l-9.58 5.53zM1560.43 486.25l4.79-2.77v5.53l-4.79 2.77z" class="st18"/><path d="m1541.27 475.18 4.79-2.76 19.16 11.06-4.79 2.77z" class="st20"/><path d="m1541.27 480.72 19.16 11.06v-5.53l-19.16-11.07z" class="st19"/><path d="m1558.03 482.1 9.58-5.53 9.58 5.53-9.58 5.53z" class="st20"/><path d="M1558.03 482.1v16.59l9.58 5.53v-16.59z" class="st19"/><path d="m1567.61 487.63 9.58-5.53v16.59l-9.58 5.53z" class="st18"/><path d="m1529.3 449.51 9.58-5.53 9.58 5.53-9.58 5.53z" class="st20"/><path d="M1529.3 449.51v16.59l9.58 5.53v-16.59z" class="st19"/><path d="m1538.88 455.04 9.58-5.53v16.59l-9.58 5.53zM1560.43 470.25l4.79-2.77v5.53l-4.79 2.77z" class="st18"/><path d="m1541.27 459.18 4.79-2.76 19.16 11.06-4.79 2.77z" class="st20"/><path d="m1541.27 464.72 19.16 11.06v-5.53l-19.16-11.07z" class="st19"/><path d="m1558.03 466.1 9.58-5.53 9.58 5.53-9.58 5.53z" class="st20"/><path d="M1558.03 466.1v16.59l9.58 5.53v-16.59z" class="st19"/><path d="m1567.61 471.63 9.58-5.53v16.59l-9.58 5.53z" class="st18"/><path d="m1529.3 433.51 9.58-5.53 9.58 5.53-9.58 5.53z" class="st20"/><path d="M1529.3 433.51v16.59l9.58 5.53v-16.59z" class="st19"/><path d="m1538.88 439.04 9.58-5.53v16.59l-9.58 5.53zM1560.43 454.25l4.79-2.77v5.53l-4.79 2.77z" class="st18"/><path d="m1541.27 443.18 4.79-2.76 19.16 11.06-4.79 2.77z" class="st20"/><path d="m1541.27 448.72 19.16 11.06v-5.53l-19.16-11.07z" class="st19"/><path d="m1558.03 450.1 9.58-5.53 9.58 5.53-9.58 5.53z" class="st20"/><path d="M1558.03 450.1v16.59l9.58 5.53v-16.59z" class="st19"/><path d="m1567.61 455.63 9.58-5.53v16.59l-9.58 5.53z" class="st18"/><path d="m1529.3 417.51 9.58-5.53 9.58 5.53-9.58 5.53z" class="st20"/><path d="M1529.3 417.51v16.59l9.58 5.53v-16.59z" class="st19"/><path d="m1538.88 423.04 9.58-5.53v16.59l-9.58 5.53zM1560.43 438.25l4.79-2.77v5.53l-4.79 2.77z" class="st18"/><path d="m1541.27 427.18 4.79-2.76 19.16 11.06-4.79 2.77z" class="st20"/><path d="m1541.27 432.72 19.16 11.06v-5.53l-19.16-11.07z" class="st19"/><path d="m1558.03 434.1 9.58-5.53 9.58 5.53-9.58 5.53z" class="st20"/><path d="M1558.03 434.1v16.59l9.58 5.53v-16.59z" class="st19"/><path d="m1567.61 439.63 9.58-5.53v16.59l-9.58 5.53z" class="st18"/><path d="m1529.3 401.51 9.58-5.53 9.58 5.53-9.58 5.53z" class="st20"/><path d="M1529.3 401.51v16.59l9.58 5.53v-16.59z" class="st19"/><path d="m1538.88 407.04 9.58-5.53v16.59l-9.58 5.53zM1560.43 422.25l4.79-2.77v5.53l-4.79 2.77z" class="st18"/><path d="m1541.27 411.18 4.79-2.76 19.16 11.06-4.79 2.77z" class="st20"/><path d="m1541.27 416.72 19.16 11.06v-5.53l-19.16-11.07z" class="st19"/><path d="m1558.03 418.1 9.58-5.53 9.58 5.53-9.58 5.53z" class="st20"/><path d="M1558.03 418.1v16.59l9.58 5.53v-16.59z" class="st19"/><path d="m1567.61 423.63 9.58-5.53v16.59l-9.58 5.53z" class="st18"/><path d="m1529.3 385.51 9.58-5.53 9.58 5.53-9.58 5.53z" class="st20"/><path d="M1529.3 385.51v16.59l9.58 5.53v-16.59z" class="st19"/><path d="m1538.88 391.04 9.58-5.53v16.59l-9.58 5.53zM1560.43 406.25l4.79-2.77v5.53l-4.79 2.77z" class="st18"/><path d="m1541.27 395.18 4.79-2.76 19.16 11.06-4.79 2.77z" class="st20"/><path d="m1541.27 400.72 19.16 11.06v-5.53l-19.16-11.07z" class="st19"/><path d="m1558.03 402.1 9.58-5.53 9.58 5.53-9.58 5.53z" class="st20"/><path d="M1558.03 402.1v16.59l9.58 5.53v-16.59z" class="st19"/><path d="m1567.61 407.63 9.58-5.53v16.59l-9.58 5.53z" class="st18"/><path d="m1405.62 441.65-60-34.64.01 166.25 59.99 34.67z" class="st19"/><path d="M1525.63 441.65v-69.29l-120.01 69.29v165.98l60.01-34.35V476.3z" class="st18"/></g></svg>