<?xml version="1.0" encoding="utf-8"?>
<!-- Generator: Adobe Illustrator 27.4.0, SVG Export Plug-In . SVG Version: 6.00 Build 0)  -->
<svg version="1.1" xmlns="http://www.w3.org/2000/svg" xmlns:xlink="http://www.w3.org/1999/xlink" x="0px" y="0px" width="1920px"
	 height="1080px" viewBox="0 0 1920 1080" style="enable-background:new 0 0 1920 1080;" xml:space="preserve">
<style type="text/css">
	.st0{display:none;}
	.st1{display:inline;}
	.st2{fill:url(#SVGID_1_);}
	.st3{display:inline;fill:none;}
	.st4{fill:#B49481;}
	.st5{fill:#546D64;}
	.st6{fill:#F1AF8C;}
	.st7{fill:#4FB286;}
	.st8{fill:#7E8981;}
	.st9{fill:#3C896D;}
	.st10{fill:#FFFFFF;}
	.st11{display:inline;fill:#7E8981;}
	.st12{fill:#F1AF8C;stroke:#000000;stroke-miterlimit:10;}
	.st13{fill:#BA87A8;}
	.st14{fill:#E4F2BD;}
	.st15{fill:#FFFFF5;}
	.st16{display:inline;fill:#F1AF8C;}
	.st17{display:inline;fill:#B49481;}
	.st18{fill:#2C3640;}
	.st19{fill:#5B6C76;}
	.st20{fill:#9AA3A5;}
	.st21{fill:#151A26;}
	.st22{fill:url(#SVGID_00000018197933583500540960000018087379534403423166_);}
	.st23{fill:url(#SVGID_00000019644981560619756830000007866730142974894009_);}
	.st24{display:inline;fill:#5B6C76;}
	.st25{display:inline;fill:#9AA3A5;}
	.st26{display:inline;fill:#2C3640;}
	.st27{fill:#22D3A1;}
	.st28{fill:url(#SVGID_00000147198408376333157970000010268057621908776606_);}
	.st29{fill:url(#SVGID_00000002368665607824256760000013861875704731314107_);}
	.st30{fill:url(#SVGID_00000032638738188779878020000004381981355933345707_);}
	.st31{fill:url(#SVGID_00000064323961626899014340000002221973420232890532_);}
	.st32{fill:url(#SVGID_00000063605564914080257750000012043556017658334115_);}
	.st33{fill:url(#SVGID_00000132082194364093378260000001092705889110208426_);}
	.st34{fill:url(#SVGID_00000132797886461919322850000017750873995787940029_);}
	.st35{fill:url(#SVGID_00000075135021657853826780000002317455005245590668_);}
	.st36{fill:url(#SVGID_00000179642173632150171360000004883304565965882252_);}
	.st37{fill:url(#SVGID_00000098210816300592364410000004604606030785193146_);}
	.st38{fill:url(#SVGID_00000152242226483833894910000012602326636462958999_);}
	.st39{fill:url(#SVGID_00000036227726818158612130000015479823843948549775_);}
	.st40{fill:url(#SVGID_00000140723112862241674290000010979729905250426754_);}
	.st41{fill:#82D1B8;}
</style>
<g id="Layer_1" class="st0">
	<g class="st1">
	</g>
</g>
<g id="Layer_15" class="st0">
	<g class="st1">
		<radialGradient id="SVGID_1_" cx="960" cy="540" r="778.3729" gradientUnits="userSpaceOnUse">
			<stop  offset="0" style="stop-color:#001927"/>
			<stop  offset="0.8037" style="stop-color:#000000"/>
		</radialGradient>
		<rect x="0.49" y="0.5" class="st2" width="1919.03" height="1079"/>
		<path d="M1919.01,1v1078H0.99V1H1919.01 M1920.01,0H-0.01v1080h1920.03V0L1920.01,0z"/>
	</g>
</g>
<g id="Layer_9" class="st0">
	<rect class="st3" width="1920" height="1080"/>
</g>
<g id="Layer_2" class="st0">
	<g class="st1">
		<rect x="-1076.3" y="482.8" class="st4" width="190.54" height="190.54"/>
	</g>
	<g class="st1">
		<rect x="-824.3" y="725.31" class="st5" width="190.54" height="190.54"/>
	</g>
	<g class="st1">
		<rect x="-1076.3" y="248.95" class="st6" width="190.54" height="190.54"/>
	</g>
	<g class="st1">
		<rect x="-824.3" y="248.95" class="st7" width="190.54" height="190.54"/>
	</g>
	<g class="st1">
		<rect x="-1076.3" y="725.31" class="st8" width="190.54" height="190.54"/>
	</g>
	<g class="st1">
		<rect x="-824.3" y="482.8" class="st9" width="190.54" height="190.54"/>
	</g>
	<g class="st1">
		<rect x="-565.79" y="721.48" class="st10" width="189.54" height="189.54"/>
		<path d="M-376.75,721.98v188.54h-188.54V721.98H-376.75 M-375.75,720.98h-190.54v190.54h190.54V720.98L-375.75,720.98z"/>
	</g>
	<g class="st1">
		<rect x="-313.79" y="721.48" class="st10" width="189.54" height="189.54"/>
		<path d="M-124.75,721.98v188.54h-188.54V721.98H-124.75 M-123.75,720.98h-190.54v190.54h190.54V720.98L-123.75,720.98z"/>
	</g>
	<g class="st1">
		<rect x="-565.79" y="245.12" class="st10" width="189.54" height="189.54"/>
		<path d="M-376.75,245.62v188.54h-188.54V245.62H-376.75 M-375.75,244.62h-190.54v190.54h190.54V244.62L-375.75,244.62z"/>
	</g>
	<g class="st1">
		<rect x="-313.79" y="245.12" class="st10" width="189.54" height="189.54"/>
		<path d="M-124.75,245.62v188.54h-188.54V245.62H-124.75 M-123.75,244.62h-190.54v190.54h190.54V244.62L-123.75,244.62z"/>
	</g>
	<g class="st1">
		<rect x="-565.79" y="478.97" class="st10" width="189.54" height="189.54"/>
		<path d="M-376.75,479.47v188.54h-188.54V479.47H-376.75 M-375.75,478.47h-190.54v190.54h190.54V478.47L-375.75,478.47z"/>
	</g>
	<g class="st1">
		<rect x="-313.79" y="478.97" class="st10" width="189.54" height="189.54"/>
		<path d="M-124.75,479.47v188.54h-188.54V479.47H-124.75 M-123.75,478.47h-190.54v190.54h190.54V478.47L-123.75,478.47z"/>
	</g>
</g>
<g id="Shapes" class="st0">
	<g class="st1">
		<polygon class="st6" points="-720.03,1593.27 -597.72,1522.65 -720.03,1452.03 -842.33,1522.65 		"/>
		<g>
			<polygon class="st8" points="-720.03,1593.27 -720.03,1828.66 -597.72,1758.04 -597.72,1522.65 			"/>
		</g>
		<g>
			<polygon class="st4" points="-842.33,1522.65 -842.33,1758.04 -720.03,1828.66 -720.03,1593.27 			"/>
		</g>
	</g>
	<g class="st1">
		<polyline class="st4" points="-1200.03,1117.23 -1200.03,1463.68 -1140.03,1498.32 -1140.03,1151.88 -1200.03,1117.23 		"/>
		<polyline class="st4" points="-1200.03,1186.52 -1020.03,1290.45 -960.03,1255.81 -1200.03,1117.23 		"/>
		<polygon class="st6" points="-1200.03,1117.23 -960.03,1255.81 -900.03,1221.16 -1140.03,1082.59 		"/>
		<polygon class="st6" points="-900.03,1221.16 -840.03,1255.81 -1080.03,1394.39 -1080.03,1325.1 -960.03,1255.81 		"/>
		<polygon class="st8" points="-840.03,1255.81 -840.03,1325.1 -1140.03,1498.32 -1140.03,1221.16 -1080.03,1255.81 
			-1080.03,1394.39 		"/>
	</g>
	<path class="st11" d="M-291.02,1242.72h-180v173.22h60c0,0,0-138.58,120-138.58C-291.02,1277.36-291.02,1242.72-291.02,1242.72z"/>
</g>
<g id="Layer_4" class="st0">
	<g class="st1">
		<path class="st12" d="M599.99,1030.62"/>
		<g>
			<polygon class="st6" points="0,788.11 359.99,580.24 509.99,666.85 0,961.33 			"/>
		</g>
		<path class="st4" d="M53.72,942.13"/>
		<path class="st8" d="M209.99,840.08"/>
		<polygon class="st4" points="119.99,926.69 29.99,978.65 29.99,1080 119.99,1080 		"/>
		<g>
			<g>
				<polygon class="st8" points="509.99,666.85 509.99,701.5 329.99,805.43 330,770.79 				"/>
			</g>
			<polygon class="st8" points="119.99,926.69 209.99,874.72 209.99,1080 119.99,1080 			"/>
			<path class="st8" d="M329.99,805.43c0,0-120,77.5-120,207.87c0,0,0-173.22,0-173.22L330,770.79L329.99,805.43z"/>
			<polygon class="st8" points="119.99,926.69 209.99,874.72 209.99,840.08 119.99,892.04 			"/>
		</g>
	</g>
</g>
<g id="Layer_5" class="st0">
	<g class="st1">
		<polygon class="st13" points="840.17,995.84 840.17,1307.63 960.17,1238.34 960.17,926.54 		"/>
		<polygon class="st14" points="840.17,995.84 720.17,926.54 720.17,1238.34 840.17,1307.63 		"/>
		<polygon class="st15" points="720.17,926.54 840.17,857.25 960.17,926.54 840.17,995.84 		"/>
	</g>
	<g class="st1">
		<g>
			<polygon class="st15" points="409.17,1049.09 469.17,1014.45 529.16,1049.09 469.17,1083.74 			"/>
		</g>
		<g>
			<polygon class="st13" points="469.17,1083.74 469.17,1153.03 529.16,1118.38 529.16,1049.09 			"/>
		</g>
		<g>
			<polygon class="st14" points="409.17,1049.09 409.17,1118.38 469.17,1153.03 469.17,1083.74 			"/>
		</g>
	</g>
	<g class="st1">
		<polygon class="st13" points="120.16,995.84 120.16,1307.63 240.16,1238.34 240.16,926.54 		"/>
		<polygon class="st14" points="120.16,995.84 0.16,926.54 0.16,1238.34 120.16,1307.63 		"/>
		<polygon class="st15" points="0.16,926.54 120.16,857.25 240.16,926.54 120.16,995.84 		"/>
	</g>
	<g class="st1">
		<polygon class="st13" points="480.16,995.84 480.16,1307.63 600.17,1238.34 600.17,926.54 		"/>
		<polygon class="st14" points="480.16,995.84 360.16,926.54 360.16,1238.34 480.16,1307.63 		"/>
		<polygon class="st15" points="360.16,926.54 480.16,857.25 600.17,926.54 480.16,995.84 		"/>
	</g>
	<g class="st1">
		<polygon class="st15" points="300.16,995.83 150.16,1082.44 300.16,1169.06 450.16,1082.44 		"/>
		<polygon class="st14" points="150.16,1082.44 150.16,1394.25 300.16,1480.86 300.16,1169.06 		"/>
		<polygon class="st13" points="450.16,1082.44 450.16,1394.25 300.16,1480.86 300.16,1169.06 		"/>
	</g>
	<g class="st1">
		<polygon class="st15" points="660.17,995.83 510.16,1082.44 660.17,1169.06 810.17,1082.44 		"/>
		<polygon class="st14" points="510.16,1082.44 510.16,1394.25 660.17,1480.86 660.17,1169.06 		"/>
		<polygon class="st13" points="810.17,1082.44 810.17,1394.25 660.17,1480.86 660.17,1169.06 		"/>
	</g>
	<g class="st1">
		<polygon class="st13" points="1200.17,995.84 1200.17,1307.63 1320.18,1238.34 1320.18,926.54 		"/>
		<polygon class="st14" points="1200.17,995.84 1080.17,926.54 1080.17,1238.34 1200.17,1307.63 		"/>
		<polygon class="st15" points="1080.17,926.54 1200.17,857.25 1320.18,926.54 1200.17,995.84 		"/>
	</g>
	<g class="st1">
		<polygon class="st15" points="1020.17,995.83 870.17,1082.44 1020.17,1169.06 1170.17,1082.44 		"/>
		<polygon class="st14" points="870.17,1082.44 870.17,1394.25 1020.17,1480.86 1020.17,1169.06 		"/>
		<polygon class="st13" points="1170.17,1082.44 1170.17,1394.25 1020.17,1480.86 1020.17,1169.06 		"/>
	</g>
	<g class="st1">
		<polygon class="st15" points="1380.18,995.83 1230.17,1082.44 1380.18,1169.06 1530.18,1082.44 		"/>
		<polygon class="st14" points="1230.17,1082.44 1230.17,1394.25 1380.18,1480.86 1380.18,1169.06 		"/>
		<polygon class="st13" points="1530.18,1082.44 1530.18,1394.25 1380.18,1480.86 1380.18,1169.06 		"/>
	</g>
</g>
<g id="Layer_14" class="st0">
</g>
<g id="Layer_6" class="st0">
	<polygon class="st16" points="-270.02,1515.64 -90.02,1411.71 -30.02,1446.35 -210.02,1550.29 	"/>
	<polygon class="st11" points="-210.02,1550.29 -210.02,1827.44 -270.02,1792.8 -270.02,1515.64 	"/>
	<polygon class="st17" points="-210.02,1550.29 -150.02,1515.64 -150.02,1792.8 -210.02,1827.44 	"/>
	<path class="st17" d="M-150.02,1515.64"/>
	<polygon class="st17" points="-150.02,1515.64 -90.02,1481 -90.02,1550.29 -150.02,1584.93 	"/>
	<polygon class="st17" points="-150.02,1654.22 -90.02,1619.58 -90.02,1688.87 -150.02,1723.51 	"/>
	<polygon class="st17" points="-30.02,1446.35 -90.02,1481 -90.02,1758.15 -30.02,1723.51 	"/>
	<path class="st17" d="M-90.02,1619.58"/>
	<polygon class="st11" points="-90.02,1619.58 -150.02,1584.93 -90.02,1550.29 	"/>
	<polygon class="st16" points="-90.02,1619.58 -150.02,1654.22 -150.02,1584.93 	"/>
	<polyline class="st11" points="-90.02,1758.15 -150.02,1723.51 -90.02,1688.87 	"/>
</g>
<g id="Layer_7" class="st0">
	<g class="st1">
		<polyline class="st4" points="966.78,665.6 897.49,785.6 966.78,785.6 1036.07,665.6 1140,485.59 1105.36,425.59 966.78,665.6 		
			"/>
		<polygon class="st6" points="966.78,665.6 1105.36,425.59 1070.71,365.59 932.14,605.6 		"/>
		<polygon class="st6" points="966.78,665.6 897.49,785.6 862.85,725.6 932.14,605.6 		"/>
		<polygon class="st8" points="1105.36,425.59 1174.65,425.59 1140,365.59 1070.71,365.59 		"/>
		<polygon class="st4" points="1140,485.59 1174.65,425.59 1105.36,425.59 		"/>
	</g>
</g>
<g id="Layer_8" class="st0">
	<g class="st1">
		<polyline class="st4" points="1070.71,605.6 1347.87,605.6 1313.23,665.6 1036.07,665.6 1070.71,605.6 1347.87,605.6 		"/>
		<polygon class="st6" points="1070.71,365.59 1105.36,305.59 1243.94,545.6 1174.65,545.6 1105.36,425.59 		"/>
		<polygon class="st8" points="1105.36,305.59 1174.65,305.59 1347.87,605.6 1070.71,605.6 1105.36,545.6 1243.94,545.6 		"/>
		<polygon class="st8" points="1278.58,605.6 1347.87,725.6 1417.16,725.6 1347.87,605.6 		"/>
		<polygon class="st6" points="1278.58,605.6 1347.87,725.6 1313.23,785.6 1243.94,665.6 		"/>
		<polygon class="st4" points="1347.87,725.6 1417.16,725.6 1382.52,785.6 1313.23,785.6 		"/>
	</g>
</g>
<g id="A" class="st0">
	<g class="st1">
		<g>
			<path class="st18" d="M325.6,407.01l-60,34.65v415.73l60-34.64V476.16c0,0.09,0,0.14,0,0.14L325.6,407.01z"/>
			<path class="st18" d="M325.6,407.01l0,69.29c0,0,0-0.05,0-0.14c0.08-2.41,2.2-35.77,60-69.14c0,0,0-34.64,0-34.64L325.6,407.01z"
				/>
		</g>
		<g>
			<polygon class="st19" points="205.6,407.01 205.6,822.75 265.6,857.39 265.6,441.66 			"/>
			<polygon class="st20" points="205.6,407.01 265.6,372.37 325.6,407.01 265.6,441.66 			"/>
		</g>
		<g>
			<path class="st21" d="M314,497.3c0-5.81-2.05-9.89-5.38-11.79c-2.8-0.36-6.1,0.4-9.64,2.44l0,0
				c-10.15,5.86-18.38,20.05-18.38,31.69v48.88l33.4-19.28L314,497.3z"/>
			<g>
				<polygon class="st20" points="280.61,568.52 280.61,571.58 317.37,550.35 314,549.24 				"/>
				<path class="st19" d="M308.63,485.51c3.32,1.9,5.38,5.97,5.38,11.79l0,51.94l3.37,1.11l0-51.94
					C317.38,490.82,313.88,486.19,308.63,485.51z"/>
			</g>
		</g>
		<path class="st19" d="M385.6,684.15c0,0-120-61.07-120,69.3c0,0,0-173.22,0-173.22l120.01,69.28L385.6,684.15z"/>
		<polygon class="st20" points="265.6,372.37 325.6,407.01 385.57,372.39 385.52,303.13 		"/>
		<polygon class="st18" points="329.78,340.22 329.76,265.94 334.11,263.43 334.11,263.43 334.11,337.71 		"/>
		<polygon class="st19" points="329.78,340.22 329.76,265.94 325.46,263.43 325.46,337.72 		"/>
		<polygon class="st19" points="385.45,372.36 385.44,298.09 381.13,295.58 381.13,369.86 		"/>
		
			<linearGradient id="SVGID_00000133508145804786832090000016698926579533159072_" gradientUnits="userSpaceOnUse" x1="351.126" y1="283.2625" x2="396.1253" y2="205.3215">
			<stop  offset="0" style="stop-color:#22D3A1"/>
			<stop  offset="0.9944" style="stop-color:#141F0D"/>
		</linearGradient>
		<path style="fill:url(#SVGID_00000133508145804786832090000016698926579533159072_);" d="M316.83,263.43
			c0,0,68.59-29.62,68.61-64.28c0.02-0.01,0,103.92,0,103.92L316.83,263.43z"/>
		<polygon class="st20" points="325.6,545.59 265.6,580.23 385.6,649.52 385.61,649.52 385.6,580.23 		"/>
		<polygon class="st20" points="385.61,649.52 385.61,649.52 385.61,684.16 		"/>
		<polygon class="st20" points="385.61,580.12 385.6,580.23 385.61,580.23 		"/>
		
			<rect x="385.6" y="580.23" transform="matrix(0.8654 -0.501 0.501 0.8654 -256.182 275.9483)" class="st20" width="0" height="69.29"/>
	</g>
	<g class="st1">
		<g>
			<polygon class="st19" points="505.61,857.39 505.6,440.92 445.6,406.27 445.6,407.01 445.6,407.01 445.6,466.31 445.6,822.75 			
				"/>
			<path class="st19" d="M445.6,407.01l-60-34.64l0,34.64c60,34.65,60,69.29,60,69.29l0-9.99L445.6,407.01L445.6,407.01z"/>
		</g>
		<polygon class="st20" points="445.6,407.01 505.6,371.63 565.61,407.01 505.61,441.66 		"/>
		<g>
			<path class="st21" d="M457.21,497.33c0-5.81,2.05-9.89,5.38-11.79c2.8-0.36,6.1,0.4,9.64,2.44l0,0
				c10.15,5.86,18.38,20.05,18.38,31.69v48.88l-33.4-19.28L457.21,497.33z"/>
			<g>
				<polygon class="st20" points="490.61,568.56 490.61,571.61 453.84,550.38 457.21,549.28 				"/>
				<path class="st18" d="M462.58,485.55c-3.32,1.9-5.38,5.97-5.38,11.79l0,51.94l-3.37,1.11l0-51.94
					C453.84,490.86,457.34,486.23,462.58,485.55z"/>
			</g>
		</g>
		<polygon class="st20" points="385.6,303.08 385.52,303.13 385.57,372.39 385.6,372.37 445.6,407.01 505.6,371.63 		"/>
		<path class="st18" d="M565.61,822.75l0-416.48l-60,34.65l0,139.32l-120,69.28l0.01,34.64c0,0,119.87-61,120,69.09l0,104.14
			L565.61,822.75z"/>
		<polygon class="st18" points="385.45,372.36 385.44,298.09 389.79,295.58 389.79,295.58 389.79,369.86 		"/>
		<polygon class="st18" points="441.13,340.22 441.11,265.94 445.46,263.43 445.46,263.43 445.46,337.71 		"/>
		<polygon class="st19" points="441.13,340.22 441.11,265.94 436.8,263.43 436.8,337.72 		"/>
		
			<linearGradient id="SVGID_00000047770136772864819300000008727643692030147202_" gradientUnits="userSpaceOnUse" x1="374.8717" y1="205.2516" x2="419.9391" y2="283.3105">
			<stop  offset="0" style="stop-color:#0C1310"/>
			<stop  offset="1" style="stop-color:#82D1B8"/>
		</linearGradient>
		<path style="fill:url(#SVGID_00000047770136772864819300000008727643692030147202_);" d="M385.44,303.07l68.93-39.64
			c0,0-68.95-29.62-68.93-64.28V303.07z"/>
		<polygon class="st20" points="505.6,580.23 445.6,545.59 385.61,580.23 385.61,649.52 		"/>
	</g>
</g>
<g id="L_00000139977760153385702830000001766409031610678184_" class="st0">
	<g>
		<polygon class="st24" points="685.6,718.82 685.6,677.67 685.6,545.59 685.62,545.59 685.6,476.3 625.59,441.67 625.59,510.97 
			625.6,510.98 625.6,822.73 685.6,857.38 685.6,857.38 685.6,719.04 		"/>
		<polygon class="st25" points="625.62,441.66 685.65,407.01 745.63,441.66 685.63,476.29 		"/>
		<polygon class="st26" points="745.61,510.95 745.6,510.95 745.61,441.67 685.61,476.3 685.64,545.57 685.6,545.59 685.6,857.38 
			745.61,822.73 		"/>
		<polygon class="st3" points="745.55,753.49 685.55,718.84 685.54,649.57 685.54,718.85 		"/>
		<g class="st1">
			<g>
				<polygon class="st27" points="639.78,441.4 639.78,428.19 685.53,454.61 685.53,467.82 				"/>
				
					<linearGradient id="SVGID_00000073706168421407071720000001599161774674150551_" gradientUnits="userSpaceOnUse" x1="705.5413" y1="443.0498" x2="711.2615" y2="452.9576">
					<stop  offset="0" style="stop-color:#0C1310"/>
					<stop  offset="1" style="stop-color:#82D1B8"/>
				</linearGradient>
				<polygon style="fill:url(#SVGID_00000073706168421407071720000001599161774674150551_);" points="731.28,441.4 731.28,428.19 
					685.53,454.61 685.53,467.82 				"/>
				<polygon class="st20" points="639.78,428.19 685.53,401.78 731.28,428.19 685.53,454.61 				"/>
			</g>
			<g>
				<polygon class="st27" points="651.74,427.56 651.74,417.8 685.57,437.33 685.57,447.09 				"/>
				
					<linearGradient id="SVGID_00000129163470738415097040000014286156103429625524_" gradientUnits="userSpaceOnUse" x1="700.3643" y1="428.7845" x2="704.5932" y2="436.1094">
					<stop  offset="0" style="stop-color:#0C1310"/>
					<stop  offset="1" style="stop-color:#82D1B8"/>
				</linearGradient>
				<polygon style="fill:url(#SVGID_00000129163470738415097040000014286156103429625524_);" points="719.39,427.56 719.39,417.8 
					685.57,437.33 685.57,447.09 				"/>
				<polygon class="st20" points="651.74,417.8 685.57,398.27 719.39,417.8 685.57,437.33 				"/>
			</g>
			
				<linearGradient id="SVGID_00000173840319805324514810000014777836188886629534_" gradientUnits="userSpaceOnUse" x1="660.1136" y1="400.3102" x2="660.1136" y2="400.3102">
				<stop  offset="0" style="stop-color:#0C1310"/>
				<stop  offset="1" style="stop-color:#82D1B8"/>
			</linearGradient>
			<path style="fill:url(#SVGID_00000173840319805324514810000014777836188886629534_);" d="M660.11,400.31"/>
		</g>
		<g class="st1">
			<polygon class="st18" points="629.87,444.2 629.85,369.93 634.2,367.42 634.2,367.42 634.2,441.7 			"/>
			<polygon class="st19" points="629.87,444.2 629.85,369.93 625.55,367.42 625.55,441.7 			"/>
			<polygon class="st18" points="685.54,476.35 685.53,402.07 689.87,399.56 689.87,399.56 689.87,473.85 			"/>
			<polygon class="st19" points="685.54,476.35 685.53,402.07 681.22,399.56 681.22,473.85 			"/>
			<polygon class="st18" points="741.22,444.2 741.2,369.93 745.55,367.42 745.55,367.42 745.55,441.7 			"/>
			<polygon class="st19" points="741.22,444.2 741.2,369.93 736.89,367.42 736.89,441.7 			"/>
			
				<linearGradient id="SVGID_00000136383571478858328140000017151784374972818574_" gradientUnits="userSpaceOnUse" x1="651.2144" y1="387.2492" x2="696.2136" y2="309.3083">
				<stop  offset="0" style="stop-color:#22D3A1"/>
				<stop  offset="0.9944" style="stop-color:#141F0D"/>
			</linearGradient>
			<path style="fill:url(#SVGID_00000136383571478858328140000017151784374972818574_);" d="M616.92,367.42
				c0,0,68.59-29.62,68.61-64.28c0.02-0.01,0,103.92,0,103.92L616.92,367.42z"/>
			
				<linearGradient id="SVGID_00000142150911586024825700000007377767737486376085_" gradientUnits="userSpaceOnUse" x1="674.9601" y1="309.2384" x2="720.0275" y2="387.2973">
				<stop  offset="0" style="stop-color:#0C1310"/>
				<stop  offset="1" style="stop-color:#82D1B8"/>
			</linearGradient>
			<path style="fill:url(#SVGID_00000142150911586024825700000007377767737486376085_);" d="M685.53,407.06l68.93-39.64
				c0,0-68.95-29.62-68.93-64.28V407.06z"/>
		</g>
		<g class="st1">
			<g>
				<g>
					<polygon class="st20" points="644.04,748.37 663.29,759.49 659.44,761.71 640.19,750.59 					"/>
					<polygon class="st19" points="644.04,748.37 644.04,743.92 663.29,755.04 663.29,759.49 					"/>
					<polygon class="st18" points="640.19,750.59 640.19,746.15 644.04,743.92 644.04,748.37 					"/>
				</g>
			</g>
			<g>
				<g>
					<polygon class="st20" points="644.04,733.37 663.29,744.49 659.44,746.71 640.19,735.59 					"/>
					<polygon class="st19" points="644.04,733.37 644.04,728.92 663.29,740.04 663.29,744.49 					"/>
					<polygon class="st18" points="640.19,735.59 640.19,731.15 644.04,728.92 644.04,733.37 					"/>
				</g>
			</g>
			<g>
				<g>
					<polygon class="st20" points="644.04,718.37 663.29,729.49 659.44,731.71 640.19,720.59 					"/>
					<polygon class="st19" points="644.04,718.37 644.04,713.92 663.29,725.04 663.29,729.49 					"/>
					<polygon class="st18" points="640.19,720.59 640.19,716.15 644.04,713.92 644.04,718.37 					"/>
				</g>
			</g>
			<g>
				<g>
					<polygon class="st20" points="644.04,703.37 663.29,714.49 659.44,716.71 640.19,705.59 					"/>
					<polygon class="st19" points="644.04,703.37 644.04,698.92 663.29,710.04 663.29,714.49 					"/>
					<polygon class="st18" points="640.19,705.59 640.19,701.15 644.04,698.92 644.04,703.37 					"/>
				</g>
			</g>
			<g>
				<g>
					<polygon class="st20" points="644.04,688.37 663.29,699.49 659.44,701.71 640.19,690.59 					"/>
					<polygon class="st19" points="644.04,688.37 644.04,683.92 663.29,695.04 663.29,699.49 					"/>
					<polygon class="st18" points="640.19,690.59 640.19,686.15 644.04,683.92 644.04,688.37 					"/>
				</g>
			</g>
			<g>
				<g>
					<polygon class="st20" points="644.04,673.37 663.29,684.49 659.44,686.71 640.19,675.59 					"/>
					<polygon class="st19" points="644.04,673.37 644.04,668.92 663.29,680.04 663.29,684.49 					"/>
					<polygon class="st18" points="640.19,675.59 640.19,671.15 644.04,668.92 644.04,673.37 					"/>
				</g>
			</g>
			<g>
				<g>
					<polygon class="st20" points="644.04,658.37 663.29,669.49 659.44,671.71 640.19,660.59 					"/>
					<polygon class="st19" points="644.04,658.37 644.04,653.92 663.29,665.04 663.29,669.49 					"/>
					<polygon class="st18" points="640.19,660.59 640.19,656.15 644.04,653.92 644.04,658.37 					"/>
				</g>
			</g>
			<g>
				<g>
					<polygon class="st20" points="644.04,643.37 663.29,654.49 659.44,656.71 640.19,645.59 					"/>
					<polygon class="st19" points="644.04,643.37 644.04,638.92 663.29,650.04 663.29,654.49 					"/>
					<polygon class="st18" points="640.19,645.59 640.19,641.15 644.04,638.92 644.04,643.37 					"/>
				</g>
			</g>
			<g>
				<g>
					<polygon class="st20" points="644.04,628.37 663.29,639.49 659.44,641.71 640.19,630.59 					"/>
					<polygon class="st19" points="644.04,628.37 644.04,623.92 663.29,635.04 663.29,639.49 					"/>
					<polygon class="st18" points="640.19,630.59 640.19,626.15 644.04,623.92 644.04,628.37 					"/>
				</g>
			</g>
			<g>
				<g>
					<polygon class="st20" points="644.04,613.37 663.29,624.49 659.44,626.71 640.19,615.59 					"/>
					<polygon class="st19" points="644.04,613.37 644.04,608.92 663.29,620.04 663.29,624.49 					"/>
					<polygon class="st18" points="640.19,615.59 640.19,611.15 644.04,608.92 644.04,613.37 					"/>
				</g>
			</g>
			<g>
				<g>
					<polygon class="st20" points="644.04,598.37 663.29,609.49 659.44,611.71 640.19,600.59 					"/>
					<polygon class="st19" points="644.04,598.37 644.04,593.92 663.29,605.04 663.29,609.49 					"/>
					<polygon class="st18" points="640.19,600.59 640.19,596.15 644.04,593.92 644.04,598.37 					"/>
				</g>
			</g>
			<g>
				<g>
					<polygon class="st20" points="644.04,583.37 663.29,594.49 659.44,596.71 640.19,585.59 					"/>
					<polygon class="st19" points="644.04,583.37 644.04,578.92 663.29,590.04 663.29,594.49 					"/>
					<polygon class="st18" points="640.19,585.59 640.19,581.15 644.04,578.92 644.04,583.37 					"/>
				</g>
			</g>
			<g>
				<g>
					<polygon class="st20" points="644.04,568.37 663.29,579.49 659.44,581.71 640.19,570.59 					"/>
					<polygon class="st19" points="644.04,568.37 644.04,563.92 663.29,575.04 663.29,579.49 					"/>
					<polygon class="st18" points="640.19,570.59 640.19,566.15 644.04,563.92 644.04,568.37 					"/>
				</g>
			</g>
			<g>
				<g>
					<polygon class="st20" points="644.04,553.37 663.29,564.49 659.44,566.71 640.19,555.59 					"/>
					<polygon class="st19" points="644.04,553.37 644.04,548.92 663.29,560.04 663.29,564.49 					"/>
					<polygon class="st18" points="640.19,555.59 640.19,551.15 644.04,548.92 644.04,553.37 					"/>
				</g>
			</g>
			<g>
				<g>
					<polygon class="st20" points="644.04,538.37 663.29,549.49 659.44,551.71 640.19,540.59 					"/>
					<polygon class="st19" points="644.04,538.37 644.04,533.92 663.29,545.04 663.29,549.49 					"/>
					<polygon class="st18" points="640.19,540.59 640.19,536.15 644.04,533.92 644.04,538.37 					"/>
				</g>
			</g>
			<g>
				<g>
					<polygon class="st20" points="644.04,523.37 663.29,534.49 659.44,536.71 640.19,525.59 					"/>
					<polygon class="st19" points="644.04,523.37 644.04,518.92 663.29,530.04 663.29,534.49 					"/>
					<polygon class="st18" points="640.19,525.59 640.19,521.15 644.04,518.92 644.04,523.37 					"/>
				</g>
			</g>
			<g>
				<g>
					<polygon class="st20" points="644.04,508.37 663.29,519.49 659.44,521.71 640.19,510.59 					"/>
					<polygon class="st19" points="644.04,508.37 644.04,503.92 663.29,515.04 663.29,519.49 					"/>
					<polygon class="st18" points="640.19,510.59 640.19,506.15 644.04,503.92 644.04,508.37 					"/>
				</g>
			</g>
			<g>
				<g>
					<polygon class="st20" points="644.04,493.37 663.29,504.49 659.44,506.71 640.19,495.59 					"/>
					<polygon class="st19" points="644.04,493.37 644.04,488.92 663.29,500.04 663.29,504.49 					"/>
					<polygon class="st18" points="640.19,495.59 640.19,491.15 644.04,488.92 644.04,493.37 					"/>
				</g>
			</g>
			<g>
				<g>
					<polygon class="st20" points="644.04,478.37 663.29,489.49 659.44,491.71 640.19,480.59 					"/>
					<polygon class="st19" points="644.04,478.37 644.04,473.92 663.29,485.04 663.29,489.49 					"/>
					<polygon class="st18" points="640.19,480.59 640.19,476.15 644.04,473.92 644.04,478.37 					"/>
				</g>
			</g>
			<g>
				<g>
					<polygon class="st20" points="644.04,463.37 663.29,474.49 659.44,476.71 640.19,465.59 					"/>
					<polygon class="st19" points="644.04,463.37 644.04,458.92 663.29,470.04 663.29,474.49 					"/>
					<polygon class="st18" points="640.19,465.59 640.19,461.15 644.04,458.92 644.04,463.37 					"/>
				</g>
			</g>
		</g>
	</g>
	<g class="st1">
		<polygon class="st20" points="865.61,822.73 805.61,788.09 805.61,788.09 745.61,753.45 685.6,788.09 745.61,822.73 
			745.61,822.73 805.61,857.38 		"/>
		<polygon class="st18" points="805.61,926.67 865.61,892.02 865.61,822.73 805.61,857.38 		"/>
		<polygon class="st19" points="745.61,822.73 685.61,788.1 685.6,719.04 685.6,857.38 745.61,892.02 805.61,926.67 805.61,857.38 
					"/>
		<path class="st19" d="M745.61,822.73c-60-34.65-60.01-103.92-60.01-103.92l0,69.29L745.61,822.73z"/>
		
			<linearGradient id="SVGID_00000175298077597598032830000005218813479021842872_" gradientUnits="userSpaceOnUse" x1="694.6897" y1="711.1924" x2="778.388" y2="810.9401">
			<stop  offset="0.2476" style="stop-color:#2C3640"/>
			<stop  offset="0.9041" style="stop-color:#9AA3A5"/>
		</linearGradient>
		<path style="fill:url(#SVGID_00000175298077597598032830000005218813479021842872_);" d="M745.61,684.17l-60.01,34.87l0.01,69.04
			l60,34.65l-60-34.65l-0.01-69.27c0,0,0.01,69.27,60.01,103.92l60-34.64C745.61,753.45,745.61,684.17,745.61,684.17z"/>
	</g>
</g>
<g id="E_00000154400240219590546890000012912177110709610379_" class="st0">
	<g id="E" class="st1">
		<g class="st0">
			<g class="st1">
				<polygon class="st20" points="925.61,407 985.61,372.36 1045.61,407 985.61,441.65 				"/>
				<polygon class="st18" points="985.61,441.65 1045.61,407 1045.61,822.74 985.61,857.38 				"/>
			</g>
			<g class="st1">
				<polygon class="st19" points="985.61,788.09 985.61,788.09 925.61,753.45 925.61,822.74 985.61,857.38 985.61,857.38 
					1045.61,892.03 1045.61,822.74 				"/>
				<polygon class="st20" points="1105.61,788.09 1045.61,753.45 1045.61,753.45 1045.61,753.45 985.61,788.09 985.61,788.09 
					985.61,788.09 1045.61,822.74 				"/>
				<polygon class="st18" points="1045.61,892.03 1105.61,857.38 1105.61,788.09 1045.61,822.74 				"/>
			</g>
			<g class="st1">
				<path class="st21" d="M1028.41,708.43c0-5.81-2.05-9.89-5.38-11.79c-2.8-0.36-6.1,0.4-9.64,2.44l0,0
					c-10.15,5.86-18.38,20.05-18.38,31.69v48.88l33.4-19.28L1028.41,708.43z"/>
				<g>
					<polygon class="st20" points="995.01,779.65 995.01,782.7 1031.78,761.48 1028.41,760.37 					"/>
					<path class="st19" d="M1023.03,696.64c3.32,1.9,5.38,5.97,5.38,11.79l0,51.94l3.37,1.11l0-51.94
						C1031.78,701.95,1028.28,697.32,1023.03,696.64z"/>
				</g>
			</g>
			<g class="st1">
				<path class="st21" d="M1026.72,536.23c0-5.81-2.05-9.89-5.38-11.79c-2.8-0.36-6.1,0.4-9.64,2.44l0,0
					c-10.15,5.86-18.38,20.05-18.38,31.69v48.88l33.4-19.28L1026.72,536.23z"/>
				<g>
					<polygon class="st20" points="993.32,607.45 993.32,610.51 1030.09,589.28 1026.72,588.17 					"/>
					<path class="st19" d="M1021.34,524.44c3.32,1.9,5.38,5.97,5.38,11.79l0,51.94l3.37,1.11l0-51.94
						C1030.09,529.75,1026.59,525.12,1021.34,524.44z"/>
				</g>
			</g>
			<g class="st1">
				<polygon class="st19" points="1045.61,649.52 1045.61,649.52 985.61,614.87 985.61,684.16 1045.61,718.8 1045.61,718.8 
					1105.61,753.45 1105.61,684.16 				"/>
				<polygon class="st20" points="1165.61,649.52 1105.61,614.87 1105.61,614.87 1045.61,580.23 985.61,614.87 1045.61,649.52 
					1045.61,649.52 1105.61,684.16 				"/>
				<polygon class="st18" points="1105.61,753.45 1165.61,718.8 1165.61,649.52 1105.61,684.16 				"/>
			</g>
			<g class="st1">
				<g>
					<polygon class="st19" points="925.61,822.74 985.61,857.38 985.61,441.65 925.61,407 					"/>
					<polygon class="st19" points="1045.61,476.29 1045.61,476.29 985.61,441.65 985.61,510.94 1045.61,545.58 1045.61,545.58 
						1105.61,580.23 1105.61,510.94 					"/>
				</g>
				<polygon class="st20" points="1165.61,476.29 1105.61,441.65 1105.61,441.65 1045.61,407 985.61,441.65 1045.61,476.29 
					1045.61,476.29 1105.61,510.94 				"/>
				<polygon class="st18" points="1105.61,580.23 1165.61,545.58 1165.61,476.29 1105.61,510.94 				"/>
			</g>
		</g>
		<g>
			<g>
				<polygon class="st18" points="1165.61,649.52 1165.61,649.52 1255.61,597.55 1255.61,666.84 1165.61,718.8 1165.61,718.8 
					1105.61,753.45 1105.61,684.16 				"/>
				<polygon class="st20" points="1045.61,649.52 1105.61,614.87 1105.61,614.87 1195.61,562.9 1255.61,597.55 1165.61,649.52 
					1165.61,649.52 1105.61,684.16 				"/>
				<polygon class="st19" points="1105.61,753.45 1045.61,718.8 1045.61,649.52 1105.61,684.16 				"/>
			</g>
			<g>
				<polygon class="st18" points="1165.61,476.29 1165.61,476.29 1255.61,424.33 1255.61,493.62 1165.61,545.58 1165.61,545.58 
					1105.61,580.23 1105.61,510.94 				"/>
				<polygon class="st20" points="1045.61,476.29 1105.61,441.65 1105.61,441.65 1195.61,389.68 1255.61,424.33 1165.61,476.29 
					1165.61,476.29 1105.61,510.94 				"/>
				<polygon class="st19" points="1105.61,580.23 1045.61,545.58 1045.61,476.29 1105.61,510.94 				"/>
			</g>
			<g>
				<polygon class="st18" points="1165.61,822.74 1165.61,822.74 1255.61,770.77 1255.61,840.06 1165.61,892.03 1165.61,892.03 
					1105.61,926.67 1105.61,857.38 				"/>
				<polygon class="st20" points="1045.61,822.74 1105.61,788.09 1105.61,788.09 1195.61,736.13 1255.61,770.77 1165.61,822.74 
					1165.61,822.74 1105.61,857.38 				"/>
				<polygon class="st19" points="1105.61,926.67 1045.61,892.03 1045.61,822.74 1105.61,857.38 				"/>
			</g>
			<g>
				<polygon class="st18" points="1049.8,478.68 1049.78,404.4 1054.13,401.89 1054.13,401.89 1054.13,476.18 				"/>
				<polygon class="st19" points="1049.8,478.68 1049.78,404.4 1045.47,401.89 1045.47,476.18 				"/>
				<polygon class="st18" points="1105.47,510.83 1105.45,436.55 1109.8,434.04 1109.8,434.04 1109.8,508.32 				"/>
				<polygon class="st19" points="1105.47,510.83 1105.45,436.55 1101.15,434.04 1101.15,508.33 				"/>
				<polygon class="st18" points="1161.14,478.68 1161.13,404.4 1165.47,401.89 1165.47,401.89 1165.47,476.18 				"/>
				<polygon class="st19" points="1161.14,478.68 1161.13,404.4 1156.82,401.89 1156.82,476.18 				"/>
				
					<linearGradient id="SVGID_00000057138928030129309380000009517372220464432041_" gradientUnits="userSpaceOnUse" x1="1071.1416" y1="421.7255" x2="1116.1409" y2="343.7846">
					<stop  offset="0" style="stop-color:#22D3A1"/>
					<stop  offset="0.9944" style="stop-color:#141F0D"/>
				</linearGradient>
				<path style="fill:url(#SVGID_00000057138928030129309380000009517372220464432041_);" d="M1036.84,401.89
					c0,0,68.59-29.62,68.61-64.28c0.02-0.01,0,103.92,0,103.92L1036.84,401.89z"/>
				
					<linearGradient id="SVGID_00000182489797019144778980000001586551162255670665_" gradientUnits="userSpaceOnUse" x1="1094.8873" y1="343.7147" x2="1139.9547" y2="421.7736">
					<stop  offset="0" style="stop-color:#0C1310"/>
					<stop  offset="1" style="stop-color:#82D1B8"/>
				</linearGradient>
				<path style="fill:url(#SVGID_00000182489797019144778980000001586551162255670665_);" d="M1105.45,441.54l68.93-39.64
					c0,0-68.95-29.62-68.93-64.28V441.54z"/>
			</g>
		</g>
	</g>
</g>
<g id="C_00000165918717436259951800000009779369807011752868_">
	<g class="st0">
		<path class="st26" d="M1405.62,788.1"/>
		<polygon class="st24" points="1405.62,857.38 1525.63,926.68 1525.63,857.38 1405.62,788.1 		"/>
		<polygon class="st26" points="1525.63,857.38 1705.63,753.45 1705.63,822.74 1525.63,926.68 		"/>
		<polygon class="st25" points="1705.63,753.45 1645.63,718.81 1525.63,788.1 1465.63,753.45 1405.62,788.1 1525.63,857.38 		"/>
		<polygon class="st24" points="1345.62,572.99 1345.62,822.74 1405.62,857.38 1405.62,788.1 1405.62,607.63 		"/>
		<polygon class="st26" points="1405.62,788.1 1465.63,753.45 1465.63,573.28 1405.62,607.63 		"/>
		<polygon class="st24" points="1345.62,572.99 1345.62,572.99 1345.62,572.99 		"/>
		<polygon class="st25" points="1345.63,573.26 1405.62,538.62 1465.6,573.28 1405.62,607.93 		"/>
	</g>
	<g>
		<polygon class="st20" points="1345.62,407.01 1525.63,303.07 1705.63,407.01 1645.63,441.65 1525.63,372.36 1405.62,441.65 		"/>
		<polygon class="st19" points="1525.63,441.65 1645.63,510.94 1645.63,441.65 1525.63,372.36 		"/>
		<polygon class="st18" points="1645.63,441.65 1705.63,407.01 1705.63,476.3 1645.63,510.94 		"/>
		<g>
			<polygon class="st18" points="1349.8,409.51 1349.78,335.23 1354.13,332.72 1354.13,332.72 1354.13,407 			"/>
			<polygon class="st19" points="1349.8,409.51 1349.78,335.23 1345.48,332.72 1345.48,407.01 			"/>
			<polygon class="st18" points="1405.47,441.65 1405.46,367.38 1409.81,364.87 1409.81,364.87 1409.81,439.15 			"/>
			<polygon class="st19" points="1405.47,441.65 1405.46,367.38 1401.15,364.87 1401.15,439.15 			"/>
			<polygon class="st18" points="1461.15,409.51 1461.13,335.23 1465.48,332.72 1465.48,332.72 1465.48,407 			"/>
			<polygon class="st19" points="1461.15,409.51 1461.13,335.23 1456.82,332.72 1456.82,407.01 			"/>
			
				<linearGradient id="SVGID_00000114765818417702568520000005969961850717273532_" gradientUnits="userSpaceOnUse" x1="1371.1462" y1="352.5515" x2="1416.1454" y2="274.6106">
				<stop  offset="0" style="stop-color:#22D3A1"/>
				<stop  offset="0.9944" style="stop-color:#141F0D"/>
			</linearGradient>
			<path style="fill:url(#SVGID_00000114765818417702568520000005969961850717273532_);" d="M1336.85,332.72
				c0,0,68.59-29.62,68.61-64.28c0.02-0.01,0,103.92,0,103.92L1336.85,332.72z"/>
			
				<linearGradient id="SVGID_00000182486449072743488370000007054304777638598844_" gradientUnits="userSpaceOnUse" x1="1394.8918" y1="274.5406" x2="1439.9592" y2="352.5996">
				<stop  offset="0" style="stop-color:#0C1310"/>
				<stop  offset="1" style="stop-color:#82D1B8"/>
			</linearGradient>
			<path style="fill:url(#SVGID_00000182486449072743488370000007054304777638598844_);" d="M1405.46,372.36l68.93-39.64
				c0,0-68.95-29.62-68.93-64.28V372.36z"/>
		</g>
		<g>
			<polygon class="st18" points="1589.81,409.51 1589.79,335.23 1594.14,332.72 1594.14,332.72 1594.14,407 			"/>
			<polygon class="st19" points="1589.81,409.51 1589.79,335.23 1585.48,332.72 1585.48,407.01 			"/>
			<polygon class="st18" points="1645.48,441.65 1645.46,367.38 1649.81,364.87 1649.81,364.87 1649.81,439.15 			"/>
			<polygon class="st19" points="1645.48,441.65 1645.46,367.38 1641.15,364.87 1641.15,439.15 			"/>
			<polygon class="st18" points="1701.15,409.51 1701.13,335.23 1705.48,332.72 1705.48,332.72 1705.48,407 			"/>
			<polygon class="st19" points="1701.15,409.51 1701.13,335.23 1696.83,332.72 1696.83,407.01 			"/>
			
				<linearGradient id="SVGID_00000052786203286599488730000002385123541328633262_" gradientUnits="userSpaceOnUse" x1="1611.1499" y1="352.5515" x2="1656.149" y2="274.6106">
				<stop  offset="0" style="stop-color:#22D3A1"/>
				<stop  offset="0.9944" style="stop-color:#141F0D"/>
			</linearGradient>
			<path style="fill:url(#SVGID_00000052786203286599488730000002385123541328633262_);" d="M1576.85,332.72
				c0,0,68.59-29.62,68.61-64.28c0.02-0.01,0,103.92,0,103.92L1576.85,332.72z"/>
			
				<linearGradient id="SVGID_00000049924114448801516500000004280622015723690399_" gradientUnits="userSpaceOnUse" x1="1634.8955" y1="274.5406" x2="1679.9629" y2="352.5996">
				<stop  offset="0" style="stop-color:#0C1310"/>
				<stop  offset="1" style="stop-color:#82D1B8"/>
			</linearGradient>
			<path style="fill:url(#SVGID_00000049924114448801516500000004280622015723690399_);" d="M1645.46,372.36l68.93-39.64
				c0,0-68.95-29.62-68.93-64.28V372.36z"/>
		</g>
		<g>
			<g>
				<g>
					<g>
						<polygon class="st20" points="1529.3,785.51 1538.88,779.98 1548.46,785.51 1538.88,791.04 						"/>
						<polygon class="st19" points="1529.3,785.51 1529.3,802.1 1538.88,807.63 1538.88,791.04 						"/>
						<polygon class="st18" points="1538.88,791.04 1548.46,785.51 1548.46,802.1 1538.88,807.63 						"/>
					</g>
					<g>
						<polygon class="st18" points="1560.43,806.25 1565.22,803.48 1565.22,809.01 1560.43,811.78 						"/>
						<polygon class="st20" points="1541.27,795.18 1546.06,792.42 1565.22,803.48 1560.43,806.25 						"/>
						<polygon class="st19" points="1541.27,800.72 1560.43,811.78 1560.43,806.25 1541.27,795.18 						"/>
					</g>
					<g>
						<polygon class="st20" points="1558.03,802.1 1567.61,796.57 1577.19,802.1 1567.61,807.63 						"/>
						<polygon class="st19" points="1558.03,802.1 1558.03,818.69 1567.61,824.22 1567.61,807.63 						"/>
						<polygon class="st18" points="1567.61,807.63 1577.19,802.1 1577.19,818.69 1567.61,824.22 						"/>
					</g>
				</g>
			</g>
			<g>
				<g>
					<g>
						<polygon class="st20" points="1529.3,769.51 1538.88,763.98 1548.46,769.51 1538.88,775.04 						"/>
						<polygon class="st19" points="1529.3,769.51 1529.3,786.1 1538.88,791.63 1538.88,775.04 						"/>
						<polygon class="st18" points="1538.88,775.04 1548.46,769.51 1548.46,786.1 1538.88,791.63 						"/>
					</g>
					<g>
						<polygon class="st18" points="1560.43,790.25 1565.22,787.48 1565.22,793.01 1560.43,795.78 						"/>
						<polygon class="st20" points="1541.27,779.18 1546.06,776.42 1565.22,787.48 1560.43,790.25 						"/>
						<polygon class="st19" points="1541.27,784.72 1560.43,795.78 1560.43,790.25 1541.27,779.18 						"/>
					</g>
					<g>
						<polygon class="st20" points="1558.03,786.1 1567.61,780.57 1577.19,786.1 1567.61,791.63 						"/>
						<polygon class="st19" points="1558.03,786.1 1558.03,802.69 1567.61,808.22 1567.61,791.63 						"/>
						<polygon class="st18" points="1567.61,791.63 1577.19,786.1 1577.19,802.69 1567.61,808.22 						"/>
					</g>
				</g>
			</g>
			<g>
				<g>
					<g>
						<polygon class="st20" points="1529.3,753.51 1538.88,747.98 1548.46,753.51 1538.88,759.04 						"/>
						<polygon class="st19" points="1529.3,753.51 1529.3,770.1 1538.88,775.63 1538.88,759.04 						"/>
						<polygon class="st18" points="1538.88,759.04 1548.46,753.51 1548.46,770.1 1538.88,775.63 						"/>
					</g>
					<g>
						<polygon class="st18" points="1560.43,774.25 1565.22,771.48 1565.22,777.01 1560.43,779.78 						"/>
						<polygon class="st20" points="1541.27,763.18 1546.06,760.42 1565.22,771.48 1560.43,774.25 						"/>
						<polygon class="st19" points="1541.27,768.72 1560.43,779.78 1560.43,774.25 1541.27,763.18 						"/>
					</g>
					<g>
						<polygon class="st20" points="1558.03,770.1 1567.61,764.57 1577.19,770.1 1567.61,775.63 						"/>
						<polygon class="st19" points="1558.03,770.1 1558.03,786.69 1567.61,792.22 1567.61,775.63 						"/>
						<polygon class="st18" points="1567.61,775.63 1577.19,770.1 1577.19,786.69 1567.61,792.22 						"/>
					</g>
				</g>
			</g>
			<g>
				<g>
					<g>
						<polygon class="st20" points="1529.3,737.51 1538.88,731.98 1548.46,737.51 1538.88,743.04 						"/>
						<polygon class="st19" points="1529.3,737.51 1529.3,754.1 1538.88,759.63 1538.88,743.04 						"/>
						<polygon class="st18" points="1538.88,743.04 1548.46,737.51 1548.46,754.1 1538.88,759.63 						"/>
					</g>
					<g>
						<polygon class="st18" points="1560.43,758.25 1565.22,755.48 1565.22,761.01 1560.43,763.78 						"/>
						<polygon class="st20" points="1541.27,747.18 1546.06,744.42 1565.22,755.48 1560.43,758.25 						"/>
						<polygon class="st19" points="1541.27,752.72 1560.43,763.78 1560.43,758.25 1541.27,747.18 						"/>
					</g>
					<g>
						<polygon class="st20" points="1558.03,754.1 1567.61,748.57 1577.19,754.1 1567.61,759.63 						"/>
						<polygon class="st19" points="1558.03,754.1 1558.03,770.69 1567.61,776.22 1567.61,759.63 						"/>
						<polygon class="st18" points="1567.61,759.63 1577.19,754.1 1577.19,770.69 1567.61,776.22 						"/>
					</g>
				</g>
			</g>
			<g>
				<g>
					<g>
						<polygon class="st20" points="1529.3,721.51 1538.88,715.98 1548.46,721.51 1538.88,727.04 						"/>
						<polygon class="st19" points="1529.3,721.51 1529.3,738.1 1538.88,743.63 1538.88,727.04 						"/>
						<polygon class="st18" points="1538.88,727.04 1548.46,721.51 1548.46,738.1 1538.88,743.63 						"/>
					</g>
					<g>
						<polygon class="st18" points="1560.43,742.25 1565.22,739.48 1565.22,745.01 1560.43,747.78 						"/>
						<polygon class="st20" points="1541.27,731.18 1546.06,728.42 1565.22,739.48 1560.43,742.25 						"/>
						<polygon class="st19" points="1541.27,736.72 1560.43,747.78 1560.43,742.25 1541.27,731.18 						"/>
					</g>
					<g>
						<polygon class="st20" points="1558.03,738.1 1567.61,732.57 1577.19,738.1 1567.61,743.63 						"/>
						<polygon class="st19" points="1558.03,738.1 1558.03,754.69 1567.61,760.22 1567.61,743.63 						"/>
						<polygon class="st18" points="1567.61,743.63 1577.19,738.1 1577.19,754.69 1567.61,760.22 						"/>
					</g>
				</g>
			</g>
			<g>
				<g>
					<g>
						<polygon class="st20" points="1529.3,705.51 1538.88,699.98 1548.46,705.51 1538.88,711.04 						"/>
						<polygon class="st19" points="1529.3,705.51 1529.3,722.1 1538.88,727.63 1538.88,711.04 						"/>
						<polygon class="st18" points="1538.88,711.04 1548.46,705.51 1548.46,722.1 1538.88,727.63 						"/>
					</g>
					<g>
						<polygon class="st18" points="1560.43,726.25 1565.22,723.48 1565.22,729.01 1560.43,731.78 						"/>
						<polygon class="st20" points="1541.27,715.18 1546.06,712.42 1565.22,723.48 1560.43,726.25 						"/>
						<polygon class="st19" points="1541.27,720.72 1560.43,731.78 1560.43,726.25 1541.27,715.18 						"/>
					</g>
					<g>
						<polygon class="st20" points="1558.03,722.1 1567.61,716.57 1577.19,722.1 1567.61,727.63 						"/>
						<polygon class="st19" points="1558.03,722.1 1558.03,738.69 1567.61,744.22 1567.61,727.63 						"/>
						<polygon class="st18" points="1567.61,727.63 1577.19,722.1 1577.19,738.69 1567.61,744.22 						"/>
					</g>
				</g>
			</g>
			<g>
				<g>
					<g>
						<polygon class="st20" points="1529.3,689.51 1538.88,683.98 1548.46,689.51 1538.88,695.04 						"/>
						<polygon class="st19" points="1529.3,689.51 1529.3,706.1 1538.88,711.63 1538.88,695.04 						"/>
						<polygon class="st18" points="1538.88,695.04 1548.46,689.51 1548.46,706.1 1538.88,711.63 						"/>
					</g>
					<g>
						<polygon class="st18" points="1560.43,710.25 1565.22,707.48 1565.22,713.01 1560.43,715.78 						"/>
						<polygon class="st20" points="1541.27,699.18 1546.06,696.42 1565.22,707.48 1560.43,710.25 						"/>
						<polygon class="st19" points="1541.27,704.72 1560.43,715.78 1560.43,710.25 1541.27,699.18 						"/>
					</g>
					<g>
						<polygon class="st20" points="1558.03,706.1 1567.61,700.57 1577.19,706.1 1567.61,711.63 						"/>
						<polygon class="st19" points="1558.03,706.1 1558.03,722.69 1567.61,728.22 1567.61,711.63 						"/>
						<polygon class="st18" points="1567.61,711.63 1577.19,706.1 1577.19,722.69 1567.61,728.22 						"/>
					</g>
				</g>
			</g>
			<g>
				<g>
					<g>
						<polygon class="st20" points="1529.3,673.51 1538.88,667.98 1548.46,673.51 1538.88,679.04 						"/>
						<polygon class="st19" points="1529.3,673.51 1529.3,690.1 1538.88,695.63 1538.88,679.04 						"/>
						<polygon class="st18" points="1538.88,679.04 1548.46,673.51 1548.46,690.1 1538.88,695.63 						"/>
					</g>
					<g>
						<polygon class="st18" points="1560.43,694.25 1565.22,691.48 1565.22,697.01 1560.43,699.78 						"/>
						<polygon class="st20" points="1541.27,683.18 1546.06,680.42 1565.22,691.48 1560.43,694.25 						"/>
						<polygon class="st19" points="1541.27,688.72 1560.43,699.78 1560.43,694.25 1541.27,683.18 						"/>
					</g>
					<g>
						<polygon class="st20" points="1558.03,690.1 1567.61,684.57 1577.19,690.1 1567.61,695.63 						"/>
						<polygon class="st19" points="1558.03,690.1 1558.03,706.69 1567.61,712.22 1567.61,695.63 						"/>
						<polygon class="st18" points="1567.61,695.63 1577.19,690.1 1577.19,706.69 1567.61,712.22 						"/>
					</g>
				</g>
			</g>
			<g>
				<g>
					<g>
						<polygon class="st20" points="1529.3,657.51 1538.88,651.98 1548.46,657.51 1538.88,663.04 						"/>
						<polygon class="st19" points="1529.3,657.51 1529.3,674.1 1538.88,679.63 1538.88,663.04 						"/>
						<polygon class="st18" points="1538.88,663.04 1548.46,657.51 1548.46,674.1 1538.88,679.63 						"/>
					</g>
					<g>
						<polygon class="st18" points="1560.43,678.25 1565.22,675.48 1565.22,681.01 1560.43,683.78 						"/>
						<polygon class="st20" points="1541.27,667.18 1546.06,664.42 1565.22,675.48 1560.43,678.25 						"/>
						<polygon class="st19" points="1541.27,672.72 1560.43,683.78 1560.43,678.25 1541.27,667.18 						"/>
					</g>
					<g>
						<polygon class="st20" points="1558.03,674.1 1567.61,668.57 1577.19,674.1 1567.61,679.63 						"/>
						<polygon class="st19" points="1558.03,674.1 1558.03,690.69 1567.61,696.22 1567.61,679.63 						"/>
						<polygon class="st18" points="1567.61,679.63 1577.19,674.1 1577.19,690.69 1567.61,696.22 						"/>
					</g>
				</g>
			</g>
			<g>
				<g>
					<g>
						<polygon class="st20" points="1529.3,641.51 1538.88,635.98 1548.46,641.51 1538.88,647.04 						"/>
						<polygon class="st19" points="1529.3,641.51 1529.3,658.1 1538.88,663.63 1538.88,647.04 						"/>
						<polygon class="st18" points="1538.88,647.04 1548.46,641.51 1548.46,658.1 1538.88,663.63 						"/>
					</g>
					<g>
						<polygon class="st18" points="1560.43,662.25 1565.22,659.48 1565.22,665.01 1560.43,667.78 						"/>
						<polygon class="st20" points="1541.27,651.18 1546.06,648.42 1565.22,659.48 1560.43,662.25 						"/>
						<polygon class="st19" points="1541.27,656.72 1560.43,667.78 1560.43,662.25 1541.27,651.18 						"/>
					</g>
					<g>
						<polygon class="st20" points="1558.03,658.1 1567.61,652.57 1577.19,658.1 1567.61,663.63 						"/>
						<polygon class="st19" points="1558.03,658.1 1558.03,674.69 1567.61,680.22 1567.61,663.63 						"/>
						<polygon class="st18" points="1567.61,663.63 1577.19,658.1 1577.19,674.69 1567.61,680.22 						"/>
					</g>
				</g>
			</g>
			<g>
				<g>
					<g>
						<polygon class="st20" points="1529.3,625.51 1538.88,619.98 1548.46,625.51 1538.88,631.04 						"/>
						<polygon class="st19" points="1529.3,625.51 1529.3,642.1 1538.88,647.63 1538.88,631.04 						"/>
						<polygon class="st18" points="1538.88,631.04 1548.46,625.51 1548.46,642.1 1538.88,647.63 						"/>
					</g>
					<g>
						<polygon class="st18" points="1560.43,646.25 1565.22,643.48 1565.22,649.01 1560.43,651.78 						"/>
						<polygon class="st20" points="1541.27,635.18 1546.06,632.42 1565.22,643.48 1560.43,646.25 						"/>
						<polygon class="st19" points="1541.27,640.72 1560.43,651.78 1560.43,646.25 1541.27,635.18 						"/>
					</g>
					<g>
						<polygon class="st20" points="1558.03,642.1 1567.61,636.57 1577.19,642.1 1567.61,647.63 						"/>
						<polygon class="st19" points="1558.03,642.1 1558.03,658.69 1567.61,664.22 1567.61,647.63 						"/>
						<polygon class="st18" points="1567.61,647.63 1577.19,642.1 1577.19,658.69 1567.61,664.22 						"/>
					</g>
				</g>
			</g>
			<g>
				<g>
					<g>
						<polygon class="st20" points="1529.3,609.51 1538.88,603.98 1548.46,609.51 1538.88,615.04 						"/>
						<polygon class="st19" points="1529.3,609.51 1529.3,626.1 1538.88,631.63 1538.88,615.04 						"/>
						<polygon class="st18" points="1538.88,615.04 1548.46,609.51 1548.46,626.1 1538.88,631.63 						"/>
					</g>
					<g>
						<polygon class="st18" points="1560.43,630.25 1565.22,627.48 1565.22,633.01 1560.43,635.78 						"/>
						<polygon class="st20" points="1541.27,619.18 1546.06,616.42 1565.22,627.48 1560.43,630.25 						"/>
						<polygon class="st19" points="1541.27,624.72 1560.43,635.78 1560.43,630.25 1541.27,619.18 						"/>
					</g>
					<g>
						<polygon class="st20" points="1558.03,626.1 1567.61,620.57 1577.19,626.1 1567.61,631.63 						"/>
						<polygon class="st19" points="1558.03,626.1 1558.03,642.69 1567.61,648.22 1567.61,631.63 						"/>
						<polygon class="st18" points="1567.61,631.63 1577.19,626.1 1577.19,642.69 1567.61,648.22 						"/>
					</g>
				</g>
			</g>
			<g>
				<g>
					<g>
						<polygon class="st20" points="1529.3,593.51 1538.88,587.98 1548.46,593.51 1538.88,599.04 						"/>
						<polygon class="st19" points="1529.3,593.51 1529.3,610.1 1538.88,615.63 1538.88,599.04 						"/>
						<polygon class="st18" points="1538.88,599.04 1548.46,593.51 1548.46,610.1 1538.88,615.63 						"/>
					</g>
					<g>
						<polygon class="st18" points="1560.43,614.25 1565.22,611.48 1565.22,617.01 1560.43,619.78 						"/>
						<polygon class="st20" points="1541.27,603.18 1546.06,600.42 1565.22,611.48 1560.43,614.25 						"/>
						<polygon class="st19" points="1541.27,608.72 1560.43,619.78 1560.43,614.25 1541.27,603.18 						"/>
					</g>
					<g>
						<polygon class="st20" points="1558.03,610.1 1567.61,604.57 1577.19,610.1 1567.61,615.63 						"/>
						<polygon class="st19" points="1558.03,610.1 1558.03,626.69 1567.61,632.22 1567.61,615.63 						"/>
						<polygon class="st18" points="1567.61,615.63 1577.19,610.1 1577.19,626.69 1567.61,632.22 						"/>
					</g>
				</g>
			</g>
			<g>
				<g>
					<g>
						<polygon class="st20" points="1529.3,577.51 1538.88,571.98 1548.46,577.51 1538.88,583.04 						"/>
						<polygon class="st19" points="1529.3,577.51 1529.3,594.1 1538.88,599.63 1538.88,583.04 						"/>
						<polygon class="st18" points="1538.88,583.04 1548.46,577.51 1548.46,594.1 1538.88,599.63 						"/>
					</g>
					<g>
						<polygon class="st18" points="1560.43,598.25 1565.22,595.48 1565.22,601.01 1560.43,603.78 						"/>
						<polygon class="st20" points="1541.27,587.18 1546.06,584.42 1565.22,595.48 1560.43,598.25 						"/>
						<polygon class="st19" points="1541.27,592.72 1560.43,603.78 1560.43,598.25 1541.27,587.18 						"/>
					</g>
					<g>
						<polygon class="st20" points="1558.03,594.1 1567.61,588.57 1577.19,594.1 1567.61,599.63 						"/>
						<polygon class="st19" points="1558.03,594.1 1558.03,610.69 1567.61,616.22 1567.61,599.63 						"/>
						<polygon class="st18" points="1567.61,599.63 1577.19,594.1 1577.19,610.69 1567.61,616.22 						"/>
					</g>
				</g>
			</g>
			<g>
				<g>
					<g>
						<polygon class="st20" points="1529.3,561.51 1538.88,555.98 1548.46,561.51 1538.88,567.04 						"/>
						<polygon class="st19" points="1529.3,561.51 1529.3,578.1 1538.88,583.63 1538.88,567.04 						"/>
						<polygon class="st18" points="1538.88,567.04 1548.46,561.51 1548.46,578.1 1538.88,583.63 						"/>
					</g>
					<g>
						<polygon class="st18" points="1560.43,582.25 1565.22,579.48 1565.22,585.01 1560.43,587.78 						"/>
						<polygon class="st20" points="1541.27,571.18 1546.06,568.42 1565.22,579.48 1560.43,582.25 						"/>
						<polygon class="st19" points="1541.27,576.72 1560.43,587.78 1560.43,582.25 1541.27,571.18 						"/>
					</g>
					<g>
						<polygon class="st20" points="1558.03,578.1 1567.61,572.57 1577.19,578.1 1567.61,583.63 						"/>
						<polygon class="st19" points="1558.03,578.1 1558.03,594.69 1567.61,600.22 1567.61,583.63 						"/>
						<polygon class="st18" points="1567.61,583.63 1577.19,578.1 1577.19,594.69 1567.61,600.22 						"/>
					</g>
				</g>
			</g>
			<g>
				<g>
					<g>
						<polygon class="st20" points="1529.3,545.51 1538.88,539.98 1548.46,545.51 1538.88,551.04 						"/>
						<polygon class="st19" points="1529.3,545.51 1529.3,562.1 1538.88,567.63 1538.88,551.04 						"/>
						<polygon class="st18" points="1538.88,551.04 1548.46,545.51 1548.46,562.1 1538.88,567.63 						"/>
					</g>
					<g>
						<polygon class="st18" points="1560.43,566.25 1565.22,563.48 1565.22,569.01 1560.43,571.78 						"/>
						<polygon class="st20" points="1541.27,555.18 1546.06,552.42 1565.22,563.48 1560.43,566.25 						"/>
						<polygon class="st19" points="1541.27,560.72 1560.43,571.78 1560.43,566.25 1541.27,555.18 						"/>
					</g>
					<g>
						<polygon class="st20" points="1558.03,562.1 1567.61,556.57 1577.19,562.1 1567.61,567.63 						"/>
						<polygon class="st19" points="1558.03,562.1 1558.03,578.69 1567.61,584.22 1567.61,567.63 						"/>
						<polygon class="st18" points="1567.61,567.63 1577.19,562.1 1577.19,578.69 1567.61,584.22 						"/>
					</g>
				</g>
			</g>
			<g>
				<g>
					<g>
						<polygon class="st20" points="1529.3,529.51 1538.88,523.98 1548.46,529.51 1538.88,535.04 						"/>
						<polygon class="st19" points="1529.3,529.51 1529.3,546.1 1538.88,551.63 1538.88,535.04 						"/>
						<polygon class="st18" points="1538.88,535.04 1548.46,529.51 1548.46,546.1 1538.88,551.63 						"/>
					</g>
					<g>
						<polygon class="st18" points="1560.43,550.25 1565.22,547.48 1565.22,553.01 1560.43,555.78 						"/>
						<polygon class="st20" points="1541.27,539.18 1546.06,536.42 1565.22,547.48 1560.43,550.25 						"/>
						<polygon class="st19" points="1541.27,544.72 1560.43,555.78 1560.43,550.25 1541.27,539.18 						"/>
					</g>
					<g>
						<polygon class="st20" points="1558.03,546.1 1567.61,540.57 1577.19,546.1 1567.61,551.63 						"/>
						<polygon class="st19" points="1558.03,546.1 1558.03,562.69 1567.61,568.22 1567.61,551.63 						"/>
						<polygon class="st18" points="1567.61,551.63 1577.19,546.1 1577.19,562.69 1567.61,568.22 						"/>
					</g>
				</g>
			</g>
			<g>
				<g>
					<g>
						<polygon class="st20" points="1529.3,513.51 1538.88,507.98 1548.46,513.51 1538.88,519.04 						"/>
						<polygon class="st19" points="1529.3,513.51 1529.3,530.1 1538.88,535.63 1538.88,519.04 						"/>
						<polygon class="st18" points="1538.88,519.04 1548.46,513.51 1548.46,530.1 1538.88,535.63 						"/>
					</g>
					<g>
						<polygon class="st18" points="1560.43,534.25 1565.22,531.48 1565.22,537.01 1560.43,539.78 						"/>
						<polygon class="st20" points="1541.27,523.18 1546.06,520.42 1565.22,531.48 1560.43,534.25 						"/>
						<polygon class="st19" points="1541.27,528.72 1560.43,539.78 1560.43,534.25 1541.27,523.18 						"/>
					</g>
					<g>
						<polygon class="st20" points="1558.03,530.1 1567.61,524.57 1577.19,530.1 1567.61,535.63 						"/>
						<polygon class="st19" points="1558.03,530.1 1558.03,546.69 1567.61,552.22 1567.61,535.63 						"/>
						<polygon class="st18" points="1567.61,535.63 1577.19,530.1 1577.19,546.69 1567.61,552.22 						"/>
					</g>
				</g>
			</g>
			<g>
				<g>
					<g>
						<polygon class="st20" points="1529.3,497.51 1538.88,491.98 1548.46,497.51 1538.88,503.04 						"/>
						<polygon class="st19" points="1529.3,497.51 1529.3,514.1 1538.88,519.63 1538.88,503.04 						"/>
						<polygon class="st18" points="1538.88,503.04 1548.46,497.51 1548.46,514.1 1538.88,519.63 						"/>
					</g>
					<g>
						<polygon class="st18" points="1560.43,518.25 1565.22,515.48 1565.22,521.01 1560.43,523.78 						"/>
						<polygon class="st20" points="1541.27,507.18 1546.06,504.42 1565.22,515.48 1560.43,518.25 						"/>
						<polygon class="st19" points="1541.27,512.72 1560.43,523.78 1560.43,518.25 1541.27,507.18 						"/>
					</g>
					<g>
						<polygon class="st20" points="1558.03,514.1 1567.61,508.57 1577.19,514.1 1567.61,519.63 						"/>
						<polygon class="st19" points="1558.03,514.1 1558.03,530.69 1567.61,536.22 1567.61,519.63 						"/>
						<polygon class="st18" points="1567.61,519.63 1577.19,514.1 1577.19,530.69 1567.61,536.22 						"/>
					</g>
				</g>
			</g>
			<g>
				<g>
					<g>
						<polygon class="st20" points="1529.3,481.51 1538.88,475.98 1548.46,481.51 1538.88,487.04 						"/>
						<polygon class="st19" points="1529.3,481.51 1529.3,498.1 1538.88,503.63 1538.88,487.04 						"/>
						<polygon class="st18" points="1538.88,487.04 1548.46,481.51 1548.46,498.1 1538.88,503.63 						"/>
					</g>
					<g>
						<polygon class="st18" points="1560.43,502.25 1565.22,499.48 1565.22,505.01 1560.43,507.78 						"/>
						<polygon class="st20" points="1541.27,491.18 1546.06,488.42 1565.22,499.48 1560.43,502.25 						"/>
						<polygon class="st19" points="1541.27,496.72 1560.43,507.78 1560.43,502.25 1541.27,491.18 						"/>
					</g>
					<g>
						<polygon class="st20" points="1558.03,498.1 1567.61,492.57 1577.19,498.1 1567.61,503.63 						"/>
						<polygon class="st19" points="1558.03,498.1 1558.03,514.69 1567.61,520.22 1567.61,503.63 						"/>
						<polygon class="st18" points="1567.61,503.63 1577.19,498.1 1577.19,514.69 1567.61,520.22 						"/>
					</g>
				</g>
			</g>
			<g>
				<g>
					<g>
						<polygon class="st20" points="1529.3,465.51 1538.88,459.98 1548.46,465.51 1538.88,471.04 						"/>
						<polygon class="st19" points="1529.3,465.51 1529.3,482.1 1538.88,487.63 1538.88,471.04 						"/>
						<polygon class="st18" points="1538.88,471.04 1548.46,465.51 1548.46,482.1 1538.88,487.63 						"/>
					</g>
					<g>
						<polygon class="st18" points="1560.43,486.25 1565.22,483.48 1565.22,489.01 1560.43,491.78 						"/>
						<polygon class="st20" points="1541.27,475.18 1546.06,472.42 1565.22,483.48 1560.43,486.25 						"/>
						<polygon class="st19" points="1541.27,480.72 1560.43,491.78 1560.43,486.25 1541.27,475.18 						"/>
					</g>
					<g>
						<polygon class="st20" points="1558.03,482.1 1567.61,476.57 1577.19,482.1 1567.61,487.63 						"/>
						<polygon class="st19" points="1558.03,482.1 1558.03,498.69 1567.61,504.22 1567.61,487.63 						"/>
						<polygon class="st18" points="1567.61,487.63 1577.19,482.1 1577.19,498.69 1567.61,504.22 						"/>
					</g>
				</g>
			</g>
			<g>
				<g>
					<g>
						<polygon class="st20" points="1529.3,449.51 1538.88,443.98 1548.46,449.51 1538.88,455.04 						"/>
						<polygon class="st19" points="1529.3,449.51 1529.3,466.1 1538.88,471.63 1538.88,455.04 						"/>
						<polygon class="st18" points="1538.88,455.04 1548.46,449.51 1548.46,466.1 1538.88,471.63 						"/>
					</g>
					<g>
						<polygon class="st18" points="1560.43,470.25 1565.22,467.48 1565.22,473.01 1560.43,475.78 						"/>
						<polygon class="st20" points="1541.27,459.18 1546.06,456.42 1565.22,467.48 1560.43,470.25 						"/>
						<polygon class="st19" points="1541.27,464.72 1560.43,475.78 1560.43,470.25 1541.27,459.18 						"/>
					</g>
					<g>
						<polygon class="st20" points="1558.03,466.1 1567.61,460.57 1577.19,466.1 1567.61,471.63 						"/>
						<polygon class="st19" points="1558.03,466.1 1558.03,482.69 1567.61,488.22 1567.61,471.63 						"/>
						<polygon class="st18" points="1567.61,471.63 1577.19,466.1 1577.19,482.69 1567.61,488.22 						"/>
					</g>
				</g>
			</g>
			<g>
				<g>
					<g>
						<polygon class="st20" points="1529.3,433.51 1538.88,427.98 1548.46,433.51 1538.88,439.04 						"/>
						<polygon class="st19" points="1529.3,433.51 1529.3,450.1 1538.88,455.63 1538.88,439.04 						"/>
						<polygon class="st18" points="1538.88,439.04 1548.46,433.51 1548.46,450.1 1538.88,455.63 						"/>
					</g>
					<g>
						<polygon class="st18" points="1560.43,454.25 1565.22,451.48 1565.22,457.01 1560.43,459.78 						"/>
						<polygon class="st20" points="1541.27,443.18 1546.06,440.42 1565.22,451.48 1560.43,454.25 						"/>
						<polygon class="st19" points="1541.27,448.72 1560.43,459.78 1560.43,454.25 1541.27,443.18 						"/>
					</g>
					<g>
						<polygon class="st20" points="1558.03,450.1 1567.61,444.57 1577.19,450.1 1567.61,455.63 						"/>
						<polygon class="st19" points="1558.03,450.1 1558.03,466.69 1567.61,472.22 1567.61,455.63 						"/>
						<polygon class="st18" points="1567.61,455.63 1577.19,450.1 1577.19,466.69 1567.61,472.22 						"/>
					</g>
				</g>
			</g>
			<g>
				<g>
					<g>
						<polygon class="st20" points="1529.3,417.51 1538.88,411.98 1548.46,417.51 1538.88,423.04 						"/>
						<polygon class="st19" points="1529.3,417.51 1529.3,434.1 1538.88,439.63 1538.88,423.04 						"/>
						<polygon class="st18" points="1538.88,423.04 1548.46,417.51 1548.46,434.1 1538.88,439.63 						"/>
					</g>
					<g>
						<polygon class="st18" points="1560.43,438.25 1565.22,435.48 1565.22,441.01 1560.43,443.78 						"/>
						<polygon class="st20" points="1541.27,427.18 1546.06,424.42 1565.22,435.48 1560.43,438.25 						"/>
						<polygon class="st19" points="1541.27,432.72 1560.43,443.78 1560.43,438.25 1541.27,427.18 						"/>
					</g>
					<g>
						<polygon class="st20" points="1558.03,434.1 1567.61,428.57 1577.19,434.1 1567.61,439.63 						"/>
						<polygon class="st19" points="1558.03,434.1 1558.03,450.69 1567.61,456.22 1567.61,439.63 						"/>
						<polygon class="st18" points="1567.61,439.63 1577.19,434.1 1577.19,450.69 1567.61,456.22 						"/>
					</g>
				</g>
			</g>
			<g>
				<g>
					<g>
						<polygon class="st20" points="1529.3,401.51 1538.88,395.98 1548.46,401.51 1538.88,407.04 						"/>
						<polygon class="st19" points="1529.3,401.51 1529.3,418.1 1538.88,423.63 1538.88,407.04 						"/>
						<polygon class="st18" points="1538.88,407.04 1548.46,401.51 1548.46,418.1 1538.88,423.63 						"/>
					</g>
					<g>
						<polygon class="st18" points="1560.43,422.25 1565.22,419.48 1565.22,425.01 1560.43,427.78 						"/>
						<polygon class="st20" points="1541.27,411.18 1546.06,408.42 1565.22,419.48 1560.43,422.25 						"/>
						<polygon class="st19" points="1541.27,416.72 1560.43,427.78 1560.43,422.25 1541.27,411.18 						"/>
					</g>
					<g>
						<polygon class="st20" points="1558.03,418.1 1567.61,412.57 1577.19,418.1 1567.61,423.63 						"/>
						<polygon class="st19" points="1558.03,418.1 1558.03,434.69 1567.61,440.22 1567.61,423.63 						"/>
						<polygon class="st18" points="1567.61,423.63 1577.19,418.1 1577.19,434.69 1567.61,440.22 						"/>
					</g>
				</g>
			</g>
			<g>
				<g>
					<g>
						<polygon class="st20" points="1529.3,385.51 1538.88,379.98 1548.46,385.51 1538.88,391.04 						"/>
						<polygon class="st19" points="1529.3,385.51 1529.3,402.1 1538.88,407.63 1538.88,391.04 						"/>
						<polygon class="st18" points="1538.88,391.04 1548.46,385.51 1548.46,402.1 1538.88,407.63 						"/>
					</g>
					<g>
						<polygon class="st18" points="1560.43,406.25 1565.22,403.48 1565.22,409.01 1560.43,411.78 						"/>
						<polygon class="st20" points="1541.27,395.18 1546.06,392.42 1565.22,403.48 1560.43,406.25 						"/>
						<polygon class="st19" points="1541.27,400.72 1560.43,411.78 1560.43,406.25 1541.27,395.18 						"/>
					</g>
					<g>
						<polygon class="st20" points="1558.03,402.1 1567.61,396.57 1577.19,402.1 1567.61,407.63 						"/>
						<polygon class="st19" points="1558.03,402.1 1558.03,418.69 1567.61,424.22 1567.61,407.63 						"/>
						<polygon class="st18" points="1567.61,407.63 1577.19,402.1 1577.19,418.69 1567.61,424.22 						"/>
					</g>
				</g>
			</g>
		</g>
		<polygon class="st19" points="1405.62,441.65 1345.62,407.01 1345.63,573.26 1405.62,607.93 		"/>
		<polygon class="st18" points="1525.63,441.65 1525.63,372.36 1405.62,441.65 1405.62,607.63 1465.63,573.28 1465.63,476.3 		"/>
	</g>
</g>
<g id="Layer_16" class="st0">
	<g class="st1">
		<polygon class="st27" points="900,95.22 810,147.18 900,199.15 990,147.18 		"/>
		
			<linearGradient id="SVGID_00000005237449234919311850000008761001947146269850_" gradientUnits="userSpaceOnUse" x1="922.4965" y1="186.1571" x2="967.5031" y2="264.1106">
			<stop  offset="0" style="stop-color:#0C1310"/>
			<stop  offset="1" style="stop-color:#82D1B8"/>
		</linearGradient>
		<polygon style="fill:url(#SVGID_00000005237449234919311850000008761001947146269850_);" points="900,199.15 900,303.08 
			990,251.12 990,147.18 		"/>
		<polygon class="st41" points="810,147.18 810,251.12 900,303.08 900,199.15 		"/>
	</g>
	<g class="st1">
		<polygon class="st20" points="1135.61,93.96 1045.61,145.92 1135.61,197.89 1225.62,145.92 		"/>
		<polygon class="st18" points="1135.61,197.89 1135.61,301.82 1225.62,249.86 1225.62,145.92 		"/>
		<polygon class="st19" points="1045.61,145.92 1045.61,249.86 1135.61,301.82 1135.61,197.89 		"/>
	</g>
</g>
</svg>
