<svg xmlns="http://www.w3.org/2000/svg" xml:space="preserve" width="1920" height="1080" style="enable-background:new 0 0 1920 1080"><style>.st0{display:none}.st1,.st2{display:inline}.st2{fill:none}.st3{fill:#b49481}.st5{fill:#f1af8c}.st7{fill:#7e8981}.st9{fill:#fff}.st10{display:inline;fill:#7e8981}.st12{fill:#ba87a8}.st13{fill:#e4f2bd}.st14{fill:#fffff5}.st15,.st16{display:inline;fill:#f1af8c}.st16{fill:#b49481}.st17{fill:#42210b}.st20{fill:#a5625b}.st21{fill:#635656}</style><g id="E_00000154400240219590546890000012912177110709610379_"><g id="E"><path d="m925.61 407 60-34.64 60 34.64-60 34.65z" class="st5"/><path d="m985.61 441.65 60-34.65v415.74l-60 34.64z" class="st7"/><path d="m985.61 788.09-60-34.64v69.29l60 34.64 60 34.65v-69.29z" class="st3"/><path d="m1106.48 788.59-60.87-35.14-60 34.64 61.01 35.23z" class="st5"/><path d="m1045.61 892.03 60-34.65v-69.29l-60 34.65z" class="st7"/><path d="M1028.41 708.43c0-5.81-2.05-9.89-5.38-11.79-2.8-.36-6.1.4-9.64 2.44-10.15 5.86-18.38 20.05-18.38 31.69v48.88l33.4-19.28v-51.94z" class="st17"/><path d="M995.01 779.65v3.05l36.77-21.22-3.37-1.11z" class="st5"/><path d="M1023.03 696.64c3.32 1.9 5.38 5.97 5.38 11.79v51.94l3.37 1.11v-51.94c0-7.59-3.5-12.22-8.75-12.9z" class="st3"/><path d="M1026.72 536.23c0-5.81-2.05-9.89-5.38-11.79-2.8-.36-6.1.4-9.64 2.44-10.15 5.86-18.38 20.05-18.38 31.69v48.88l33.4-19.28v-51.94z" class="st17"/><path d="M993.32 607.45v3.06l36.77-21.23-3.37-1.11z" class="st5"/><path d="M1021.34 524.44c3.32 1.9 5.38 5.97 5.38 11.79v51.94l3.37 1.11v-51.94c0-7.59-3.5-12.22-8.75-12.9zM1045.61 649.52l-72.14-41.67 12.14 76.31 60 34.64 60 34.65v-69.29z" class="st3"/><path d="m1165.61 649.52-60-34.65-60-34.64-60 34.64 60 34.65 60 34.64z" class="st5"/><path d="m1105.61 753.45 60-34.65v-69.28l-60 34.64z" class="st7"/><path d="m925.61 822.74 60 34.64V441.65l-60-34.65z" class="st3"/><path d="m1045.61 476.29-72.34-41.77 12.34 76.42 60 34.64 60 34.65v-69.29z" class="st3"/><path d="m1165.61 476.29-60-34.64-60-34.65-60 34.65 60 34.64 60 34.65z" class="st5"/><path d="m1105.61 580.23 60-34.65v-69.29l-60 34.65z" class="st7"/></g></g></svg>