<svg xmlns="http://www.w3.org/2000/svg" xml:space="preserve" width="1920" height="1080" style="enable-background:new 0 0 1920 1080"><style>.st0{display:none}.st1,.st2{display:inline}.st2{fill:none}.st3{fill:#b49481}.st5{fill:#f1af8c}.st7{fill:#7e8981}.st9{fill:#fff}.st10{display:inline;fill:#7e8981}.st12{fill:#ba87a8}.st13{fill:#e4f2bd}.st14{fill:#fffff5}.st15,.st16{display:inline;fill:#f1af8c}.st16{fill:#b49481}.st17{fill:#42210b}.st20{fill:#a5625b}.st21{fill:#635656}</style><g id="E_00000154400240219590546890000012912177110709610379_"><g id="E"><path d="m1165.61 649.52 90-51.97v69.29l-90 51.96-60 34.65v-69.29z" class="st7"/><path d="m1045.61 649.52 60-34.65 90-51.97 60 34.65-90 51.97-60 34.64z" class="st5"/><path d="m1105.61 753.45-60-34.65v-69.28l60 34.64z" class="st3"/><path d="m1165.61 476.29 90-51.96v69.29l-90 51.96-60 34.65v-69.29z" class="st7"/><path d="m1045.61 476.29 60-34.64 90-51.97 60 34.65-90 51.96-60 34.65z" class="st5"/><path d="m1105.61 580.23-60-34.65v-69.29l60 34.65z" class="st3"/><path d="m1165.61 822.74 90-51.97v69.29l-90 51.97-60 34.64v-69.29z" class="st7"/><path d="m1045.61 822.74 60-34.65 90-51.96 60 34.64-90 51.97-60 34.64z" class="st5"/><path d="m1105.61 926.67-60-34.64v-69.29l60 34.64z" class="st3"/><path d="m1049.8 478.68-.02-74.28 4.35-2.51v74.29z" class="st7"/><path d="m1049.8 478.68-.02-74.28-4.31-2.51v74.29z" class="st3"/><path d="m1105.47 510.83-.02-74.28 4.35-2.51v74.28z" class="st7"/><path d="m1105.47 510.83-.02-74.28-4.3-2.51v74.29z" class="st3"/><path d="m1161.14 478.68-.01-74.28 4.34-2.51v74.29z" class="st7"/><path d="m1161.14 478.68-.01-74.28-4.31-2.51v74.29z" class="st3"/><path d="M1036.84 401.89s68.59-29.62 68.61-64.28c.02-.01 0 103.92 0 103.92l-68.61-39.64z" class="st20"/><path d="m1105.45 441.54 68.93-39.64s-68.95-29.62-68.93-64.28v103.92z" class="st21"/></g></g></svg>