<svg xmlns="http://www.w3.org/2000/svg" xml:space="preserve" width="1920" height="1080" style="enable-background:new 0 0 1920 1080"><style>.st0{display:none}.st1,.st3{display:inline}.st3{fill:none}.st4{fill:#b49481}.st6{fill:#f1af8c}.st8{fill:#7e8981}.st10{fill:#fff}.st11{display:inline;fill:#7e8981}.st13{fill:#ba87a8}.st14{fill:#e4f2bd}.st15{fill:#fffff5}.st16,.st17{display:inline;fill:#f1af8c}.st17{fill:#b49481}.st18{fill:#2c3640}.st19{fill:#5b6c76}.st20{fill:#9aa3a5}.st21{fill:#151a26}.st27{fill:#22d3a1}</style><g id="E_00000154400240219590546890000012912177110709610379_"><g id="E"><path d="m1165.61 649.52 90-51.97v69.29l-90 51.96-60 34.65v-69.29z" class="st18"/><path d="m1045.61 649.52 60-34.65 90-51.97 60 34.65-90 51.97-60 34.64z" class="st20"/><path d="m1105.61 753.45-60-34.65v-69.28l60 34.64z" class="st19"/><path d="m1165.61 476.29 90-51.96v69.29l-90 51.96-60 34.65v-69.29z" class="st18"/><path d="m1045.61 476.29 60-34.64 90-51.97 60 34.65-90 51.96-60 34.65z" class="st20"/><path d="m1105.61 580.23-60-34.65v-69.29l60 34.65z" class="st19"/><path d="m1165.61 822.74 90-51.97v69.29l-90 51.97-60 34.64v-69.29z" class="st18"/><path d="m1045.61 822.74 60-34.65 90-51.96 60 34.64-90 51.97-60 34.64z" class="st20"/><path d="m1105.61 926.67-60-34.64v-69.29l60 34.64z" class="st19"/><path d="m1049.8 478.68-.02-74.28 4.35-2.51v74.29z" class="st18"/><path d="m1049.8 478.68-.02-74.28-4.31-2.51v74.29z" class="st19"/><path d="m1105.47 510.83-.02-74.28 4.35-2.51v74.28z" class="st18"/><path d="m1105.47 510.83-.02-74.28-4.3-2.51v74.29z" class="st19"/><path d="m1161.14 478.68-.01-74.28 4.34-2.51v74.29z" class="st18"/><path d="m1161.14 478.68-.01-74.28-4.31-2.51v74.29z" class="st19"/><linearGradient id="SVGID_00000132062415970170781080000011563969911186775743_" x1="1071.14" x2="1116.14" y1="421.73" y2="343.78" gradientUnits="userSpaceOnUse"><stop offset="0" style="stop-color:#22d3a1"/><stop offset=".99" style="stop-color:#141f0d"/></linearGradient><path d="M1036.84 401.89s68.59-29.62 68.61-64.28c.02-.01 0 103.92 0 103.92l-68.61-39.64z" style="fill:url(#SVGID_00000132062415970170781080000011563969911186775743_)"/><linearGradient id="SVGID_00000165224342082227937370000013047461379347154067_" x1="1094.89" x2="1139.95" y1="343.71" y2="421.77" gradientUnits="userSpaceOnUse"><stop offset="0" style="stop-color:#0c1310"/><stop offset="1" style="stop-color:#82d1b8"/></linearGradient><path d="m1105.45 441.54 68.93-39.64s-68.95-29.62-68.93-64.28v103.92z" style="fill:url(#SVGID_00000165224342082227937370000013047461379347154067_)"/></g></g></svg>