<svg xmlns="http://www.w3.org/2000/svg" xml:space="preserve" width="1920" height="1080" style="enable-background:new 0 0 1920 1080"><style>.st0{display:none}.st1{display:inline}.st3{fill:#b49481}.st5{fill:#f1af8c}.st7{fill:#7e8981}.st9{fill:#fff}.st10{display:inline;fill:#7e8981}.st12{fill:#ba87a8}.st13{fill:#e4f2bd}.st14{fill:#fffff5}.st15,.st16{display:inline;fill:#f1af8c}.st16{fill:#b49481}.st17{fill:#42210b}.st21{fill:#a5625b}.st22{fill:#635656}</style><g id="L_00000139977760153385702830000001766409031610678184_"><path d="m685.6 545.59 60.01-34.64v311.78l-60.01 34.65z" class="st7"/><path d="m625.6 510.94 60-34.64 60.01 34.64-60.01 34.65z" class="st5"/><path d="m745.61 822.73-60-34.65-.01-69.26v69.27z" style="fill:none"/><path d="M685.6 718.82V545.59l-60-34.64v311.78l60 34.65V719.04z" class="st3"/><path d="M639.84 510.64v-13.21l45.75 26.42v13.21z" class="st21"/><path d="M731.34 510.64v-13.21l-45.75 26.42v13.21z" class="st22"/><path d="m639.84 497.43 45.75-26.41 45.75 26.41-45.75 26.42z" class="st5"/><path d="M651.81 496.81v-9.77l33.82 19.53v9.77z" class="st21"/><path d="M719.45 496.81v-9.77l-33.82 19.53v9.77z" class="st22"/><path d="m651.81 487.04 33.82-19.53 33.82 19.53-33.82 19.53z" class="st5"/><path d="m629.93 513.45-.02-74.28 4.35-2.51v74.28z" class="st7"/><path d="m629.93 513.45-.02-74.28-4.3-2.51v74.29z" class="st3"/><path d="m685.6 545.59-.01-74.27 4.35-2.51v74.28z" class="st7"/><path d="m685.6 545.59-.01-74.27-4.31-2.51v74.28z" class="st3"/><path d="m741.28 513.45-.02-74.28 4.35-2.51v74.28z" class="st7"/><path d="m741.28 513.45-.02-74.28-4.31-2.51v74.29z" class="st3"/><path d="M616.98 436.66s68.59-29.62 68.61-64.28c.02-.01 0 103.92 0 103.92l-68.61-39.64z" class="st21"/><path d="m685.59 476.3 68.93-39.64s-68.95-29.62-68.93-64.28V476.3z" class="st22"/><path d="m644.11 817.61 19.25 11.12-3.85 2.22-19.26-11.12z" class="st5"/><path d="M644.11 817.61v-4.44l19.25 11.11v4.45z" class="st3"/><path d="M640.25 819.83v-4.44l3.86-2.22v4.44z" class="st7"/><path d="m644.11 802.61 19.25 11.12-3.85 2.22-19.26-11.12z" class="st5"/><path d="M644.11 802.61v-4.44l19.25 11.11v4.45z" class="st3"/><path d="M640.25 804.83v-4.44l3.86-2.22v4.44z" class="st7"/><path d="m644.11 787.61 19.25 11.12-3.85 2.22-19.26-11.12z" class="st5"/><path d="M644.11 787.61v-4.44l19.25 11.11v4.45z" class="st3"/><path d="M640.25 789.83v-4.44l3.86-2.22v4.44z" class="st7"/><path d="m644.11 772.61 19.25 11.12-3.85 2.22-19.26-11.12z" class="st5"/><path d="M644.11 772.61v-4.44l19.25 11.11v4.45z" class="st3"/><path d="M640.25 774.83v-4.44l3.86-2.22v4.44z" class="st7"/><path d="m644.11 757.61 19.25 11.12-3.85 2.22-19.26-11.12z" class="st5"/><path d="M644.11 757.61v-4.44l19.25 11.11v4.45z" class="st3"/><path d="M640.25 759.83v-4.44l3.86-2.22v4.44z" class="st7"/><path d="m644.11 742.61 19.25 11.12-3.85 2.22-19.26-11.12z" class="st5"/><path d="M644.11 742.61v-4.44l19.25 11.11v4.45z" class="st3"/><path d="M640.25 744.83v-4.44l3.86-2.22v4.44z" class="st7"/><path d="m644.11 727.61 19.25 11.12-3.85 2.22-19.26-11.12z" class="st5"/><path d="M644.11 727.61v-4.44l19.25 11.11v4.45z" class="st3"/><path d="M640.25 729.83v-4.44l3.86-2.22v4.44z" class="st7"/><path d="m644.11 712.61 19.25 11.12-3.85 2.22-19.26-11.12z" class="st5"/><path d="M644.11 712.61v-4.44l19.25 11.11v4.45z" class="st3"/><path d="M640.25 714.83v-4.44l3.86-2.22v4.44z" class="st7"/><path d="m644.11 697.61 19.25 11.12-3.85 2.22-19.26-11.12z" class="st5"/><path d="M644.11 697.61v-4.44l19.25 11.11v4.45z" class="st3"/><path d="M640.25 699.83v-4.44l3.86-2.22v4.44z" class="st7"/><path d="m644.11 682.61 19.25 11.12-3.85 2.22-19.26-11.12z" class="st5"/><path d="M644.11 682.61v-4.44l19.25 11.11v4.45z" class="st3"/><path d="M640.25 684.83v-4.44l3.86-2.22v4.44z" class="st7"/><path d="m644.11 667.61 19.25 11.12-3.85 2.22-19.26-11.12z" class="st5"/><path d="M644.11 667.61v-4.44l19.25 11.11v4.45z" class="st3"/><path d="M640.25 669.83v-4.44l3.86-2.22v4.44z" class="st7"/><path d="m644.11 652.61 19.25 11.12-3.85 2.22-19.26-11.12z" class="st5"/><path d="M644.11 652.61v-4.44l19.25 11.11v4.45z" class="st3"/><path d="M640.25 654.83v-4.44l3.86-2.22v4.44z" class="st7"/><path d="m644.11 637.61 19.25 11.12-3.85 2.22-19.26-11.12z" class="st5"/><path d="M644.11 637.61v-4.44l19.25 11.11v4.45z" class="st3"/><path d="M640.25 639.83v-4.44l3.86-2.22v4.44z" class="st7"/><path d="m644.11 622.61 19.25 11.12-3.85 2.22-19.26-11.12z" class="st5"/><path d="M644.11 622.61v-4.44l19.25 11.11v4.45z" class="st3"/><path d="M640.25 624.83v-4.44l3.86-2.22v4.44z" class="st7"/><path d="m644.11 607.61 19.25 11.12-3.85 2.22-19.26-11.12z" class="st5"/><path d="M644.11 607.61v-4.44l19.25 11.11v4.45z" class="st3"/><path d="M640.25 609.83v-4.44l3.86-2.22v4.44z" class="st7"/><path d="m644.11 592.61 19.25 11.12-3.85 2.22-19.26-11.12z" class="st5"/><path d="M644.11 592.61v-4.44l19.25 11.11v4.45z" class="st3"/><path d="M640.25 594.83v-4.44l3.86-2.22v4.44z" class="st7"/><path d="m644.11 577.61 19.25 11.12-3.85 2.22-19.26-11.12z" class="st5"/><path d="M644.11 577.61v-4.44l19.25 11.11v4.45z" class="st3"/><path d="M640.25 579.83v-4.44l3.86-2.22v4.44z" class="st7"/><path d="m644.11 562.61 19.25 11.12-3.85 2.22-19.26-11.12z" class="st5"/><path d="M644.11 562.61v-4.44l19.25 11.11v4.45z" class="st3"/><path d="M640.25 564.83v-4.44l3.86-2.22v4.44z" class="st7"/><path d="m644.11 547.61 19.25 11.12-3.85 2.22-19.26-11.12z" class="st5"/><path d="M644.11 547.61v-4.44l19.25 11.11v4.45z" class="st3"/><path d="M640.25 549.83v-4.44l3.86-2.22v4.44z" class="st7"/><path d="m644.11 532.61 19.25 11.12-3.85 2.22-19.26-11.12z" class="st5"/><path d="M644.11 532.61v-4.44l19.25 11.11v4.45z" class="st3"/><path d="M640.25 534.83v-4.44l3.86-2.22v4.44z" class="st7"/></g></svg>