<svg xmlns="http://www.w3.org/2000/svg" xml:space="preserve" width="1920" height="1080" style="enable-background:new 0 0 1920 1080"><style>.st0{display:none}.st1{display:inline}.st4{fill:#b49481}.st6{fill:#f1af8c}.st8{fill:#7e8981}.st10{fill:#fff}.st11{display:inline;fill:#7e8981}.st13{fill:#ba87a8}.st14{fill:#e4f2bd}.st15{fill:#fffff5}.st16,.st17{display:inline;fill:#f1af8c}.st17{fill:#b49481}.st18{fill:#2c3640}.st19{fill:#5b6c76}.st20{fill:#9aa3a5}.st21{fill:#151a26}.st25{fill:#22d3a1}.st33{display:inline;fill:#5b6c76}</style><g id="L_00000139977760153385702830000001766409031610678184_"><path d="M685.6 718.82V545.59h.02l-.02-69.29-60.01-34.63v69.3l.01.01v311.75l60 34.65V719.04z" class="st19"/><path d="m625.62 441.66 60.03-34.65 59.98 34.65-60 34.63z" class="st20"/><path d="M745.61 510.95h-.01l.01-69.28-60 34.63.03 69.27-.04.02v311.79l60.01-34.65z" class="st18"/><path d="m745.55 753.49-60-34.65-.01-69.27v69.28z" style="fill:none"/><path d="M639.78 441.4v-13.21l45.75 26.42v13.21z" class="st25"/><linearGradient id="SVGID_00000104695313132009214850000017985253164716959124_" x1="705.54" x2="711.26" y1="443.05" y2="452.96" gradientUnits="userSpaceOnUse"><stop offset="0" style="stop-color:#0c1310"/><stop offset="1" style="stop-color:#82d1b8"/></linearGradient><path d="M731.28 441.4v-13.21l-45.75 26.42v13.21z" style="fill:url(#SVGID_00000104695313132009214850000017985253164716959124_)"/><path d="m639.78 428.19 45.75-26.41 45.75 26.41-45.75 26.42z" class="st20"/><path d="M651.74 427.56v-9.76l33.83 19.53v9.76z" class="st25"/><linearGradient id="SVGID_00000018206145271047776250000002996940564094404753_" x1="700.36" x2="704.59" y1="428.78" y2="436.11" gradientUnits="userSpaceOnUse"><stop offset="0" style="stop-color:#0c1310"/><stop offset="1" style="stop-color:#82d1b8"/></linearGradient><path d="M719.39 427.56v-9.76l-33.82 19.53v9.76z" style="fill:url(#SVGID_00000018206145271047776250000002996940564094404753_)"/><path d="m651.74 417.8 33.83-19.53 33.82 19.53-33.82 19.53z" class="st20"/><linearGradient id="SVGID_00000107573233975134616210000014742513554459293853_" x1="660.11" x2="660.11" y1="400.31" y2="400.31" gradientUnits="userSpaceOnUse"><stop offset="0" style="stop-color:#0c1310"/><stop offset="1" style="stop-color:#82d1b8"/></linearGradient><path d="m629.87 444.2-.02-74.27 4.35-2.51v74.28z" class="st18"/><path d="m629.87 444.2-.02-74.27-4.3-2.51v74.28z" class="st19"/><path d="m685.54 476.35-.01-74.28 4.34-2.51v74.29z" class="st18"/><path d="m685.54 476.35-.01-74.28-4.31-2.51v74.29z" class="st19"/><path d="m741.22 444.2-.02-74.27 4.35-2.51v74.28z" class="st18"/><path d="m741.22 444.2-.02-74.27-4.31-2.51v74.28z" class="st19"/><linearGradient id="SVGID_00000016796986107276741790000010777084314099787410_" x1="651.21" x2="696.21" y1="387.25" y2="309.31" gradientUnits="userSpaceOnUse"><stop offset="0" style="stop-color:#22d3a1"/><stop offset=".99" style="stop-color:#141f0d"/></linearGradient><path d="M616.92 367.42s68.59-29.62 68.61-64.28c.02-.01 0 103.92 0 103.92l-68.61-39.64z" style="fill:url(#SVGID_00000016796986107276741790000010777084314099787410_)"/><linearGradient id="SVGID_00000029751623094048674670000004907855480300669099_" x1="674.96" x2="720.03" y1="309.24" y2="387.3" gradientUnits="userSpaceOnUse"><stop offset="0" style="stop-color:#0c1310"/><stop offset="1" style="stop-color:#82d1b8"/></linearGradient><path d="m685.53 407.06 68.93-39.64s-68.95-29.62-68.93-64.28v103.92z" style="fill:url(#SVGID_00000029751623094048674670000004907855480300669099_)"/><path d="m644.04 748.37 19.25 11.12-3.85 2.22-19.25-11.12z" class="st20"/><path d="M644.04 748.37v-4.45l19.25 11.12v4.45z" class="st19"/><path d="M640.19 750.59v-4.44l3.85-2.23v4.45z" class="st18"/><path d="m644.04 733.37 19.25 11.12-3.85 2.22-19.25-11.12z" class="st20"/><path d="M644.04 733.37v-4.45l19.25 11.12v4.45z" class="st19"/><path d="M640.19 735.59v-4.44l3.85-2.23v4.45z" class="st18"/><path d="m644.04 718.37 19.25 11.12-3.85 2.22-19.25-11.12z" class="st20"/><path d="M644.04 718.37v-4.45l19.25 11.12v4.45z" class="st19"/><path d="M640.19 720.59v-4.44l3.85-2.23v4.45z" class="st18"/><path d="m644.04 703.37 19.25 11.12-3.85 2.22-19.25-11.12z" class="st20"/><path d="M644.04 703.37v-4.45l19.25 11.12v4.45z" class="st19"/><path d="M640.19 705.59v-4.44l3.85-2.23v4.45z" class="st18"/><path d="m644.04 688.37 19.25 11.12-3.85 2.22-19.25-11.12z" class="st20"/><path d="M644.04 688.37v-4.45l19.25 11.12v4.45z" class="st19"/><path d="M640.19 690.59v-4.44l3.85-2.23v4.45z" class="st18"/><path d="m644.04 673.37 19.25 11.12-3.85 2.22-19.25-11.12z" class="st20"/><path d="M644.04 673.37v-4.45l19.25 11.12v4.45z" class="st19"/><path d="M640.19 675.59v-4.44l3.85-2.23v4.45z" class="st18"/><path d="m644.04 658.37 19.25 11.12-3.85 2.22-19.25-11.12z" class="st20"/><path d="M644.04 658.37v-4.45l19.25 11.12v4.45z" class="st19"/><path d="M640.19 660.59v-4.44l3.85-2.23v4.45z" class="st18"/><path d="m644.04 643.37 19.25 11.12-3.85 2.22-19.25-11.12z" class="st20"/><path d="M644.04 643.37v-4.45l19.25 11.12v4.45z" class="st19"/><path d="M640.19 645.59v-4.44l3.85-2.23v4.45z" class="st18"/><path d="m644.04 628.37 19.25 11.12-3.85 2.22-19.25-11.12z" class="st20"/><path d="M644.04 628.37v-4.45l19.25 11.12v4.45z" class="st19"/><path d="M640.19 630.59v-4.44l3.85-2.23v4.45z" class="st18"/><path d="m644.04 613.37 19.25 11.12-3.85 2.22-19.25-11.12z" class="st20"/><path d="M644.04 613.37v-4.45l19.25 11.12v4.45z" class="st19"/><path d="M640.19 615.59v-4.44l3.85-2.23v4.45z" class="st18"/><path d="m644.04 598.37 19.25 11.12-3.85 2.22-19.25-11.12z" class="st20"/><path d="M644.04 598.37v-4.45l19.25 11.12v4.45z" class="st19"/><path d="M640.19 600.59v-4.44l3.85-2.23v4.45z" class="st18"/><path d="m644.04 583.37 19.25 11.12-3.85 2.22-19.25-11.12z" class="st20"/><path d="M644.04 583.37v-4.45l19.25 11.12v4.45z" class="st19"/><path d="M640.19 585.59v-4.44l3.85-2.23v4.45z" class="st18"/><path d="m644.04 568.37 19.25 11.12-3.85 2.22-19.25-11.12z" class="st20"/><path d="M644.04 568.37v-4.45l19.25 11.12v4.45z" class="st19"/><path d="M640.19 570.59v-4.44l3.85-2.23v4.45z" class="st18"/><path d="m644.04 553.37 19.25 11.12-3.85 2.22-19.25-11.12z" class="st20"/><path d="M644.04 553.37v-4.45l19.25 11.12v4.45z" class="st19"/><path d="M640.19 555.59v-4.44l3.85-2.23v4.45z" class="st18"/><path d="m644.04 538.37 19.25 11.12-3.85 2.22-19.25-11.12z" class="st20"/><path d="M644.04 538.37v-4.45l19.25 11.12v4.45z" class="st19"/><path d="M640.19 540.59v-4.44l3.85-2.23v4.45z" class="st18"/><path d="m644.04 523.37 19.25 11.12-3.85 2.22-19.25-11.12z" class="st20"/><path d="M644.04 523.37v-4.45l19.25 11.12v4.45z" class="st19"/><path d="M640.19 525.59v-4.44l3.85-2.23v4.45z" class="st18"/><path d="m644.04 508.37 19.25 11.12-3.85 2.22-19.25-11.12z" class="st20"/><path d="M644.04 508.37v-4.45l19.25 11.12v4.45z" class="st19"/><path d="M640.19 510.59v-4.44l3.85-2.23v4.45z" class="st18"/><path d="m644.04 493.37 19.25 11.12-3.85 2.22-19.25-11.12z" class="st20"/><path d="M644.04 493.37v-4.45l19.25 11.12v4.45z" class="st19"/><path d="M640.19 495.59v-4.44l3.85-2.23v4.45z" class="st18"/><path d="m644.04 478.37 19.25 11.12-3.85 2.22-19.25-11.12z" class="st20"/><path d="M644.04 478.37v-4.45l19.25 11.12v4.45z" class="st19"/><path d="M640.19 480.59v-4.44l3.85-2.23v4.45z" class="st18"/><path d="m644.04 463.37 19.25 11.12-3.85 2.22-19.25-11.12z" class="st20"/><path d="M644.04 463.37v-4.45l19.25 11.12v4.45z" class="st19"/><path d="M640.19 465.59v-4.44l3.85-2.23v4.45z" class="st18"/></g></svg>