<svg xmlns="http://www.w3.org/2000/svg" xml:space="preserve" width="1920" height="1080" style="enable-background:new 0 0 1920 1080"><style>.st0{display:none}.st1,.st2{display:inline}.st2{fill:none}.st3{fill:#b49481}.st5{fill:#f1af8c}.st7{fill:#7e8981}.st9{fill:#fff}.st10{display:inline;fill:#7e8981}.st12{fill:#ba87a8}.st13{fill:#e4f2bd}.st14{fill:#fffff5}.st15,.st16{display:inline;fill:#f1af8c}.st16{fill:#b49481}.st17{fill:#42210b}.st20{fill:#a5625b}.st21{fill:#635656}</style><g id="L_00000139977760153385702830000001766409031610678184_"><path d="m865.61 822.73-60-34.64-60-34.64-60.01 34.64 60.01 34.64 60 34.65z" class="st5"/><path d="m805.61 926.67 60-34.65v-69.29l-60 34.65z" class="st7"/><path d="m745.61 822.73-60-34.63-.01-69.06v138.34l60.01 34.64 60 34.65v-69.29z" class="st3"/><path d="M745.61 822.73c-60-34.65-60.01-103.92-60.01-103.92v69.29l60.01 34.63z" class="st3"/><linearGradient id="SVGID_1_" x1="694.69" x2="778.388" y1="711.192" y2="810.94" gradientUnits="userSpaceOnUse"><stop offset=".248" style="stop-color:#7e8981"/><stop offset=".904" style="stop-color:#f1af8c"/></linearGradient><path d="m745.61 684.17-60.01 34.87.01 69.04 60 34.65-60-34.65-.01-69.27s.01 69.27 60.01 103.92l60-34.64c-60-34.64-60-103.92-60-103.92z" style="fill:url(#SVGID_1_)"/></g></svg>