<svg xmlns="http://www.w3.org/2000/svg" xml:space="preserve" width="1920" height="1080" style="enable-background:new 0 0 1920 1080"><style>.st0{display:none}.st1,.st3{display:inline}.st3{fill:none}.st4{fill:#b49481}.st6{fill:#f1af8c}.st8{fill:#7e8981}.st10{fill:#fff}.st11{display:inline;fill:#7e8981}.st13{fill:#ba87a8}.st14{fill:#e4f2bd}.st15{fill:#fffff5}.st16,.st17{display:inline;fill:#f1af8c}.st17{fill:#b49481}.st18{fill:#2c3640}.st19{fill:#5b6c76}.st20{fill:#9aa3a5}.st21{fill:#151a26}.st27{fill:#22d3a1}</style><g id="L_00000139977760153385702830000001766409031610678184_"><path d="m865.61 822.73-60-34.64-60-34.64-60.01 34.64 60.01 34.64 60 34.65z" class="st20"/><path d="m805.61 926.67 60-34.65v-69.29l-60 34.65z" class="st18"/><path d="m745.61 822.73-60-34.63-.01-69.06v138.34l60.01 34.64 60 34.65v-69.29z" class="st19"/><path d="M745.61 822.73c-60-34.65-60.01-103.92-60.01-103.92v69.29l60.01 34.63z" class="st19"/><linearGradient id="SVGID_00000007401102240850882620000012910851301429970107_" x1="694.69" x2="778.39" y1="711.19" y2="810.94" gradientUnits="userSpaceOnUse"><stop offset=".25" style="stop-color:#2c3640"/><stop offset=".9" style="stop-color:#9aa3a5"/></linearGradient><path d="m745.61 684.17-60.01 34.87.01 69.04 60 34.65-60-34.65-.01-69.27s.01 69.27 60.01 103.92l60-34.64c-60-34.64-60-103.92-60-103.92z" style="fill:url(#SVGID_00000007401102240850882620000012910851301429970107_)"/></g></svg>